<mxfile host="app.diagrams.net" modified="2022-09-15T14:29:39.656Z" agent="5.0 (Windows NT 10.0; Win64; x64) AppleWebKit/537.36 (KHTML, like Gecko) Chrome/105.0.0.0 Safari/537.36" etag="nvVhBdf8siBXHST3Fme5" version="20.2.8" type="github">
  <diagram id="0DaNQtWEV84FX3U8s3Dl" name="Page-1">
    <mxGraphModel dx="5450" dy="2937" grid="0" gridSize="10" guides="1" tooltips="1" connect="1" arrows="1" fold="1" page="1" pageScale="1" pageWidth="4681" pageHeight="3300" math="0" shadow="0">
      <root>
        <mxCell id="0" />
        <mxCell id="1" parent="0" />
        <mxCell id="2JAsxOmvKEnWSwmgY7Z6-1" value="" style="ellipse;html=1;shape=startState;fillColor=#000000;strokeColor=#ff0000;" vertex="1" parent="1">
          <mxGeometry x="135" y="432" width="30" height="30" as="geometry" />
        </mxCell>
        <mxCell id="2JAsxOmvKEnWSwmgY7Z6-2" value="" style="edgeStyle=orthogonalEdgeStyle;html=1;verticalAlign=bottom;endArrow=open;endSize=8;strokeColor=#ff0000;rounded=0;entryX=0.5;entryY=0;entryDx=0;entryDy=0;" edge="1" parent="1" source="2JAsxOmvKEnWSwmgY7Z6-1" target="2JAsxOmvKEnWSwmgY7Z6-4">
          <mxGeometry relative="1" as="geometry">
            <mxPoint x="172" y="540" as="targetPoint" />
          </mxGeometry>
        </mxCell>
        <mxCell id="2JAsxOmvKEnWSwmgY7Z6-3" style="edgeStyle=orthogonalEdgeStyle;rounded=0;orthogonalLoop=1;jettySize=auto;html=1;exitX=1;exitY=0.5;exitDx=0;exitDy=0;entryX=0;entryY=0.5;entryDx=0;entryDy=0;" edge="1" parent="1" source="2JAsxOmvKEnWSwmgY7Z6-4" target="2JAsxOmvKEnWSwmgY7Z6-12">
          <mxGeometry relative="1" as="geometry" />
        </mxCell>
        <mxCell id="2JAsxOmvKEnWSwmgY7Z6-4" value="New feature request" style="rounded=1;whiteSpace=wrap;html=1;" vertex="1" parent="1">
          <mxGeometry x="91" y="522.5" width="118" height="25" as="geometry" />
        </mxCell>
        <mxCell id="2JAsxOmvKEnWSwmgY7Z6-5" value="M / L" style="edgeStyle=orthogonalEdgeStyle;rounded=0;orthogonalLoop=1;jettySize=auto;html=1;exitX=0.5;exitY=1;exitDx=0;exitDy=0;entryX=0.5;entryY=0;entryDx=0;entryDy=0;startArrow=none;" edge="1" parent="1" source="2JAsxOmvKEnWSwmgY7Z6-146" target="2JAsxOmvKEnWSwmgY7Z6-7">
          <mxGeometry relative="1" as="geometry" />
        </mxCell>
        <mxCell id="2JAsxOmvKEnWSwmgY7Z6-6" value="Analysis" style="rounded=1;whiteSpace=wrap;html=1;fillColor=#b1ddf0;strokeColor=#10739e;" vertex="1" parent="1">
          <mxGeometry x="295" y="430.5" width="69" height="25" as="geometry" />
        </mxCell>
        <mxCell id="2JAsxOmvKEnWSwmgY7Z6-7" value="Study" style="rounded=1;whiteSpace=wrap;html=1;fillColor=#b1ddf0;strokeColor=#000066;strokeWidth=4;" vertex="1" parent="1">
          <mxGeometry x="295" y="625" width="69" height="25" as="geometry" />
        </mxCell>
        <mxCell id="2JAsxOmvKEnWSwmgY7Z6-8" style="edgeStyle=orthogonalEdgeStyle;rounded=0;orthogonalLoop=1;jettySize=auto;html=1;exitX=0.5;exitY=0;exitDx=0;exitDy=0;entryX=0;entryY=0.5;entryDx=0;entryDy=0;" edge="1" parent="1" source="2JAsxOmvKEnWSwmgY7Z6-12" target="2JAsxOmvKEnWSwmgY7Z6-6">
          <mxGeometry relative="1" as="geometry" />
        </mxCell>
        <mxCell id="2JAsxOmvKEnWSwmgY7Z6-9" value="S / Unknown" style="edgeLabel;html=1;align=center;verticalAlign=middle;resizable=0;points=[];fontSize=14;" vertex="1" connectable="0" parent="2JAsxOmvKEnWSwmgY7Z6-8">
          <mxGeometry x="0.1089" y="1" relative="1" as="geometry">
            <mxPoint x="4" y="31" as="offset" />
          </mxGeometry>
        </mxCell>
        <mxCell id="2JAsxOmvKEnWSwmgY7Z6-10" style="edgeStyle=orthogonalEdgeStyle;rounded=0;orthogonalLoop=1;jettySize=auto;html=1;exitX=0.5;exitY=1;exitDx=0;exitDy=0;entryX=0;entryY=0.5;entryDx=0;entryDy=0;" edge="1" parent="1" source="2JAsxOmvKEnWSwmgY7Z6-12" target="2JAsxOmvKEnWSwmgY7Z6-7">
          <mxGeometry relative="1" as="geometry" />
        </mxCell>
        <mxCell id="2JAsxOmvKEnWSwmgY7Z6-11" value="M/L" style="edgeLabel;html=1;align=center;verticalAlign=middle;resizable=0;points=[];fontSize=14;" vertex="1" connectable="0" parent="2JAsxOmvKEnWSwmgY7Z6-10">
          <mxGeometry x="-0.02" y="3" relative="1" as="geometry">
            <mxPoint x="-3" y="-25" as="offset" />
          </mxGeometry>
        </mxCell>
        <mxCell id="2JAsxOmvKEnWSwmgY7Z6-12" value="" style="rhombus;whiteSpace=wrap;html=1;" vertex="1" parent="1">
          <mxGeometry x="232" y="523" width="25" height="24" as="geometry" />
        </mxCell>
        <mxCell id="2JAsxOmvKEnWSwmgY7Z6-13" value="Yes" style="edgeStyle=orthogonalEdgeStyle;rounded=0;orthogonalLoop=1;jettySize=auto;html=1;exitX=1;exitY=0.5;exitDx=0;exitDy=0;entryX=0.5;entryY=0;entryDx=0;entryDy=0;fontSize=14;" edge="1" parent="1" source="2JAsxOmvKEnWSwmgY7Z6-15" target="2JAsxOmvKEnWSwmgY7Z6-45">
          <mxGeometry relative="1" as="geometry">
            <mxPoint x="1129" y="248.98000000000002" as="targetPoint" />
          </mxGeometry>
        </mxCell>
        <mxCell id="2JAsxOmvKEnWSwmgY7Z6-14" value="No" style="edgeStyle=orthogonalEdgeStyle;rounded=0;orthogonalLoop=1;jettySize=auto;html=1;exitX=0.5;exitY=1;exitDx=0;exitDy=0;fontSize=14;entryX=0;entryY=0.5;entryDx=0;entryDy=0;" edge="1" parent="1" source="2JAsxOmvKEnWSwmgY7Z6-15" target="2JAsxOmvKEnWSwmgY7Z6-19">
          <mxGeometry x="0.3333" relative="1" as="geometry">
            <mxPoint x="924" y="297" as="targetPoint" />
            <Array as="points">
              <mxPoint x="836" y="318" />
            </Array>
            <mxPoint as="offset" />
          </mxGeometry>
        </mxCell>
        <mxCell id="2JAsxOmvKEnWSwmgY7Z6-15" value="TS feature ready?" style="rhombus;whiteSpace=wrap;html=1;" vertex="1" parent="1">
          <mxGeometry x="731" y="230" width="210" height="39.5" as="geometry" />
        </mxCell>
        <mxCell id="2JAsxOmvKEnWSwmgY7Z6-16" style="edgeStyle=orthogonalEdgeStyle;rounded=0;orthogonalLoop=1;jettySize=auto;html=1;exitX=0.5;exitY=0.5;exitDx=0;exitDy=0;exitPerimeter=0;entryX=0;entryY=0.5;entryDx=0;entryDy=0;fontSize=14;" edge="1" parent="1" source="2JAsxOmvKEnWSwmgY7Z6-17" target="2JAsxOmvKEnWSwmgY7Z6-25">
          <mxGeometry relative="1" as="geometry">
            <Array as="points">
              <mxPoint x="1130" y="454" />
            </Array>
          </mxGeometry>
        </mxCell>
        <mxCell id="2JAsxOmvKEnWSwmgY7Z6-17" value="" style="line;strokeWidth=2;direction=south;html=1;fontSize=14;" vertex="1" parent="1">
          <mxGeometry x="1125" y="205" width="10" height="390" as="geometry" />
        </mxCell>
        <mxCell id="2JAsxOmvKEnWSwmgY7Z6-18" style="edgeStyle=orthogonalEdgeStyle;rounded=0;orthogonalLoop=1;jettySize=auto;html=1;exitX=1;exitY=0.5;exitDx=0;exitDy=0;entryX=0.5;entryY=1;entryDx=0;entryDy=0;fontSize=14;" edge="1" parent="1" source="2JAsxOmvKEnWSwmgY7Z6-19" target="2JAsxOmvKEnWSwmgY7Z6-45">
          <mxGeometry relative="1" as="geometry">
            <mxPoint x="1130" y="318.0100000000002" as="targetPoint" />
          </mxGeometry>
        </mxCell>
        <mxCell id="2JAsxOmvKEnWSwmgY7Z6-19" value="TS Feature implementation" style="rounded=1;whiteSpace=wrap;html=1;fillColor=#b1ddf0;strokeColor=#10739e;" vertex="1" parent="1">
          <mxGeometry x="942.25" y="302" width="105.5" height="32" as="geometry" />
        </mxCell>
        <mxCell id="2JAsxOmvKEnWSwmgY7Z6-20" value="Do we have a working config?" style="rhombus;whiteSpace=wrap;html=1;" vertex="1" parent="1">
          <mxGeometry x="731" y="356" width="210" height="39.5" as="geometry" />
        </mxCell>
        <mxCell id="2JAsxOmvKEnWSwmgY7Z6-21" value="Do we have the env. for testing?" style="rhombus;whiteSpace=wrap;html=1;" vertex="1" parent="1">
          <mxGeometry x="731" y="471" width="210" height="39.5" as="geometry" />
        </mxCell>
        <mxCell id="2JAsxOmvKEnWSwmgY7Z6-22" style="edgeStyle=orthogonalEdgeStyle;rounded=0;orthogonalLoop=1;jettySize=auto;html=1;exitX=0.5;exitY=0;exitDx=0;exitDy=0;fontSize=14;entryX=0.5;entryY=0;entryDx=0;entryDy=0;" edge="1" parent="1" source="2JAsxOmvKEnWSwmgY7Z6-25" target="2JAsxOmvKEnWSwmgY7Z6-136">
          <mxGeometry relative="1" as="geometry">
            <mxPoint x="563" y="332" as="targetPoint" />
            <Array as="points">
              <mxPoint x="1282" y="166" />
              <mxPoint x="564" y="166" />
            </Array>
          </mxGeometry>
        </mxCell>
        <mxCell id="2JAsxOmvKEnWSwmgY7Z6-23" value="Problem" style="edgeLabel;html=1;align=center;verticalAlign=middle;resizable=0;points=[];fontSize=14;" vertex="1" connectable="0" parent="2JAsxOmvKEnWSwmgY7Z6-22">
          <mxGeometry x="-0.2763" y="2" relative="1" as="geometry">
            <mxPoint x="-293" y="-3" as="offset" />
          </mxGeometry>
        </mxCell>
        <mxCell id="2JAsxOmvKEnWSwmgY7Z6-24" value="Pass" style="edgeStyle=orthogonalEdgeStyle;rounded=0;orthogonalLoop=1;jettySize=auto;html=1;exitX=0.5;exitY=1;exitDx=0;exitDy=0;entryX=0.5;entryY=0;entryDx=0;entryDy=0;fontSize=14;" edge="1" parent="1" source="2JAsxOmvKEnWSwmgY7Z6-25" target="2JAsxOmvKEnWSwmgY7Z6-27">
          <mxGeometry relative="1" as="geometry" />
        </mxCell>
        <mxCell id="2JAsxOmvKEnWSwmgY7Z6-25" value="Feature developer test" style="rhombus;whiteSpace=wrap;html=1;fillColor=#b0e3e6;strokeColor=#0e8088;" vertex="1" parent="1">
          <mxGeometry x="1177" y="434.25" width="210" height="39.5" as="geometry" />
        </mxCell>
        <mxCell id="2JAsxOmvKEnWSwmgY7Z6-26" style="edgeStyle=orthogonalEdgeStyle;rounded=0;orthogonalLoop=1;jettySize=auto;html=1;exitX=0.5;exitY=1;exitDx=0;exitDy=0;entryX=1;entryY=0.5;entryDx=0;entryDy=0;" edge="1" parent="1" source="2JAsxOmvKEnWSwmgY7Z6-27" target="2JAsxOmvKEnWSwmgY7Z6-138">
          <mxGeometry relative="1" as="geometry" />
        </mxCell>
        <mxCell id="2JAsxOmvKEnWSwmgY7Z6-27" value="Adapter config&amp;nbsp; template creation" style="rounded=1;whiteSpace=wrap;html=1;fillColor=#b1ddf0;strokeColor=#10739e;" vertex="1" parent="1">
          <mxGeometry x="1229.25" y="559.5" width="105.5" height="32" as="geometry" />
        </mxCell>
        <mxCell id="2JAsxOmvKEnWSwmgY7Z6-28" value="No" style="edgeStyle=orthogonalEdgeStyle;rounded=0;orthogonalLoop=1;jettySize=auto;html=1;exitX=1;exitY=0.5;exitDx=0;exitDy=0;fontSize=14;entryX=0.5;entryY=0;entryDx=0;entryDy=0;" edge="1" parent="1" source="2JAsxOmvKEnWSwmgY7Z6-30" target="2JAsxOmvKEnWSwmgY7Z6-61">
          <mxGeometry x="-0.3554" relative="1" as="geometry">
            <mxPoint x="1434" y="704" as="targetPoint" />
            <mxPoint as="offset" />
          </mxGeometry>
        </mxCell>
        <mxCell id="2JAsxOmvKEnWSwmgY7Z6-29" value="Yes" style="edgeStyle=orthogonalEdgeStyle;rounded=0;orthogonalLoop=1;jettySize=auto;html=1;exitX=0.5;exitY=1;exitDx=0;exitDy=0;entryX=0;entryY=0.5;entryDx=0;entryDy=0;fontSize=14;" edge="1" parent="1" source="2JAsxOmvKEnWSwmgY7Z6-30" target="2JAsxOmvKEnWSwmgY7Z6-32">
          <mxGeometry x="0.2956" y="1" relative="1" as="geometry">
            <Array as="points">
              <mxPoint x="566" y="780" />
            </Array>
            <mxPoint as="offset" />
          </mxGeometry>
        </mxCell>
        <mxCell id="2JAsxOmvKEnWSwmgY7Z6-30" value="Is Adapter code&lt;br&gt;development&amp;nbsp;&amp;nbsp;needed?" style="rhombus;whiteSpace=wrap;html=1;" vertex="1" parent="1">
          <mxGeometry x="488" y="658" width="156" height="93" as="geometry" />
        </mxCell>
        <mxCell id="2JAsxOmvKEnWSwmgY7Z6-31" style="edgeStyle=orthogonalEdgeStyle;rounded=0;orthogonalLoop=1;jettySize=auto;html=1;exitX=1;exitY=0.5;exitDx=0;exitDy=0;fontSize=14;entryX=0.5;entryY=1;entryDx=0;entryDy=0;" edge="1" parent="1" source="2JAsxOmvKEnWSwmgY7Z6-32" target="2JAsxOmvKEnWSwmgY7Z6-61">
          <mxGeometry relative="1" as="geometry">
            <mxPoint x="1429" y="780" as="targetPoint" />
          </mxGeometry>
        </mxCell>
        <mxCell id="2JAsxOmvKEnWSwmgY7Z6-32" value="Adapter API&amp;nbsp; / internal service feature&amp;nbsp; and unit test implementation" style="rounded=1;whiteSpace=wrap;html=1;fillColor=#b1ddf0;strokeColor=#10739e;" vertex="1" parent="1">
          <mxGeometry x="935" y="757" width="142" height="47" as="geometry" />
        </mxCell>
        <mxCell id="2JAsxOmvKEnWSwmgY7Z6-33" style="edgeStyle=orthogonalEdgeStyle;rounded=0;orthogonalLoop=1;jettySize=auto;html=1;exitX=0.5;exitY=0.5;exitDx=0;exitDy=0;exitPerimeter=0;entryX=0;entryY=0.5;entryDx=0;entryDy=0;fontSize=14;" edge="1" parent="1" source="2JAsxOmvKEnWSwmgY7Z6-34" target="2JAsxOmvKEnWSwmgY7Z6-35">
          <mxGeometry relative="1" as="geometry">
            <Array as="points">
              <mxPoint x="1326" y="710" />
            </Array>
          </mxGeometry>
        </mxCell>
        <mxCell id="2JAsxOmvKEnWSwmgY7Z6-34" value="" style="line;strokeWidth=2;direction=south;html=1;fontSize=14;" vertex="1" parent="1">
          <mxGeometry x="1318" y="653" width="16" height="116" as="geometry" />
        </mxCell>
        <mxCell id="2JAsxOmvKEnWSwmgY7Z6-35" value="Adapter config&amp;nbsp; and descriptor update&amp;nbsp;" style="rounded=1;whiteSpace=wrap;html=1;fillColor=#b1ddf0;strokeColor=#10739e;" vertex="1" parent="1">
          <mxGeometry x="1398" y="694" width="116" height="32" as="geometry" />
        </mxCell>
        <mxCell id="2JAsxOmvKEnWSwmgY7Z6-36" style="edgeStyle=orthogonalEdgeStyle;rounded=0;orthogonalLoop=1;jettySize=auto;html=1;entryX=0;entryY=0.5;entryDx=0;entryDy=0;exitX=1;exitY=0.5;exitDx=0;exitDy=0;" edge="1" parent="1" source="2JAsxOmvKEnWSwmgY7Z6-35" target="2JAsxOmvKEnWSwmgY7Z6-41">
          <mxGeometry relative="1" as="geometry">
            <mxPoint x="1603" y="796.0799999999999" as="sourcePoint" />
          </mxGeometry>
        </mxCell>
        <mxCell id="2JAsxOmvKEnWSwmgY7Z6-37" value="Pass" style="edgeStyle=orthogonalEdgeStyle;rounded=0;orthogonalLoop=1;jettySize=auto;html=1;exitX=1;exitY=0.5;exitDx=0;exitDy=0;fontSize=14;entryX=0;entryY=0.5;entryDx=0;entryDy=0;" edge="1" parent="1" source="2JAsxOmvKEnWSwmgY7Z6-41" target="2JAsxOmvKEnWSwmgY7Z6-167">
          <mxGeometry x="-0.2075" relative="1" as="geometry">
            <mxPoint x="1824" y="710" as="targetPoint" />
            <mxPoint as="offset" />
          </mxGeometry>
        </mxCell>
        <mxCell id="2JAsxOmvKEnWSwmgY7Z6-38" value="Problem with Adapter implementation" style="edgeStyle=orthogonalEdgeStyle;rounded=0;orthogonalLoop=1;jettySize=auto;html=1;exitX=0.5;exitY=1;exitDx=0;exitDy=0;fontSize=14;" edge="1" parent="1" source="2JAsxOmvKEnWSwmgY7Z6-41">
          <mxGeometry x="0.3562" relative="1" as="geometry">
            <mxPoint x="1026" y="804" as="targetPoint" />
            <Array as="points">
              <mxPoint x="1655" y="729" />
              <mxPoint x="1655" y="909" />
              <mxPoint x="1026" y="909" />
            </Array>
            <mxPoint as="offset" />
          </mxGeometry>
        </mxCell>
        <mxCell id="2JAsxOmvKEnWSwmgY7Z6-39" value="Problem with TS feature / missing config entry" style="edgeStyle=orthogonalEdgeStyle;rounded=0;orthogonalLoop=1;jettySize=auto;html=1;exitX=0.5;exitY=0;exitDx=0;exitDy=0;fontSize=14;entryX=0.5;entryY=1;entryDx=0;entryDy=0;" edge="1" parent="1" source="2JAsxOmvKEnWSwmgY7Z6-41" target="2JAsxOmvKEnWSwmgY7Z6-19">
          <mxGeometry x="-0.0284" relative="1" as="geometry">
            <mxPoint x="1603" y="690" as="sourcePoint" />
            <mxPoint x="994" y="383" as="targetPoint" />
            <Array as="points">
              <mxPoint x="1641" y="355" />
              <mxPoint x="994" y="355" />
              <mxPoint x="994" y="334" />
            </Array>
            <mxPoint x="-1" as="offset" />
          </mxGeometry>
        </mxCell>
        <mxCell id="2JAsxOmvKEnWSwmgY7Z6-40" value="Problem with descriptors" style="edgeStyle=orthogonalEdgeStyle;rounded=0;orthogonalLoop=1;jettySize=auto;html=1;exitX=0.5;exitY=1;exitDx=0;exitDy=0;fontSize=14;entryX=0.5;entryY=1;entryDx=0;entryDy=0;" edge="1" parent="1" source="2JAsxOmvKEnWSwmgY7Z6-41" target="2JAsxOmvKEnWSwmgY7Z6-35">
          <mxGeometry relative="1" as="geometry">
            <mxPoint x="1421" y="725" as="targetPoint" />
            <Array as="points">
              <mxPoint x="1630" y="729" />
              <mxPoint x="1630" y="791" />
              <mxPoint x="1456" y="791" />
            </Array>
          </mxGeometry>
        </mxCell>
        <mxCell id="2JAsxOmvKEnWSwmgY7Z6-41" value="Feature developer test" style="rhombus;whiteSpace=wrap;html=1;fillColor=#b0e3e6;strokeColor=#0e8088;" vertex="1" parent="1">
          <mxGeometry x="1562" y="690" width="159" height="39" as="geometry" />
        </mxCell>
        <mxCell id="2JAsxOmvKEnWSwmgY7Z6-42" style="edgeStyle=orthogonalEdgeStyle;rounded=0;orthogonalLoop=1;jettySize=auto;html=1;exitX=1;exitY=0.5;exitDx=0;exitDy=0;entryX=0.354;entryY=0.527;entryDx=0;entryDy=0;entryPerimeter=0;" edge="1" parent="1" source="2JAsxOmvKEnWSwmgY7Z6-43">
          <mxGeometry relative="1" as="geometry">
            <mxPoint x="448.73" y="535.06" as="targetPoint" />
            <Array as="points" />
          </mxGeometry>
        </mxCell>
        <mxCell id="2JAsxOmvKEnWSwmgY7Z6-43" value="" style="shape=ellipse;html=1;fillColor=strokeColor;fontSize=18;fontColor=#ffffff;" vertex="1" parent="1">
          <mxGeometry x="399" y="525.5" width="20" height="19" as="geometry" />
        </mxCell>
        <mxCell id="2JAsxOmvKEnWSwmgY7Z6-44" style="edgeStyle=orthogonalEdgeStyle;rounded=0;orthogonalLoop=1;jettySize=auto;html=1;exitX=1;exitY=0.5;exitDx=0;exitDy=0;fontSize=14;entryX=0.188;entryY=0.608;entryDx=0;entryDy=0;entryPerimeter=0;" edge="1" parent="1" source="2JAsxOmvKEnWSwmgY7Z6-45" target="2JAsxOmvKEnWSwmgY7Z6-17">
          <mxGeometry relative="1" as="geometry">
            <mxPoint x="1123.5" y="278.83333333333337" as="targetPoint" />
          </mxGeometry>
        </mxCell>
        <mxCell id="2JAsxOmvKEnWSwmgY7Z6-45" value="" style="shape=ellipse;html=1;fillColor=strokeColor;fontSize=18;fontColor=#ffffff;" vertex="1" parent="1">
          <mxGeometry x="1082" y="269.5" width="20" height="19" as="geometry" />
        </mxCell>
        <mxCell id="2JAsxOmvKEnWSwmgY7Z6-46" value="Yes" style="edgeStyle=orthogonalEdgeStyle;rounded=0;orthogonalLoop=1;jettySize=auto;html=1;exitX=1;exitY=0.5;exitDx=0;exitDy=0;entryX=0.5;entryY=0;entryDx=0;entryDy=0;fontSize=14;" edge="1" parent="1" target="2JAsxOmvKEnWSwmgY7Z6-51">
          <mxGeometry relative="1" as="geometry">
            <mxPoint x="942" y="375.75" as="sourcePoint" />
            <mxPoint x="1130" y="374.98" as="targetPoint" />
          </mxGeometry>
        </mxCell>
        <mxCell id="2JAsxOmvKEnWSwmgY7Z6-47" value="No" style="edgeStyle=orthogonalEdgeStyle;rounded=0;orthogonalLoop=1;jettySize=auto;html=1;exitX=0.5;exitY=1;exitDx=0;exitDy=0;fontSize=14;entryX=0;entryY=0.5;entryDx=0;entryDy=0;" edge="1" parent="1" target="2JAsxOmvKEnWSwmgY7Z6-49">
          <mxGeometry x="0.3333" relative="1" as="geometry">
            <mxPoint x="837" y="395.5" as="sourcePoint" />
            <mxPoint x="925" y="423" as="targetPoint" />
            <Array as="points">
              <mxPoint x="837" y="444" />
            </Array>
            <mxPoint as="offset" />
          </mxGeometry>
        </mxCell>
        <mxCell id="2JAsxOmvKEnWSwmgY7Z6-48" style="edgeStyle=orthogonalEdgeStyle;rounded=0;orthogonalLoop=1;jettySize=auto;html=1;exitX=1;exitY=0.5;exitDx=0;exitDy=0;entryX=0.5;entryY=1;entryDx=0;entryDy=0;fontSize=14;" edge="1" parent="1" source="2JAsxOmvKEnWSwmgY7Z6-49" target="2JAsxOmvKEnWSwmgY7Z6-51">
          <mxGeometry relative="1" as="geometry">
            <mxPoint x="1131" y="444.0100000000002" as="targetPoint" />
          </mxGeometry>
        </mxCell>
        <mxCell id="2JAsxOmvKEnWSwmgY7Z6-49" value="Config Creation" style="rounded=1;whiteSpace=wrap;html=1;fillColor=#b1ddf0;strokeColor=#10739e;" vertex="1" parent="1">
          <mxGeometry x="943.25" y="428" width="105.5" height="32" as="geometry" />
        </mxCell>
        <mxCell id="2JAsxOmvKEnWSwmgY7Z6-50" style="edgeStyle=orthogonalEdgeStyle;rounded=0;orthogonalLoop=1;jettySize=auto;html=1;exitX=1;exitY=0.5;exitDx=0;exitDy=0;fontSize=14;entryX=0.188;entryY=0.608;entryDx=0;entryDy=0;entryPerimeter=0;" edge="1" parent="1" source="2JAsxOmvKEnWSwmgY7Z6-51">
          <mxGeometry relative="1" as="geometry">
            <mxPoint x="1129.92" y="404.31999999999994" as="targetPoint" />
          </mxGeometry>
        </mxCell>
        <mxCell id="2JAsxOmvKEnWSwmgY7Z6-51" value="" style="shape=ellipse;html=1;fillColor=strokeColor;fontSize=18;fontColor=#ffffff;" vertex="1" parent="1">
          <mxGeometry x="1083" y="395.5" width="20" height="19" as="geometry" />
        </mxCell>
        <mxCell id="2JAsxOmvKEnWSwmgY7Z6-52" value="Yes" style="edgeStyle=orthogonalEdgeStyle;rounded=0;orthogonalLoop=1;jettySize=auto;html=1;exitX=1;exitY=0.5;exitDx=0;exitDy=0;entryX=0.5;entryY=0;entryDx=0;entryDy=0;fontSize=14;" edge="1" parent="1" target="2JAsxOmvKEnWSwmgY7Z6-57">
          <mxGeometry relative="1" as="geometry">
            <mxPoint x="942" y="490.75" as="sourcePoint" />
            <mxPoint x="1130" y="489.98" as="targetPoint" />
          </mxGeometry>
        </mxCell>
        <mxCell id="2JAsxOmvKEnWSwmgY7Z6-53" value="No" style="edgeStyle=orthogonalEdgeStyle;rounded=0;orthogonalLoop=1;jettySize=auto;html=1;exitX=0.5;exitY=1;exitDx=0;exitDy=0;fontSize=14;entryX=0;entryY=0.5;entryDx=0;entryDy=0;" edge="1" parent="1" target="2JAsxOmvKEnWSwmgY7Z6-55">
          <mxGeometry x="0.3333" relative="1" as="geometry">
            <mxPoint x="837" y="510.5" as="sourcePoint" />
            <mxPoint x="925" y="538" as="targetPoint" />
            <Array as="points">
              <mxPoint x="837" y="559" />
            </Array>
            <mxPoint as="offset" />
          </mxGeometry>
        </mxCell>
        <mxCell id="2JAsxOmvKEnWSwmgY7Z6-54" style="edgeStyle=orthogonalEdgeStyle;rounded=0;orthogonalLoop=1;jettySize=auto;html=1;exitX=1;exitY=0.5;exitDx=0;exitDy=0;entryX=0.5;entryY=1;entryDx=0;entryDy=0;fontSize=14;" edge="1" parent="1" source="2JAsxOmvKEnWSwmgY7Z6-55" target="2JAsxOmvKEnWSwmgY7Z6-57">
          <mxGeometry relative="1" as="geometry">
            <mxPoint x="1131" y="559.0100000000002" as="targetPoint" />
          </mxGeometry>
        </mxCell>
        <mxCell id="2JAsxOmvKEnWSwmgY7Z6-55" value="Environment creation / fix" style="rounded=1;whiteSpace=wrap;html=1;fillColor=#e51400;fontColor=#ffffff;strokeColor=#000066;strokeWidth=4;" vertex="1" parent="1">
          <mxGeometry x="943.25" y="543" width="105.5" height="32" as="geometry" />
        </mxCell>
        <mxCell id="2JAsxOmvKEnWSwmgY7Z6-56" style="edgeStyle=orthogonalEdgeStyle;rounded=0;orthogonalLoop=1;jettySize=auto;html=1;exitX=1;exitY=0.5;exitDx=0;exitDy=0;fontSize=14;entryX=0.188;entryY=0.608;entryDx=0;entryDy=0;entryPerimeter=0;" edge="1" parent="1" source="2JAsxOmvKEnWSwmgY7Z6-57">
          <mxGeometry relative="1" as="geometry">
            <mxPoint x="1129.92" y="519.3199999999997" as="targetPoint" />
          </mxGeometry>
        </mxCell>
        <mxCell id="2JAsxOmvKEnWSwmgY7Z6-57" value="" style="shape=ellipse;html=1;fillColor=strokeColor;fontSize=18;fontColor=#ffffff;" vertex="1" parent="1">
          <mxGeometry x="1083" y="510.5" width="20" height="19" as="geometry" />
        </mxCell>
        <mxCell id="2JAsxOmvKEnWSwmgY7Z6-58" value="" style="endArrow=classic;html=1;rounded=0;fontSize=14;exitX=1;exitY=0.5;exitDx=0;exitDy=0;entryX=0.5;entryY=1;entryDx=0;entryDy=0;" edge="1" parent="1" source="2JAsxOmvKEnWSwmgY7Z6-7" target="2JAsxOmvKEnWSwmgY7Z6-43">
          <mxGeometry width="50" height="50" relative="1" as="geometry">
            <mxPoint x="728" y="577" as="sourcePoint" />
            <mxPoint x="778" y="527" as="targetPoint" />
            <Array as="points">
              <mxPoint x="409" y="638" />
            </Array>
          </mxGeometry>
        </mxCell>
        <mxCell id="2JAsxOmvKEnWSwmgY7Z6-59" value="S" style="endArrow=classic;html=1;rounded=0;fontSize=14;exitX=1;exitY=0.5;exitDx=0;exitDy=0;entryX=0;entryY=0.5;entryDx=0;entryDy=0;" edge="1" parent="1" source="2JAsxOmvKEnWSwmgY7Z6-146" target="2JAsxOmvKEnWSwmgY7Z6-43">
          <mxGeometry width="50" height="50" relative="1" as="geometry">
            <mxPoint x="728" y="577" as="sourcePoint" />
            <mxPoint x="448" y="524" as="targetPoint" />
          </mxGeometry>
        </mxCell>
        <mxCell id="2JAsxOmvKEnWSwmgY7Z6-60" style="edgeStyle=orthogonalEdgeStyle;rounded=0;orthogonalLoop=1;jettySize=auto;html=1;exitX=1;exitY=0.5;exitDx=0;exitDy=0;entryX=0.75;entryY=0.5;entryDx=0;entryDy=0;entryPerimeter=0;fontSize=14;" edge="1" parent="1" source="2JAsxOmvKEnWSwmgY7Z6-61" target="2JAsxOmvKEnWSwmgY7Z6-34">
          <mxGeometry relative="1" as="geometry" />
        </mxCell>
        <mxCell id="2JAsxOmvKEnWSwmgY7Z6-61" value="" style="shape=ellipse;html=1;fillColor=strokeColor;fontSize=18;fontColor=#ffffff;" vertex="1" parent="1">
          <mxGeometry x="1120" y="730.5" width="20" height="19" as="geometry" />
        </mxCell>
        <mxCell id="2JAsxOmvKEnWSwmgY7Z6-62" style="edgeStyle=orthogonalEdgeStyle;rounded=0;orthogonalLoop=1;jettySize=auto;html=1;exitX=1;exitY=0.5;exitDx=0;exitDy=0;entryX=0.5;entryY=0.505;entryDx=0;entryDy=0;entryPerimeter=0;" edge="1" parent="1" source="2JAsxOmvKEnWSwmgY7Z6-63" target="2JAsxOmvKEnWSwmgY7Z6-114">
          <mxGeometry relative="1" as="geometry">
            <Array as="points">
              <mxPoint x="3055" y="583" />
              <mxPoint x="3191" y="583" />
            </Array>
          </mxGeometry>
        </mxCell>
        <mxCell id="2JAsxOmvKEnWSwmgY7Z6-63" value="Release package creation" style="rounded=0;html=1;align=left;horizontal=1;verticalAlign=top;whiteSpace=wrap;fontSize=14;" vertex="1" parent="1">
          <mxGeometry x="2314" y="170" width="770" height="730" as="geometry" />
        </mxCell>
        <mxCell id="2JAsxOmvKEnWSwmgY7Z6-64" value="Jenkins Job" style="rounded=0;html=1;align=left;horizontal=1;verticalAlign=top;whiteSpace=wrap;fontSize=18;" vertex="1" parent="1">
          <mxGeometry x="2394" y="395" width="244" height="359" as="geometry" />
        </mxCell>
        <mxCell id="2JAsxOmvKEnWSwmgY7Z6-65" value="Release tgz package" style="rounded=1;whiteSpace=wrap;html=1;fillColor=#60a917;fontColor=#ffffff;strokeColor=#2D7600;" vertex="1" parent="1">
          <mxGeometry x="3170" y="704" width="105.5" height="32" as="geometry" />
        </mxCell>
        <mxCell id="2JAsxOmvKEnWSwmgY7Z6-66" style="edgeStyle=orthogonalEdgeStyle;rounded=0;orthogonalLoop=1;jettySize=auto;html=1;exitX=1;exitY=0.5;exitDx=0;exitDy=0;fontSize=14;entryX=0;entryY=0.5;entryDx=0;entryDy=0;" edge="1" parent="1" source="2JAsxOmvKEnWSwmgY7Z6-67" target="2JAsxOmvKEnWSwmgY7Z6-141">
          <mxGeometry relative="1" as="geometry">
            <mxPoint x="2372.9199999999996" y="440.8199999999997" as="targetPoint" />
          </mxGeometry>
        </mxCell>
        <mxCell id="2JAsxOmvKEnWSwmgY7Z6-67" value="" style="shape=ellipse;html=1;fillColor=strokeColor;fontSize=18;fontColor=#ffffff;" vertex="1" parent="1">
          <mxGeometry x="2333" y="257" width="20" height="19" as="geometry" />
        </mxCell>
        <mxCell id="2JAsxOmvKEnWSwmgY7Z6-68" value="Pass" style="edgeStyle=orthogonalEdgeStyle;rounded=0;orthogonalLoop=1;jettySize=auto;html=1;exitX=0.5;exitY=1;exitDx=0;exitDy=0;" edge="1" parent="1" source="2JAsxOmvKEnWSwmgY7Z6-70" target="2JAsxOmvKEnWSwmgY7Z6-73">
          <mxGeometry x="0.3" relative="1" as="geometry">
            <mxPoint as="offset" />
          </mxGeometry>
        </mxCell>
        <mxCell id="2JAsxOmvKEnWSwmgY7Z6-69" value="Fail" style="edgeStyle=orthogonalEdgeStyle;rounded=0;orthogonalLoop=1;jettySize=auto;html=1;exitX=1;exitY=0.5;exitDx=0;exitDy=0;entryX=0.156;entryY=0.076;entryDx=0;entryDy=0;entryPerimeter=0;" edge="1" parent="1" source="2JAsxOmvKEnWSwmgY7Z6-70" target="2JAsxOmvKEnWSwmgY7Z6-125">
          <mxGeometry x="-0.5276" relative="1" as="geometry">
            <Array as="points">
              <mxPoint x="2578" y="432" />
            </Array>
            <mxPoint as="offset" />
          </mxGeometry>
        </mxCell>
        <mxCell id="2JAsxOmvKEnWSwmgY7Z6-70" value="Hadolint" style="rhombus;whiteSpace=wrap;html=1;fillColor=#b0e3e6;strokeColor=#0e8088;" vertex="1" parent="1">
          <mxGeometry x="2412" y="421.5" width="166" height="32" as="geometry" />
        </mxCell>
        <mxCell id="2JAsxOmvKEnWSwmgY7Z6-71" value="Pass" style="edgeStyle=orthogonalEdgeStyle;rounded=0;orthogonalLoop=1;jettySize=auto;html=1;exitX=0.5;exitY=1;exitDx=0;exitDy=0;entryX=0.5;entryY=0;entryDx=0;entryDy=0;" edge="1" parent="1" source="2JAsxOmvKEnWSwmgY7Z6-73" target="2JAsxOmvKEnWSwmgY7Z6-76">
          <mxGeometry x="-0.2" relative="1" as="geometry">
            <mxPoint as="offset" />
          </mxGeometry>
        </mxCell>
        <mxCell id="2JAsxOmvKEnWSwmgY7Z6-72" value="Fail" style="edgeStyle=orthogonalEdgeStyle;rounded=0;orthogonalLoop=1;jettySize=auto;html=1;exitX=1;exitY=0.5;exitDx=0;exitDy=0;entryX=0.016;entryY=0.361;entryDx=0;entryDy=0;entryPerimeter=0;" edge="1" parent="1" source="2JAsxOmvKEnWSwmgY7Z6-73" target="2JAsxOmvKEnWSwmgY7Z6-125">
          <mxGeometry x="-0.8162" relative="1" as="geometry">
            <Array as="points">
              <mxPoint x="2617" y="521" />
              <mxPoint x="2617" y="439" />
              <mxPoint x="2721" y="439" />
            </Array>
            <mxPoint as="offset" />
          </mxGeometry>
        </mxCell>
        <mxCell id="2JAsxOmvKEnWSwmgY7Z6-73" value="Traffic tests&lt;br&gt;NWST or Kamailio" style="rhombus;whiteSpace=wrap;html=1;fillColor=#b0e3e6;strokeColor=#0e8088;" vertex="1" parent="1">
          <mxGeometry x="2412" y="483.5" width="166" height="74.5" as="geometry" />
        </mxCell>
        <mxCell id="2JAsxOmvKEnWSwmgY7Z6-74" value="Pass" style="edgeStyle=orthogonalEdgeStyle;rounded=0;orthogonalLoop=1;jettySize=auto;html=1;exitX=0.5;exitY=1;exitDx=0;exitDy=0;entryX=0.5;entryY=0;entryDx=0;entryDy=0;" edge="1" parent="1" source="2JAsxOmvKEnWSwmgY7Z6-76" target="2JAsxOmvKEnWSwmgY7Z6-83">
          <mxGeometry x="-0.2" relative="1" as="geometry">
            <Array as="points">
              <mxPoint x="2494" y="620" />
              <mxPoint x="2494" y="634" />
              <mxPoint x="2495" y="634" />
            </Array>
            <mxPoint as="offset" />
          </mxGeometry>
        </mxCell>
        <mxCell id="2JAsxOmvKEnWSwmgY7Z6-75" value="Fail" style="edgeStyle=orthogonalEdgeStyle;rounded=0;orthogonalLoop=1;jettySize=auto;html=1;exitX=1;exitY=0.5;exitDx=0;exitDy=0;entryX=0.094;entryY=0.782;entryDx=0;entryDy=0;entryPerimeter=0;" edge="1" parent="1" source="2JAsxOmvKEnWSwmgY7Z6-76" target="2JAsxOmvKEnWSwmgY7Z6-125">
          <mxGeometry x="-0.807" relative="1" as="geometry">
            <mxPoint x="2719" y="440" as="targetPoint" />
            <Array as="points">
              <mxPoint x="2625" y="604" />
              <mxPoint x="2625" y="446" />
            </Array>
            <mxPoint as="offset" />
          </mxGeometry>
        </mxCell>
        <mxCell id="2JAsxOmvKEnWSwmgY7Z6-76" value="Trivy" style="rhombus;whiteSpace=wrap;html=1;fillColor=#b0e3e6;strokeColor=#0e8088;" vertex="1" parent="1">
          <mxGeometry x="2412" y="588" width="166" height="32" as="geometry" />
        </mxCell>
        <mxCell id="2JAsxOmvKEnWSwmgY7Z6-77" value="Fail" style="edgeStyle=orthogonalEdgeStyle;rounded=0;orthogonalLoop=1;jettySize=auto;html=1;exitX=0.5;exitY=0;exitDx=0;exitDy=0;entryX=0.5;entryY=1;entryDx=0;entryDy=0;" edge="1" parent="1" source="2JAsxOmvKEnWSwmgY7Z6-79" target="2JAsxOmvKEnWSwmgY7Z6-125">
          <mxGeometry relative="1" as="geometry" />
        </mxCell>
        <mxCell id="2JAsxOmvKEnWSwmgY7Z6-78" value="Pass" style="edgeStyle=orthogonalEdgeStyle;rounded=0;orthogonalLoop=1;jettySize=auto;html=1;exitX=1;exitY=0.5;exitDx=0;exitDy=0;entryX=0.116;entryY=0.524;entryDx=0;entryDy=0;entryPerimeter=0;fontSize=12;" edge="1" parent="1" source="2JAsxOmvKEnWSwmgY7Z6-79" target="2JAsxOmvKEnWSwmgY7Z6-161">
          <mxGeometry relative="1" as="geometry" />
        </mxCell>
        <mxCell id="2JAsxOmvKEnWSwmgY7Z6-79" value="JFrog XRay" style="rhombus;whiteSpace=wrap;html=1;fillColor=#b0e3e6;strokeColor=#0e8088;" vertex="1" parent="1">
          <mxGeometry x="2661.5" y="758.37" width="139" height="47.25" as="geometry" />
        </mxCell>
        <mxCell id="2JAsxOmvKEnWSwmgY7Z6-80" value="Fail" style="edgeStyle=orthogonalEdgeStyle;rounded=0;orthogonalLoop=1;jettySize=auto;html=1;exitX=1;exitY=0.5;exitDx=0;exitDy=0;entryX=0.303;entryY=1.075;entryDx=0;entryDy=0;entryPerimeter=0;" edge="1" parent="1" source="2JAsxOmvKEnWSwmgY7Z6-83" target="2JAsxOmvKEnWSwmgY7Z6-125">
          <mxGeometry x="-0.8326" relative="1" as="geometry">
            <Array as="points">
              <mxPoint x="2631" y="664" />
              <mxPoint x="2631" y="451" />
              <mxPoint x="2727" y="451" />
            </Array>
            <mxPoint as="offset" />
          </mxGeometry>
        </mxCell>
        <mxCell id="2JAsxOmvKEnWSwmgY7Z6-81" value="Pass" style="edgeStyle=orthogonalEdgeStyle;rounded=0;orthogonalLoop=1;jettySize=auto;html=1;exitX=0.5;exitY=1;exitDx=0;exitDy=0;entryX=0.5;entryY=0;entryDx=0;entryDy=0;" edge="1" parent="1" source="2JAsxOmvKEnWSwmgY7Z6-158" target="2JAsxOmvKEnWSwmgY7Z6-123">
          <mxGeometry x="0.5626" relative="1" as="geometry">
            <Array as="points" />
            <mxPoint as="offset" />
          </mxGeometry>
        </mxCell>
        <mxCell id="2JAsxOmvKEnWSwmgY7Z6-82" style="edgeStyle=orthogonalEdgeStyle;rounded=0;orthogonalLoop=1;jettySize=auto;html=1;exitX=0.5;exitY=1;exitDx=0;exitDy=0;entryX=0.5;entryY=0;entryDx=0;entryDy=0;fontSize=18;" edge="1" parent="1" source="2JAsxOmvKEnWSwmgY7Z6-83" target="2JAsxOmvKEnWSwmgY7Z6-158">
          <mxGeometry relative="1" as="geometry" />
        </mxCell>
        <mxCell id="2JAsxOmvKEnWSwmgY7Z6-83" value="NMAP" style="rhombus;whiteSpace=wrap;html=1;fillColor=#b0e3e6;strokeColor=#0e8088;" vertex="1" parent="1">
          <mxGeometry x="2412" y="648" width="166" height="32" as="geometry" />
        </mxCell>
        <mxCell id="2JAsxOmvKEnWSwmgY7Z6-84" value="OWASP ZAP" style="rounded=0;html=1;align=left;horizontal=1;verticalAlign=top;whiteSpace=wrap;fontSize=18;" vertex="1" parent="1">
          <mxGeometry x="2803" y="382" width="244" height="317" as="geometry" />
        </mxCell>
        <mxCell id="2JAsxOmvKEnWSwmgY7Z6-85" value="Fail" style="edgeStyle=orthogonalEdgeStyle;rounded=0;orthogonalLoop=1;jettySize=auto;html=1;exitX=0;exitY=0.5;exitDx=0;exitDy=0;entryX=0.825;entryY=0.066;entryDx=0;entryDy=0;fontSize=14;entryPerimeter=0;" edge="1" parent="1" source="2JAsxOmvKEnWSwmgY7Z6-115" target="2JAsxOmvKEnWSwmgY7Z6-125">
          <mxGeometry x="-0.2379" y="-2" relative="1" as="geometry">
            <Array as="points">
              <mxPoint x="2844" y="468" />
              <mxPoint x="2844" y="433" />
              <mxPoint x="2741" y="433" />
            </Array>
            <mxPoint as="offset" />
          </mxGeometry>
        </mxCell>
        <mxCell id="2JAsxOmvKEnWSwmgY7Z6-86" value="Complete" style="edgeStyle=orthogonalEdgeStyle;rounded=0;orthogonalLoop=1;jettySize=auto;html=1;exitX=0.5;exitY=0;exitDx=0;exitDy=0;entryX=0;entryY=0.5;entryDx=0;entryDy=0;fontSize=14;" edge="1" parent="1" source="2JAsxOmvKEnWSwmgY7Z6-115" target="2JAsxOmvKEnWSwmgY7Z6-151">
          <mxGeometry x="-0.1443" relative="1" as="geometry">
            <mxPoint as="offset" />
          </mxGeometry>
        </mxCell>
        <mxCell id="2JAsxOmvKEnWSwmgY7Z6-172" style="edgeStyle=orthogonalEdgeStyle;rounded=0;orthogonalLoop=1;jettySize=auto;html=1;exitX=0.5;exitY=0;exitDx=0;exitDy=0;entryX=1;entryY=0.067;entryDx=0;entryDy=0;entryPerimeter=0;fontSize=14;" edge="1" parent="1" source="2JAsxOmvKEnWSwmgY7Z6-88" target="2JAsxOmvKEnWSwmgY7Z6-63">
          <mxGeometry relative="1" as="geometry" />
        </mxCell>
        <mxCell id="2JAsxOmvKEnWSwmgY7Z6-173" value="Problems with package creation" style="edgeLabel;html=1;align=center;verticalAlign=middle;resizable=0;points=[];fontSize=17;" vertex="1" connectable="0" parent="2JAsxOmvKEnWSwmgY7Z6-172">
          <mxGeometry x="0.2836" y="-3" relative="1" as="geometry">
            <mxPoint x="-27" y="1" as="offset" />
          </mxGeometry>
        </mxCell>
        <mxCell id="2JAsxOmvKEnWSwmgY7Z6-88" value="Security report,. 3PP list check&lt;br&gt;by security master / PO" style="rhombus;whiteSpace=wrap;html=1;strokeColor=#000066;strokeWidth=4;" vertex="1" parent="1">
          <mxGeometry x="3314" y="471" width="210" height="136" as="geometry" />
        </mxCell>
        <mxCell id="2JAsxOmvKEnWSwmgY7Z6-89" value="Problems with Services implementation" style="edgeStyle=orthogonalEdgeStyle;rounded=0;orthogonalLoop=1;jettySize=auto;html=1;fontSize=14;exitX=0.5;exitY=1;exitDx=0;exitDy=0;entryX=0.75;entryY=1;entryDx=0;entryDy=0;" edge="1" parent="1" source="2JAsxOmvKEnWSwmgY7Z6-88" target="2JAsxOmvKEnWSwmgY7Z6-168">
          <mxGeometry x="0.0292" relative="1" as="geometry">
            <mxPoint x="3135" y="609" as="sourcePoint" />
            <mxPoint x="986" y="804" as="targetPoint" />
            <Array as="points">
              <mxPoint x="3419" y="963" />
              <mxPoint x="2220" y="963" />
            </Array>
            <mxPoint as="offset" />
          </mxGeometry>
        </mxCell>
        <mxCell id="2JAsxOmvKEnWSwmgY7Z6-90" value="Reports for Security master / PO" style="rounded=1;whiteSpace=wrap;html=1;fillColor=#60a917;fontColor=#ffffff;strokeColor=#2D7600;" vertex="1" parent="1">
          <mxGeometry x="3167" y="420" width="105.5" height="51" as="geometry" />
        </mxCell>
        <mxCell id="2JAsxOmvKEnWSwmgY7Z6-91" value="Problems with TS feature" style="edgeStyle=orthogonalEdgeStyle;rounded=0;orthogonalLoop=1;jettySize=auto;html=1;exitX=0.5;exitY=0;exitDx=0;exitDy=0;fontSize=18;fontColor=none;" edge="1" parent="1" source="2JAsxOmvKEnWSwmgY7Z6-167">
          <mxGeometry x="0.076" relative="1" as="geometry">
            <mxPoint x="993" y="303" as="targetPoint" />
            <Array as="points">
              <mxPoint x="1883" y="51" />
              <mxPoint x="993" y="51" />
            </Array>
            <mxPoint x="3575.8" y="563" as="sourcePoint" />
            <mxPoint as="offset" />
          </mxGeometry>
        </mxCell>
        <mxCell id="2JAsxOmvKEnWSwmgY7Z6-169" value="&lt;font style=&quot;font-size: 14px;&quot;&gt;Problems with controlling implementation&lt;/font&gt;" style="edgeStyle=orthogonalEdgeStyle;rounded=0;orthogonalLoop=1;jettySize=auto;html=1;exitX=0.5;exitY=1;exitDx=0;exitDy=0;entryX=0.25;entryY=1;entryDx=0;entryDy=0;" edge="1" parent="1" source="2JAsxOmvKEnWSwmgY7Z6-92" target="2JAsxOmvKEnWSwmgY7Z6-168">
          <mxGeometry relative="1" as="geometry">
            <Array as="points">
              <mxPoint x="3575" y="1017" />
              <mxPoint x="2105" y="1017" />
            </Array>
          </mxGeometry>
        </mxCell>
        <mxCell id="2JAsxOmvKEnWSwmgY7Z6-92" value="Integration testing&lt;br&gt;(Currently manual, requires deep IMS knowledge)" style="rhombus;whiteSpace=wrap;html=1;fillColor=#b0e3e6;strokeColor=#000066;strokeWidth=4;" vertex="1" parent="1">
          <mxGeometry x="3470" y="555" width="210" height="141.5" as="geometry" />
        </mxCell>
        <mxCell id="2JAsxOmvKEnWSwmgY7Z6-93" value="Problems with Adapter descriptors" style="edgeStyle=orthogonalEdgeStyle;rounded=0;orthogonalLoop=1;jettySize=auto;html=1;fontSize=14;exitX=0.5;exitY=1;exitDx=0;exitDy=0;entryX=0.358;entryY=0.984;entryDx=0;entryDy=0;entryPerimeter=0;" edge="1" parent="1" source="2JAsxOmvKEnWSwmgY7Z6-167" target="2JAsxOmvKEnWSwmgY7Z6-35">
          <mxGeometry x="0.07" relative="1" as="geometry">
            <mxPoint x="3372" y="661" as="sourcePoint" />
            <mxPoint x="1639.7599999999998" y="725.0080000000003" as="targetPoint" />
            <Array as="points">
              <mxPoint x="1864" y="780" />
              <mxPoint x="1864" y="960" />
              <mxPoint x="1439" y="960" />
            </Array>
            <mxPoint as="offset" />
          </mxGeometry>
        </mxCell>
        <mxCell id="2JAsxOmvKEnWSwmgY7Z6-94" value="Problems with Adapter implementation" style="edgeStyle=orthogonalEdgeStyle;rounded=0;orthogonalLoop=1;jettySize=auto;html=1;fontSize=14;entryX=0.5;entryY=1;entryDx=0;entryDy=0;exitX=0.5;exitY=1;exitDx=0;exitDy=0;" edge="1" parent="1" source="2JAsxOmvKEnWSwmgY7Z6-167" target="2JAsxOmvKEnWSwmgY7Z6-32">
          <mxGeometry x="-0.0706" relative="1" as="geometry">
            <mxPoint x="3575" y="696" as="sourcePoint" />
            <mxPoint x="1005.75" y="796" as="targetPoint" />
            <Array as="points">
              <mxPoint x="1902" y="780" />
              <mxPoint x="1902" y="1017" />
              <mxPoint x="1006" y="1017" />
            </Array>
            <mxPoint as="offset" />
          </mxGeometry>
        </mxCell>
        <mxCell id="2JAsxOmvKEnWSwmgY7Z6-95" style="edgeStyle=orthogonalEdgeStyle;rounded=0;orthogonalLoop=1;jettySize=auto;html=1;exitX=1;exitY=0.5;exitDx=0;exitDy=0;entryX=0.225;entryY=0.5;entryDx=0;entryDy=0;entryPerimeter=0;fontSize=14;" edge="1" parent="1" source="2JAsxOmvKEnWSwmgY7Z6-88" target="2JAsxOmvKEnWSwmgY7Z6-98">
          <mxGeometry relative="1" as="geometry">
            <mxPoint x="3793" y="475.49999999999955" as="sourcePoint" />
            <Array as="points">
              <mxPoint x="3647" y="538" />
            </Array>
          </mxGeometry>
        </mxCell>
        <mxCell id="2JAsxOmvKEnWSwmgY7Z6-96" value="Security tests passed or waved" style="edgeLabel;html=1;align=center;verticalAlign=middle;resizable=0;points=[];" vertex="1" connectable="0" parent="2JAsxOmvKEnWSwmgY7Z6-95">
          <mxGeometry x="0.5883" relative="1" as="geometry">
            <mxPoint x="-48" y="-1" as="offset" />
          </mxGeometry>
        </mxCell>
        <mxCell id="2JAsxOmvKEnWSwmgY7Z6-97" style="edgeStyle=orthogonalEdgeStyle;rounded=0;orthogonalLoop=1;jettySize=auto;html=1;exitX=0.5;exitY=0.5;exitDx=0;exitDy=0;exitPerimeter=0;entryX=0;entryY=0.485;entryDx=0;entryDy=0;fontSize=14;entryPerimeter=0;" edge="1" parent="1" target="2JAsxOmvKEnWSwmgY7Z6-101">
          <mxGeometry relative="1" as="geometry">
            <mxPoint x="3782" y="593.5000000000005" as="targetPoint" />
            <Array as="points" />
            <mxPoint x="3752.999999999999" y="583.5" as="sourcePoint" />
          </mxGeometry>
        </mxCell>
        <mxCell id="2JAsxOmvKEnWSwmgY7Z6-98" value="" style="line;strokeWidth=2;direction=south;html=1;fontSize=14;" vertex="1" parent="1">
          <mxGeometry x="3744" y="500" width="16" height="168" as="geometry" />
        </mxCell>
        <mxCell id="2JAsxOmvKEnWSwmgY7Z6-99" value="Pass" style="edgeStyle=orthogonalEdgeStyle;rounded=0;orthogonalLoop=1;jettySize=auto;html=1;exitX=1;exitY=0.5;exitDx=0;exitDy=0;entryX=0.75;entryY=0.5;entryDx=0;entryDy=0;entryPerimeter=0;fontSize=14;" edge="1" parent="1" source="2JAsxOmvKEnWSwmgY7Z6-92" target="2JAsxOmvKEnWSwmgY7Z6-98">
          <mxGeometry relative="1" as="geometry">
            <mxPoint x="3642" y="624" as="sourcePoint" />
          </mxGeometry>
        </mxCell>
        <mxCell id="2JAsxOmvKEnWSwmgY7Z6-100" style="edgeStyle=orthogonalEdgeStyle;rounded=0;orthogonalLoop=1;jettySize=auto;html=1;exitX=0.5;exitY=0;exitDx=0;exitDy=0;entryX=0.5;entryY=1;entryDx=0;entryDy=0;fontSize=14;" edge="1" parent="1" source="2JAsxOmvKEnWSwmgY7Z6-101" target="2JAsxOmvKEnWSwmgY7Z6-152">
          <mxGeometry relative="1" as="geometry" />
        </mxCell>
        <mxCell id="2JAsxOmvKEnWSwmgY7Z6-101" value="Release ready" style="rounded=1;whiteSpace=wrap;html=1;" vertex="1" parent="1">
          <mxGeometry x="3780" y="568" width="105.5" height="32" as="geometry" />
        </mxCell>
        <mxCell id="2JAsxOmvKEnWSwmgY7Z6-102" value="" style="endArrow=open;html=1;rounded=0;align=center;verticalAlign=bottom;dashed=1;endFill=0;labelBackgroundColor=none;fontSize=18;fontColor=none;entryX=1;entryY=0.5;entryDx=0;entryDy=0;exitX=0;exitY=1;exitDx=0;exitDy=0;" edge="1" parent="1" source="2JAsxOmvKEnWSwmgY7Z6-92" target="2JAsxOmvKEnWSwmgY7Z6-65">
          <mxGeometry relative="1" as="geometry">
            <mxPoint x="3357" y="712.33" as="sourcePoint" />
            <mxPoint x="3517" y="712.33" as="targetPoint" />
            <Array as="points">
              <mxPoint x="3523" y="720" />
            </Array>
          </mxGeometry>
        </mxCell>
        <mxCell id="2JAsxOmvKEnWSwmgY7Z6-103" value="Dependency" style="resizable=0;html=1;align=center;verticalAlign=top;labelBackgroundColor=none;rounded=0;fontSize=18;fontColor=none;" connectable="0" vertex="1" parent="2JAsxOmvKEnWSwmgY7Z6-102">
          <mxGeometry relative="1" as="geometry">
            <mxPoint x="-87" y="-30" as="offset" />
          </mxGeometry>
        </mxCell>
        <mxCell id="2JAsxOmvKEnWSwmgY7Z6-104" value="Creates" style="html=1;verticalAlign=bottom;labelBackgroundColor=none;endArrow=open;endFill=0;dashed=1;rounded=0;fontSize=18;fontColor=none;entryX=0;entryY=0.5;entryDx=0;entryDy=0;exitX=1;exitY=0.75;exitDx=0;exitDy=0;" edge="1" parent="1" source="2JAsxOmvKEnWSwmgY7Z6-63" target="2JAsxOmvKEnWSwmgY7Z6-65">
          <mxGeometry x="0.1881" y="-3" width="160" relative="1" as="geometry">
            <mxPoint x="3055" y="622" as="sourcePoint" />
            <mxPoint x="3119" y="622" as="targetPoint" />
            <mxPoint as="offset" />
          </mxGeometry>
        </mxCell>
        <mxCell id="2JAsxOmvKEnWSwmgY7Z6-105" value="Creates" style="html=1;verticalAlign=bottom;labelBackgroundColor=none;endArrow=open;endFill=0;dashed=1;rounded=0;fontSize=18;fontColor=none;entryX=0;entryY=0.5;entryDx=0;entryDy=0;exitX=1;exitY=0.379;exitDx=0;exitDy=0;exitPerimeter=0;" edge="1" parent="1" target="2JAsxOmvKEnWSwmgY7Z6-90" source="2JAsxOmvKEnWSwmgY7Z6-63">
          <mxGeometry x="0.1809" width="160" relative="1" as="geometry">
            <mxPoint x="3055" y="444" as="sourcePoint" />
            <mxPoint x="3118.9999999999995" y="444" as="targetPoint" />
            <mxPoint as="offset" />
          </mxGeometry>
        </mxCell>
        <mxCell id="2JAsxOmvKEnWSwmgY7Z6-106" value="" style="endArrow=open;html=1;rounded=0;align=center;verticalAlign=bottom;dashed=1;endFill=0;labelBackgroundColor=none;fontSize=18;fontColor=none;entryX=1.001;entryY=0.465;entryDx=0;entryDy=0;entryPerimeter=0;exitX=0;exitY=0;exitDx=0;exitDy=0;" edge="1" parent="1" source="2JAsxOmvKEnWSwmgY7Z6-88" target="2JAsxOmvKEnWSwmgY7Z6-90">
          <mxGeometry relative="1" as="geometry">
            <mxPoint x="3479.75" y="446.5" as="sourcePoint" />
            <mxPoint x="3217" y="444" as="targetPoint" />
            <Array as="points">
              <mxPoint x="3368" y="444" />
            </Array>
          </mxGeometry>
        </mxCell>
        <mxCell id="2JAsxOmvKEnWSwmgY7Z6-107" value="Dependency" style="resizable=0;html=1;align=center;verticalAlign=top;labelBackgroundColor=none;rounded=0;fontSize=18;fontColor=none;" connectable="0" vertex="1" parent="2JAsxOmvKEnWSwmgY7Z6-106">
          <mxGeometry relative="1" as="geometry">
            <mxPoint x="-13" y="-29" as="offset" />
          </mxGeometry>
        </mxCell>
        <mxCell id="2JAsxOmvKEnWSwmgY7Z6-108" value="Config templates" style="rounded=1;whiteSpace=wrap;html=1;fillColor=#60a917;fontColor=#ffffff;strokeColor=#2D7600;" vertex="1" parent="1">
          <mxGeometry x="1405" y="559.5" width="105.5" height="32" as="geometry" />
        </mxCell>
        <mxCell id="2JAsxOmvKEnWSwmgY7Z6-109" value="Creates" style="html=1;verticalAlign=bottom;labelBackgroundColor=none;endArrow=open;endFill=0;dashed=1;rounded=0;fontSize=18;fontColor=none;exitX=1;exitY=0.5;exitDx=0;exitDy=0;" edge="1" parent="1" source="2JAsxOmvKEnWSwmgY7Z6-27">
          <mxGeometry x="0.1929" width="160" relative="1" as="geometry">
            <mxPoint x="1334.75" y="574.5" as="sourcePoint" />
            <mxPoint x="1404" y="576" as="targetPoint" />
            <mxPoint as="offset" />
          </mxGeometry>
        </mxCell>
        <mxCell id="2JAsxOmvKEnWSwmgY7Z6-110" value="" style="endArrow=open;html=1;rounded=0;align=center;verticalAlign=bottom;dashed=1;endFill=0;labelBackgroundColor=none;fontSize=18;fontColor=none;entryX=0.5;entryY=1;entryDx=0;entryDy=0;exitX=0.516;exitY=0.02;exitDx=0;exitDy=0;exitPerimeter=0;" edge="1" parent="1" source="2JAsxOmvKEnWSwmgY7Z6-35" target="2JAsxOmvKEnWSwmgY7Z6-108">
          <mxGeometry relative="1" as="geometry">
            <mxPoint x="1614.25" y="643.9999999999998" as="sourcePoint" />
            <mxPoint x="1357.9999999999995" y="641.25" as="targetPoint" />
            <Array as="points" />
          </mxGeometry>
        </mxCell>
        <mxCell id="2JAsxOmvKEnWSwmgY7Z6-111" value="Dependency" style="resizable=0;html=1;align=center;verticalAlign=top;labelBackgroundColor=none;rounded=0;fontSize=18;fontColor=none;" connectable="0" vertex="1" parent="2JAsxOmvKEnWSwmgY7Z6-110">
          <mxGeometry relative="1" as="geometry">
            <mxPoint x="54" y="-56" as="offset" />
          </mxGeometry>
        </mxCell>
        <mxCell id="2JAsxOmvKEnWSwmgY7Z6-112" style="edgeStyle=orthogonalEdgeStyle;rounded=0;orthogonalLoop=1;jettySize=auto;html=1;exitX=0.25;exitY=0.5;exitDx=0;exitDy=0;exitPerimeter=0;fontSize=18;fontColor=none;entryX=0;entryY=0.5;entryDx=0;entryDy=0;" edge="1" parent="1" source="2JAsxOmvKEnWSwmgY7Z6-114" target="2JAsxOmvKEnWSwmgY7Z6-88">
          <mxGeometry relative="1" as="geometry">
            <mxPoint x="3314" y="539" as="targetPoint" />
            <Array as="points">
              <mxPoint x="3278" y="539" />
              <mxPoint x="3306" y="539" />
            </Array>
          </mxGeometry>
        </mxCell>
        <mxCell id="2JAsxOmvKEnWSwmgY7Z6-113" style="edgeStyle=orthogonalEdgeStyle;rounded=0;orthogonalLoop=1;jettySize=auto;html=1;exitX=0.75;exitY=0.5;exitDx=0;exitDy=0;exitPerimeter=0;entryX=0;entryY=0.5;entryDx=0;entryDy=0;fontSize=18;fontColor=none;" edge="1" parent="1" source="2JAsxOmvKEnWSwmgY7Z6-114" target="2JAsxOmvKEnWSwmgY7Z6-92">
          <mxGeometry relative="1" as="geometry">
            <Array as="points">
              <mxPoint x="3278" y="626" />
              <mxPoint x="3378" y="626" />
            </Array>
          </mxGeometry>
        </mxCell>
        <mxCell id="2JAsxOmvKEnWSwmgY7Z6-114" value="" style="line;strokeWidth=2;direction=south;html=1;fontSize=14;" vertex="1" parent="1">
          <mxGeometry x="3244" y="524.5" width="16" height="116" as="geometry" />
        </mxCell>
        <mxCell id="2JAsxOmvKEnWSwmgY7Z6-115" value="Passive Scan" style="rhombus;whiteSpace=wrap;html=1;fillColor=#b0e3e6;strokeColor=#0e8088;" vertex="1" parent="1">
          <mxGeometry x="2846" y="447" width="159" height="41" as="geometry" />
        </mxCell>
        <mxCell id="2JAsxOmvKEnWSwmgY7Z6-116" value="Complete" style="edgeStyle=orthogonalEdgeStyle;rounded=0;orthogonalLoop=1;jettySize=auto;html=1;exitX=0.5;exitY=0;exitDx=0;exitDy=0;entryX=0.5;entryY=1;entryDx=0;entryDy=0;fontSize=14;" edge="1" parent="1" source="2JAsxOmvKEnWSwmgY7Z6-118" target="2JAsxOmvKEnWSwmgY7Z6-115">
          <mxGeometry relative="1" as="geometry" />
        </mxCell>
        <mxCell id="2JAsxOmvKEnWSwmgY7Z6-117" value="Fail" style="edgeStyle=orthogonalEdgeStyle;rounded=0;orthogonalLoop=1;jettySize=auto;html=1;exitX=0;exitY=0.5;exitDx=0;exitDy=0;fontSize=14;" edge="1" parent="1" source="2JAsxOmvKEnWSwmgY7Z6-118" target="2JAsxOmvKEnWSwmgY7Z6-125">
          <mxGeometry x="-0.813" y="-2" relative="1" as="geometry">
            <mxPoint x="2739.6363636363635" y="444.81818181818176" as="targetPoint" />
            <Array as="points">
              <mxPoint x="2812" y="544" />
              <mxPoint x="2812" y="442" />
            </Array>
            <mxPoint as="offset" />
          </mxGeometry>
        </mxCell>
        <mxCell id="2JAsxOmvKEnWSwmgY7Z6-118" value="Fuzz Scan" style="rhombus;whiteSpace=wrap;html=1;fillColor=#b0e3e6;strokeColor=#0e8088;" vertex="1" parent="1">
          <mxGeometry x="2847.5" y="521.5" width="156" height="45" as="geometry" />
        </mxCell>
        <mxCell id="2JAsxOmvKEnWSwmgY7Z6-119" value="Complete" style="edgeStyle=orthogonalEdgeStyle;rounded=0;orthogonalLoop=1;jettySize=auto;html=1;entryX=0.5;entryY=1;entryDx=0;entryDy=0;fontSize=14;" edge="1" parent="1" source="2JAsxOmvKEnWSwmgY7Z6-121" target="2JAsxOmvKEnWSwmgY7Z6-118">
          <mxGeometry x="0.2292" relative="1" as="geometry">
            <mxPoint x="2925.4999999999995" y="598.5" as="sourcePoint" />
            <mxPoint x="2925.4999999999995" y="566.5" as="targetPoint" />
            <mxPoint as="offset" />
          </mxGeometry>
        </mxCell>
        <mxCell id="2JAsxOmvKEnWSwmgY7Z6-120" value="Fail" style="edgeStyle=orthogonalEdgeStyle;rounded=0;orthogonalLoop=1;jettySize=auto;html=1;exitX=0;exitY=0.5;exitDx=0;exitDy=0;fontSize=14;entryX=0.772;entryY=0.958;entryDx=0;entryDy=0;entryPerimeter=0;" edge="1" parent="1" source="2JAsxOmvKEnWSwmgY7Z6-121" target="2JAsxOmvKEnWSwmgY7Z6-125">
          <mxGeometry x="-0.8699" y="-1" relative="1" as="geometry">
            <mxPoint x="2736.9090909090905" y="455.72727272727275" as="targetPoint" />
            <Array as="points">
              <mxPoint x="2808" y="622" />
              <mxPoint x="2808" y="450" />
              <mxPoint x="2738" y="450" />
            </Array>
            <mxPoint as="offset" />
          </mxGeometry>
        </mxCell>
        <mxCell id="2JAsxOmvKEnWSwmgY7Z6-121" value="API Scan" style="rhombus;whiteSpace=wrap;html=1;fillColor=#b0e3e6;strokeColor=#0e8088;" vertex="1" parent="1">
          <mxGeometry x="2847" y="598.5" width="157" height="47.5" as="geometry" />
        </mxCell>
        <mxCell id="2JAsxOmvKEnWSwmgY7Z6-122" style="edgeStyle=orthogonalEdgeStyle;rounded=0;orthogonalLoop=1;jettySize=auto;html=1;exitX=1;exitY=0.5;exitDx=0;exitDy=0;entryX=0.498;entryY=0.6;entryDx=0;entryDy=0;entryPerimeter=0;" edge="1" parent="1" source="2JAsxOmvKEnWSwmgY7Z6-123" target="2JAsxOmvKEnWSwmgY7Z6-150">
          <mxGeometry relative="1" as="geometry" />
        </mxCell>
        <mxCell id="2JAsxOmvKEnWSwmgY7Z6-123" value="Release tgz created" style="rounded=1;whiteSpace=wrap;html=1;" vertex="1" parent="1">
          <mxGeometry x="2428" y="810.75" width="134" height="32" as="geometry" />
        </mxCell>
        <mxCell id="2JAsxOmvKEnWSwmgY7Z6-124" style="edgeStyle=orthogonalEdgeStyle;rounded=0;orthogonalLoop=1;jettySize=auto;html=1;exitX=0.5;exitY=0;exitDx=0;exitDy=0;entryX=0.5;entryY=0;entryDx=0;entryDy=0;" edge="1" parent="1" source="2JAsxOmvKEnWSwmgY7Z6-125" target="2JAsxOmvKEnWSwmgY7Z6-141">
          <mxGeometry relative="1" as="geometry">
            <Array as="points">
              <mxPoint x="2731" y="200" />
              <mxPoint x="2462" y="200" />
            </Array>
          </mxGeometry>
        </mxCell>
        <mxCell id="2JAsxOmvKEnWSwmgY7Z6-125" value="" style="shape=ellipse;html=1;fillColor=strokeColor;fontSize=18;fontColor=#ffffff;" vertex="1" parent="1">
          <mxGeometry x="2721" y="431.5" width="20" height="19" as="geometry" />
        </mxCell>
        <mxCell id="2JAsxOmvKEnWSwmgY7Z6-126" value="Nessus" style="rhombus;whiteSpace=wrap;html=1;fillColor=#b0e3e6;strokeColor=#0e8088;" vertex="1" parent="1">
          <mxGeometry x="2661.5" y="847" width="139" height="46" as="geometry" />
        </mxCell>
        <mxCell id="2JAsxOmvKEnWSwmgY7Z6-127" style="edgeStyle=orthogonalEdgeStyle;rounded=0;orthogonalLoop=1;jettySize=auto;html=1;exitX=0.25;exitY=0.5;exitDx=0;exitDy=0;exitPerimeter=0;entryX=0;entryY=0.5;entryDx=0;entryDy=0;" edge="1" parent="1" source="2JAsxOmvKEnWSwmgY7Z6-129" target="2JAsxOmvKEnWSwmgY7Z6-136">
          <mxGeometry relative="1" as="geometry">
            <Array as="points">
              <mxPoint x="449" y="376" />
            </Array>
          </mxGeometry>
        </mxCell>
        <mxCell id="2JAsxOmvKEnWSwmgY7Z6-128" style="edgeStyle=orthogonalEdgeStyle;rounded=0;orthogonalLoop=1;jettySize=auto;html=1;exitX=0.932;exitY=0.513;exitDx=0;exitDy=0;exitPerimeter=0;" edge="1" parent="1" source="2JAsxOmvKEnWSwmgY7Z6-129" target="2JAsxOmvKEnWSwmgY7Z6-30">
          <mxGeometry relative="1" as="geometry">
            <Array as="points">
              <mxPoint x="449" y="704" />
            </Array>
          </mxGeometry>
        </mxCell>
        <mxCell id="2JAsxOmvKEnWSwmgY7Z6-129" value="" style="line;strokeWidth=2;direction=south;html=1;fontSize=14;" vertex="1" parent="1">
          <mxGeometry x="444" y="346" width="10" height="390" as="geometry" />
        </mxCell>
        <mxCell id="2JAsxOmvKEnWSwmgY7Z6-130" style="edgeStyle=orthogonalEdgeStyle;rounded=0;orthogonalLoop=1;jettySize=auto;html=1;exitX=0.115;exitY=0.495;exitDx=0;exitDy=0;exitPerimeter=0;entryX=0;entryY=0.5;entryDx=0;entryDy=0;" edge="1" parent="1" source="2JAsxOmvKEnWSwmgY7Z6-133" target="2JAsxOmvKEnWSwmgY7Z6-15">
          <mxGeometry relative="1" as="geometry">
            <Array as="points" />
          </mxGeometry>
        </mxCell>
        <mxCell id="2JAsxOmvKEnWSwmgY7Z6-131" style="edgeStyle=orthogonalEdgeStyle;rounded=0;orthogonalLoop=1;jettySize=auto;html=1;exitX=0.438;exitY=0.541;exitDx=0;exitDy=0;exitPerimeter=0;entryX=-0.007;entryY=0.5;entryDx=0;entryDy=0;entryPerimeter=0;" edge="1" parent="1" source="2JAsxOmvKEnWSwmgY7Z6-133" target="2JAsxOmvKEnWSwmgY7Z6-20">
          <mxGeometry relative="1" as="geometry">
            <Array as="points" />
          </mxGeometry>
        </mxCell>
        <mxCell id="2JAsxOmvKEnWSwmgY7Z6-132" style="edgeStyle=orthogonalEdgeStyle;rounded=0;orthogonalLoop=1;jettySize=auto;html=1;exitX=0.75;exitY=0.5;exitDx=0;exitDy=0;exitPerimeter=0;" edge="1" parent="1" source="2JAsxOmvKEnWSwmgY7Z6-133">
          <mxGeometry relative="1" as="geometry">
            <mxPoint x="730" y="491" as="targetPoint" />
            <Array as="points">
              <mxPoint x="679" y="491" />
            </Array>
          </mxGeometry>
        </mxCell>
        <mxCell id="2JAsxOmvKEnWSwmgY7Z6-133" value="" style="line;strokeWidth=2;direction=south;html=1;fontSize=14;" vertex="1" parent="1">
          <mxGeometry x="674" y="205" width="10" height="390" as="geometry" />
        </mxCell>
        <mxCell id="2JAsxOmvKEnWSwmgY7Z6-134" value="Yes" style="edgeStyle=orthogonalEdgeStyle;rounded=0;orthogonalLoop=1;jettySize=auto;html=1;exitX=1;exitY=0.5;exitDx=0;exitDy=0;entryX=0.437;entryY=0.65;entryDx=0;entryDy=0;entryPerimeter=0;" edge="1" parent="1" source="2JAsxOmvKEnWSwmgY7Z6-136" target="2JAsxOmvKEnWSwmgY7Z6-133">
          <mxGeometry x="-0.3699" y="2" relative="1" as="geometry">
            <mxPoint as="offset" />
          </mxGeometry>
        </mxCell>
        <mxCell id="2JAsxOmvKEnWSwmgY7Z6-135" value="No" style="edgeStyle=orthogonalEdgeStyle;rounded=0;orthogonalLoop=1;jettySize=auto;html=1;exitX=0.5;exitY=1;exitDx=0;exitDy=0;entryX=0;entryY=0.5;entryDx=0;entryDy=0;" edge="1" parent="1" source="2JAsxOmvKEnWSwmgY7Z6-136" target="2JAsxOmvKEnWSwmgY7Z6-138">
          <mxGeometry x="-0.1949" relative="1" as="geometry">
            <mxPoint as="offset" />
          </mxGeometry>
        </mxCell>
        <mxCell id="2JAsxOmvKEnWSwmgY7Z6-136" value="Is TitanSim&lt;br&gt;development needed?" style="rhombus;whiteSpace=wrap;html=1;" vertex="1" parent="1">
          <mxGeometry x="485" y="333" width="158" height="85.5" as="geometry" />
        </mxCell>
        <mxCell id="2JAsxOmvKEnWSwmgY7Z6-137" style="edgeStyle=orthogonalEdgeStyle;rounded=0;orthogonalLoop=1;jettySize=auto;html=1;exitX=0.5;exitY=1;exitDx=0;exitDy=0;entryX=0.25;entryY=0.5;entryDx=0;entryDy=0;entryPerimeter=0;" edge="1" parent="1" source="2JAsxOmvKEnWSwmgY7Z6-138" target="2JAsxOmvKEnWSwmgY7Z6-34">
          <mxGeometry relative="1" as="geometry" />
        </mxCell>
        <mxCell id="2JAsxOmvKEnWSwmgY7Z6-138" value="" style="shape=ellipse;html=1;fillColor=strokeColor;fontSize=18;fontColor=#ffffff;" vertex="1" parent="1">
          <mxGeometry x="1120" y="638" width="20" height="19" as="geometry" />
        </mxCell>
        <mxCell id="2JAsxOmvKEnWSwmgY7Z6-139" value="No" style="edgeStyle=orthogonalEdgeStyle;rounded=0;orthogonalLoop=1;jettySize=auto;html=1;exitX=0.5;exitY=1;exitDx=0;exitDy=0;fontSize=14;entryX=0;entryY=0.5;entryDx=0;entryDy=0;" edge="1" parent="1" source="2JAsxOmvKEnWSwmgY7Z6-141" target="2JAsxOmvKEnWSwmgY7Z6-145">
          <mxGeometry x="-0.3554" relative="1" as="geometry">
            <mxPoint x="3332" y="266" as="targetPoint" />
            <mxPoint as="offset" />
            <Array as="points">
              <mxPoint x="2462" y="313" />
              <mxPoint x="2462" y="346" />
            </Array>
          </mxGeometry>
        </mxCell>
        <mxCell id="2JAsxOmvKEnWSwmgY7Z6-140" value="Yes" style="edgeStyle=orthogonalEdgeStyle;rounded=0;orthogonalLoop=1;jettySize=auto;html=1;exitX=1;exitY=0.5;exitDx=0;exitDy=0;entryX=0;entryY=0.5;entryDx=0;entryDy=0;fontSize=14;" edge="1" parent="1" source="2JAsxOmvKEnWSwmgY7Z6-141" target="2JAsxOmvKEnWSwmgY7Z6-143">
          <mxGeometry x="-0.2558" y="3" relative="1" as="geometry">
            <Array as="points">
              <mxPoint x="2583" y="267" />
              <mxPoint x="2585" y="267" />
            </Array>
            <mxPoint y="1" as="offset" />
          </mxGeometry>
        </mxCell>
        <mxCell id="2JAsxOmvKEnWSwmgY7Z6-141" value="Is release code&lt;br&gt;development needed?" style="rhombus;whiteSpace=wrap;html=1;" vertex="1" parent="1">
          <mxGeometry x="2384" y="220" width="156" height="93" as="geometry" />
        </mxCell>
        <mxCell id="2JAsxOmvKEnWSwmgY7Z6-142" style="edgeStyle=orthogonalEdgeStyle;rounded=0;orthogonalLoop=1;jettySize=auto;html=1;exitX=0.5;exitY=1;exitDx=0;exitDy=0;fontSize=14;entryX=1;entryY=0.5;entryDx=0;entryDy=0;" edge="1" parent="1" source="2JAsxOmvKEnWSwmgY7Z6-143" target="2JAsxOmvKEnWSwmgY7Z6-145">
          <mxGeometry relative="1" as="geometry">
            <mxPoint x="3327" y="342" as="targetPoint" />
            <Array as="points">
              <mxPoint x="2651" y="346" />
            </Array>
          </mxGeometry>
        </mxCell>
        <mxCell id="2JAsxOmvKEnWSwmgY7Z6-143" value="Release script feature implementation" style="rounded=1;whiteSpace=wrap;html=1;fillColor=#b1ddf0;strokeColor=#10739e;" vertex="1" parent="1">
          <mxGeometry x="2585" y="250.5" width="132" height="32" as="geometry" />
        </mxCell>
        <mxCell id="2JAsxOmvKEnWSwmgY7Z6-144" style="edgeStyle=orthogonalEdgeStyle;rounded=0;orthogonalLoop=1;jettySize=auto;html=1;exitX=0.5;exitY=1;exitDx=0;exitDy=0;entryX=0.5;entryY=0;entryDx=0;entryDy=0;" edge="1" parent="1" source="2JAsxOmvKEnWSwmgY7Z6-145" target="2JAsxOmvKEnWSwmgY7Z6-70">
          <mxGeometry relative="1" as="geometry">
            <mxPoint x="2559.764" y="393.09799999999996" as="targetPoint" />
          </mxGeometry>
        </mxCell>
        <mxCell id="2JAsxOmvKEnWSwmgY7Z6-145" value="" style="shape=ellipse;html=1;fillColor=strokeColor;fontSize=18;fontColor=#ffffff;" vertex="1" parent="1">
          <mxGeometry x="2485" y="336" width="20" height="19" as="geometry" />
        </mxCell>
        <mxCell id="2JAsxOmvKEnWSwmgY7Z6-146" value="" style="rhombus;whiteSpace=wrap;html=1;" vertex="1" parent="1">
          <mxGeometry x="317" y="523" width="25" height="24" as="geometry" />
        </mxCell>
        <mxCell id="2JAsxOmvKEnWSwmgY7Z6-147" value="" style="edgeStyle=orthogonalEdgeStyle;rounded=0;orthogonalLoop=1;jettySize=auto;html=1;exitX=0.5;exitY=1;exitDx=0;exitDy=0;entryX=0.5;entryY=0;entryDx=0;entryDy=0;endArrow=none;" edge="1" parent="1" source="2JAsxOmvKEnWSwmgY7Z6-6" target="2JAsxOmvKEnWSwmgY7Z6-146">
          <mxGeometry relative="1" as="geometry">
            <mxPoint x="329.5" y="455.5" as="sourcePoint" />
            <mxPoint x="329.5" y="625" as="targetPoint" />
          </mxGeometry>
        </mxCell>
        <mxCell id="2JAsxOmvKEnWSwmgY7Z6-148" style="edgeStyle=orthogonalEdgeStyle;rounded=0;orthogonalLoop=1;jettySize=auto;html=1;exitX=0.25;exitY=0.5;exitDx=0;exitDy=0;exitPerimeter=0;entryX=0;entryY=0.5;entryDx=0;entryDy=0;fontSize=14;" edge="1" parent="1" source="2JAsxOmvKEnWSwmgY7Z6-150" target="2JAsxOmvKEnWSwmgY7Z6-79">
          <mxGeometry relative="1" as="geometry">
            <Array as="points">
              <mxPoint x="2612" y="782" />
            </Array>
          </mxGeometry>
        </mxCell>
        <mxCell id="2JAsxOmvKEnWSwmgY7Z6-149" style="edgeStyle=orthogonalEdgeStyle;rounded=0;orthogonalLoop=1;jettySize=auto;html=1;exitX=0.75;exitY=0.5;exitDx=0;exitDy=0;exitPerimeter=0;entryX=0;entryY=0.5;entryDx=0;entryDy=0;fontSize=14;" edge="1" parent="1" source="2JAsxOmvKEnWSwmgY7Z6-150" target="2JAsxOmvKEnWSwmgY7Z6-126">
          <mxGeometry relative="1" as="geometry">
            <Array as="points">
              <mxPoint x="2612" y="870" />
            </Array>
          </mxGeometry>
        </mxCell>
        <mxCell id="2JAsxOmvKEnWSwmgY7Z6-150" value="" style="line;strokeWidth=2;direction=south;html=1;fontSize=14;" vertex="1" parent="1">
          <mxGeometry x="2604" y="769" width="16" height="116" as="geometry" />
        </mxCell>
        <mxCell id="2JAsxOmvKEnWSwmgY7Z6-151" value="" style="ellipse;html=1;shape=endState;fillColor=#000000;strokeColor=#ff0000;fontSize=14;" vertex="1" parent="1">
          <mxGeometry x="3017" y="257" width="30" height="30" as="geometry" />
        </mxCell>
        <mxCell id="2JAsxOmvKEnWSwmgY7Z6-152" value="" style="ellipse;html=1;shape=endState;fillColor=#000000;strokeColor=#ff0000;fontSize=14;" vertex="1" parent="1">
          <mxGeometry x="3817.75" y="464" width="30" height="30" as="geometry" />
        </mxCell>
        <mxCell id="2JAsxOmvKEnWSwmgY7Z6-153" value="Legend (in addition to UML2 state chart objects)" style="rounded=0;html=1;align=left;horizontal=1;verticalAlign=top;whiteSpace=wrap;fontSize=18;" vertex="1" parent="1">
          <mxGeometry x="3648" y="45" width="235" height="334" as="geometry" />
        </mxCell>
        <mxCell id="2JAsxOmvKEnWSwmgY7Z6-154" value="Development activity" style="rounded=1;whiteSpace=wrap;html=1;fillColor=#b1ddf0;strokeColor=#10739e;" vertex="1" parent="1">
          <mxGeometry x="3700" y="110" width="132" height="32" as="geometry" />
        </mxCell>
        <mxCell id="2JAsxOmvKEnWSwmgY7Z6-155" value="Testing activity" style="rhombus;whiteSpace=wrap;html=1;fillColor=#b0e3e6;strokeColor=#0e8088;" vertex="1" parent="1">
          <mxGeometry x="3688" y="206.5" width="156" height="45" as="geometry" />
        </mxCell>
        <mxCell id="2JAsxOmvKEnWSwmgY7Z6-156" value="Product resource" style="rounded=1;whiteSpace=wrap;html=1;fillColor=#60a917;fontColor=#ffffff;strokeColor=#2D7600;" vertex="1" parent="1">
          <mxGeometry x="3713.25" y="271.5" width="105.5" height="32" as="geometry" />
        </mxCell>
        <mxCell id="2JAsxOmvKEnWSwmgY7Z6-157" value="Problematic development activity / dependency" style="rounded=1;whiteSpace=wrap;html=1;fillColor=#e51400;fontColor=#ffffff;strokeColor=#B20000;" vertex="1" parent="1">
          <mxGeometry x="3692" y="160" width="147" height="32" as="geometry" />
        </mxCell>
        <mxCell id="2JAsxOmvKEnWSwmgY7Z6-158" value="Modifications of the image (deletions, uninstalls, settings)" style="rounded=1;whiteSpace=wrap;html=1;" vertex="1" parent="1">
          <mxGeometry x="2429" y="696" width="132" height="46" as="geometry" />
        </mxCell>
        <mxCell id="2JAsxOmvKEnWSwmgY7Z6-159" value="" style="endArrow=none;dashed=1;html=1;dashPattern=1 3;strokeWidth=2;rounded=0;fontSize=14;exitX=1;exitY=0.5;exitDx=0;exitDy=0;" edge="1" parent="1">
          <mxGeometry width="50" height="50" relative="1" as="geometry">
            <mxPoint x="2800.5" y="871" as="sourcePoint" />
            <mxPoint x="2827" y="871" as="targetPoint" />
          </mxGeometry>
        </mxCell>
        <mxCell id="2JAsxOmvKEnWSwmgY7Z6-160" style="edgeStyle=orthogonalEdgeStyle;rounded=0;orthogonalLoop=1;jettySize=auto;html=1;exitX=0.25;exitY=0.5;exitDx=0;exitDy=0;exitPerimeter=0;entryX=0.5;entryY=1;entryDx=0;entryDy=0;fontSize=14;" edge="1" parent="1" source="2JAsxOmvKEnWSwmgY7Z6-161" target="2JAsxOmvKEnWSwmgY7Z6-121">
          <mxGeometry relative="1" as="geometry">
            <Array as="points">
              <mxPoint x="2876" y="827" />
              <mxPoint x="2925" y="827" />
              <mxPoint x="2925" y="708" />
              <mxPoint x="2926" y="708" />
            </Array>
          </mxGeometry>
        </mxCell>
        <mxCell id="2JAsxOmvKEnWSwmgY7Z6-161" value="" style="line;strokeWidth=2;direction=south;html=1;fontSize=14;" vertex="1" parent="1">
          <mxGeometry x="2868" y="769" width="16" height="116" as="geometry" />
        </mxCell>
        <mxCell id="2JAsxOmvKEnWSwmgY7Z6-162" value="Could be detailed" style="rhombus;whiteSpace=wrap;html=1;strokeColor=#000066;strokeWidth=4;" vertex="1" parent="1">
          <mxGeometry x="3699" y="320" width="133" height="38" as="geometry" />
        </mxCell>
        <mxCell id="2JAsxOmvKEnWSwmgY7Z6-163" value="&lt;font style=&quot;font-size: 22px;&quot;&gt;AAT IMS_LT feature development workflow&lt;/font&gt;&lt;br&gt;&lt;font style=&quot;&quot;&gt;&lt;br&gt;&lt;font style=&quot;font-size: 13px;&quot;&gt;Note: UML2 state chart mostly (Choices are used as states, possibly having multiple inputs + synchronization objects are handled specially)&lt;/font&gt;&lt;/font&gt;" style="rounded=0;html=1;align=left;horizontal=1;verticalAlign=top;whiteSpace=wrap;fontSize=18;strokeColor=none;" vertex="1" parent="1">
          <mxGeometry x="62" y="43" width="835" height="88" as="geometry" />
        </mxCell>
        <mxCell id="2JAsxOmvKEnWSwmgY7Z6-164" value="Environment, deep &lt;br&gt;IMS knowledge" style="rounded=1;whiteSpace=wrap;html=1;fillColor=#e51400;fontColor=#ffffff;strokeColor=#B20000;" vertex="1" parent="1">
          <mxGeometry x="3648" y="773.62" width="136" height="38.38" as="geometry" />
        </mxCell>
        <mxCell id="2JAsxOmvKEnWSwmgY7Z6-165" value="" style="endArrow=open;html=1;rounded=0;align=center;verticalAlign=bottom;dashed=1;endFill=0;labelBackgroundColor=none;fontSize=18;fontColor=none;entryX=0.5;entryY=0;entryDx=0;entryDy=0;exitX=1;exitY=1;exitDx=0;exitDy=0;" edge="1" parent="1" source="2JAsxOmvKEnWSwmgY7Z6-92" target="2JAsxOmvKEnWSwmgY7Z6-164">
          <mxGeometry relative="1" as="geometry">
            <mxPoint x="3532.5" y="671.1249999999998" as="sourcePoint" />
            <mxPoint x="3229.5" y="730" as="targetPoint" />
            <Array as="points">
              <mxPoint x="3716" y="661" />
            </Array>
          </mxGeometry>
        </mxCell>
        <mxCell id="2JAsxOmvKEnWSwmgY7Z6-166" value="Dependency" style="resizable=0;html=1;align=center;verticalAlign=top;labelBackgroundColor=none;rounded=0;fontSize=18;fontColor=none;" connectable="0" vertex="1" parent="2JAsxOmvKEnWSwmgY7Z6-165">
          <mxGeometry relative="1" as="geometry">
            <mxPoint x="54" y="67" as="offset" />
          </mxGeometry>
        </mxCell>
        <mxCell id="2JAsxOmvKEnWSwmgY7Z6-174" value="Pass" style="edgeStyle=orthogonalEdgeStyle;rounded=0;orthogonalLoop=1;jettySize=auto;html=1;exitX=1;exitY=0.5;exitDx=0;exitDy=0;entryX=0;entryY=0.5;entryDx=0;entryDy=0;fontSize=17;" edge="1" parent="1" source="2JAsxOmvKEnWSwmgY7Z6-167" target="2JAsxOmvKEnWSwmgY7Z6-168">
          <mxGeometry x="-0.0921" relative="1" as="geometry">
            <mxPoint as="offset" />
          </mxGeometry>
        </mxCell>
        <mxCell id="2JAsxOmvKEnWSwmgY7Z6-167" value="integration testing:&lt;br&gt;- automated for the existing features&lt;br&gt;- manual for new ones" style="rhombus;whiteSpace=wrap;html=1;fillColor=#b0e3e6;strokeColor=#000066;strokeWidth=4;" vertex="1" parent="1">
          <mxGeometry x="1778" y="638.75" width="210" height="141.5" as="geometry" />
        </mxCell>
        <mxCell id="2JAsxOmvKEnWSwmgY7Z6-175" style="edgeStyle=orthogonalEdgeStyle;rounded=0;orthogonalLoop=1;jettySize=auto;html=1;exitX=1;exitY=0.5;exitDx=0;exitDy=0;entryX=0.001;entryY=0.74;entryDx=0;entryDy=0;entryPerimeter=0;fontSize=17;" edge="1" parent="1" source="2JAsxOmvKEnWSwmgY7Z6-168" target="2JAsxOmvKEnWSwmgY7Z6-63">
          <mxGeometry relative="1" as="geometry" />
        </mxCell>
        <mxCell id="2JAsxOmvKEnWSwmgY7Z6-168" value="Product Integration development:&lt;br&gt;&lt;div style=&quot;text-align: left;&quot;&gt;&lt;span style=&quot;background-color: initial;&quot;&gt;&amp;nbsp;- Wrapper service implementations&lt;/span&gt;&lt;br&gt;&lt;/div&gt;&lt;div style=&quot;text-align: left;&quot;&gt;&lt;span style=&quot;background-color: initial;&quot;&gt;&amp;nbsp;- Development of deployment scripts&lt;/span&gt;&lt;/div&gt;&lt;div style=&quot;text-align: left;&quot;&gt;&lt;span style=&quot;background-color: initial;&quot;&gt;&amp;nbsp;- Registration related script development&lt;/span&gt;&lt;/div&gt;&lt;div style=&quot;text-align: left;&quot;&gt;&lt;span style=&quot;background-color: initial;&quot;&gt;&amp;nbsp;- Frontend development of the runtime UI&lt;/span&gt;&lt;/div&gt;" style="rounded=1;whiteSpace=wrap;html=1;fillColor=#b1ddf0;strokeColor=#10739e;" vertex="1" parent="1">
          <mxGeometry x="2047" y="661" width="231" height="98" as="geometry" />
        </mxCell>
        <mxCell id="2JAsxOmvKEnWSwmgY7Z6-176" value="" style="ellipse;html=1;shape=startState;fillColor=#000000;strokeColor=#ff0000;" vertex="1" parent="1">
          <mxGeometry x="85" y="1313.5" width="30" height="30" as="geometry" />
        </mxCell>
        <mxCell id="2JAsxOmvKEnWSwmgY7Z6-177" value="" style="edgeStyle=orthogonalEdgeStyle;html=1;verticalAlign=bottom;endArrow=open;endSize=8;strokeColor=#ff0000;rounded=0;entryX=0.5;entryY=0;entryDx=0;entryDy=0;" edge="1" parent="1" source="2JAsxOmvKEnWSwmgY7Z6-176" target="2JAsxOmvKEnWSwmgY7Z6-179">
          <mxGeometry relative="1" as="geometry">
            <mxPoint x="-57" y="1679" as="targetPoint" />
          </mxGeometry>
        </mxCell>
        <mxCell id="2JAsxOmvKEnWSwmgY7Z6-178" style="edgeStyle=orthogonalEdgeStyle;rounded=0;orthogonalLoop=1;jettySize=auto;html=1;exitX=0.5;exitY=1;exitDx=0;exitDy=0;" edge="1" parent="1" source="2JAsxOmvKEnWSwmgY7Z6-179" target="2JAsxOmvKEnWSwmgY7Z6-187">
          <mxGeometry relative="1" as="geometry" />
        </mxCell>
        <mxCell id="2JAsxOmvKEnWSwmgY7Z6-179" value="New feature request" style="rounded=1;whiteSpace=wrap;html=1;" vertex="1" parent="1">
          <mxGeometry x="41" y="1406" width="118" height="25" as="geometry" />
        </mxCell>
        <mxCell id="2JAsxOmvKEnWSwmgY7Z6-180" value="M / L" style="edgeStyle=orthogonalEdgeStyle;rounded=0;orthogonalLoop=1;jettySize=auto;html=1;exitX=0.5;exitY=1;exitDx=0;exitDy=0;entryX=0.5;entryY=0;entryDx=0;entryDy=0;startArrow=none;" edge="1" parent="1" source="2JAsxOmvKEnWSwmgY7Z6-321" target="2JAsxOmvKEnWSwmgY7Z6-182">
          <mxGeometry relative="1" as="geometry" />
        </mxCell>
        <mxCell id="2JAsxOmvKEnWSwmgY7Z6-181" value="Analysis" style="rounded=1;whiteSpace=wrap;html=1;fillColor=#b1ddf0;strokeColor=#10739e;" vertex="1" parent="1">
          <mxGeometry x="66" y="1569.5" width="69" height="25" as="geometry" />
        </mxCell>
        <mxCell id="2JAsxOmvKEnWSwmgY7Z6-182" value="Study" style="rounded=1;whiteSpace=wrap;html=1;fillColor=#b1ddf0;strokeColor=#000066;strokeWidth=4;" vertex="1" parent="1">
          <mxGeometry x="66" y="1764" width="69" height="25" as="geometry" />
        </mxCell>
        <mxCell id="2JAsxOmvKEnWSwmgY7Z6-183" style="edgeStyle=orthogonalEdgeStyle;rounded=0;orthogonalLoop=1;jettySize=auto;html=1;exitX=1;exitY=0.5;exitDx=0;exitDy=0;entryX=0.5;entryY=0;entryDx=0;entryDy=0;" edge="1" parent="1" source="2JAsxOmvKEnWSwmgY7Z6-187" target="2JAsxOmvKEnWSwmgY7Z6-181">
          <mxGeometry relative="1" as="geometry" />
        </mxCell>
        <mxCell id="2JAsxOmvKEnWSwmgY7Z6-184" value="S / Unknown" style="edgeLabel;html=1;align=center;verticalAlign=middle;resizable=0;points=[];fontSize=14;" vertex="1" connectable="0" parent="2JAsxOmvKEnWSwmgY7Z6-183">
          <mxGeometry x="0.1089" y="1" relative="1" as="geometry">
            <mxPoint x="3" y="-6" as="offset" />
          </mxGeometry>
        </mxCell>
        <mxCell id="2JAsxOmvKEnWSwmgY7Z6-185" style="edgeStyle=orthogonalEdgeStyle;rounded=0;orthogonalLoop=1;jettySize=auto;html=1;exitX=0.5;exitY=1;exitDx=0;exitDy=0;entryX=0;entryY=0.5;entryDx=0;entryDy=0;" edge="1" parent="1" source="2JAsxOmvKEnWSwmgY7Z6-187" target="2JAsxOmvKEnWSwmgY7Z6-182">
          <mxGeometry relative="1" as="geometry">
            <Array as="points">
              <mxPoint x="34" y="1505" />
              <mxPoint x="34" y="1777" />
            </Array>
          </mxGeometry>
        </mxCell>
        <mxCell id="2JAsxOmvKEnWSwmgY7Z6-186" value="M/L" style="edgeLabel;html=1;align=center;verticalAlign=middle;resizable=0;points=[];fontSize=14;" vertex="1" connectable="0" parent="2JAsxOmvKEnWSwmgY7Z6-185">
          <mxGeometry x="-0.02" y="3" relative="1" as="geometry">
            <mxPoint x="-3" y="-25" as="offset" />
          </mxGeometry>
        </mxCell>
        <mxCell id="2JAsxOmvKEnWSwmgY7Z6-187" value="" style="rhombus;whiteSpace=wrap;html=1;direction=south;" vertex="1" parent="1">
          <mxGeometry x="88" y="1492" width="24" height="25" as="geometry" />
        </mxCell>
        <mxCell id="2JAsxOmvKEnWSwmgY7Z6-188" value="Yes" style="edgeStyle=orthogonalEdgeStyle;rounded=0;orthogonalLoop=1;jettySize=auto;html=1;exitX=1;exitY=0.5;exitDx=0;exitDy=0;entryX=0.5;entryY=0;entryDx=0;entryDy=0;fontSize=14;" edge="1" parent="1" source="2JAsxOmvKEnWSwmgY7Z6-190" target="2JAsxOmvKEnWSwmgY7Z6-219">
          <mxGeometry x="0.2762" relative="1" as="geometry">
            <mxPoint x="900" y="1302.98" as="targetPoint" />
            <mxPoint as="offset" />
          </mxGeometry>
        </mxCell>
        <mxCell id="2JAsxOmvKEnWSwmgY7Z6-189" value="No" style="edgeStyle=orthogonalEdgeStyle;rounded=0;orthogonalLoop=1;jettySize=auto;html=1;exitX=0.5;exitY=1;exitDx=0;exitDy=0;fontSize=14;entryX=-0.008;entryY=0.362;entryDx=0;entryDy=0;entryPerimeter=0;" edge="1" parent="1" source="2JAsxOmvKEnWSwmgY7Z6-190" target="2JAsxOmvKEnWSwmgY7Z6-194">
          <mxGeometry x="0.3333" relative="1" as="geometry">
            <mxPoint x="695" y="1351" as="targetPoint" />
            <Array as="points">
              <mxPoint x="607" y="1367" />
              <mxPoint x="712" y="1367" />
            </Array>
            <mxPoint as="offset" />
          </mxGeometry>
        </mxCell>
        <mxCell id="2JAsxOmvKEnWSwmgY7Z6-190" value="TS feature ready?" style="rhombus;whiteSpace=wrap;html=1;" vertex="1" parent="1">
          <mxGeometry x="502" y="1284" width="210" height="39.5" as="geometry" />
        </mxCell>
        <mxCell id="2JAsxOmvKEnWSwmgY7Z6-191" style="edgeStyle=orthogonalEdgeStyle;rounded=0;orthogonalLoop=1;jettySize=auto;html=1;exitX=0.5;exitY=0.5;exitDx=0;exitDy=0;exitPerimeter=0;entryX=0;entryY=0.5;entryDx=0;entryDy=0;fontSize=14;" edge="1" parent="1" source="2JAsxOmvKEnWSwmgY7Z6-192" target="2JAsxOmvKEnWSwmgY7Z6-200">
          <mxGeometry relative="1" as="geometry">
            <Array as="points">
              <mxPoint x="1122" y="1439" />
            </Array>
          </mxGeometry>
        </mxCell>
        <mxCell id="2JAsxOmvKEnWSwmgY7Z6-192" value="" style="line;strokeWidth=2;direction=south;html=1;fontSize=14;" vertex="1" parent="1">
          <mxGeometry x="1117" y="1259" width="10" height="454" as="geometry" />
        </mxCell>
        <mxCell id="2JAsxOmvKEnWSwmgY7Z6-193" style="edgeStyle=orthogonalEdgeStyle;rounded=0;orthogonalLoop=1;jettySize=auto;html=1;exitX=1;exitY=0.5;exitDx=0;exitDy=0;entryX=0.5;entryY=1;entryDx=0;entryDy=0;fontSize=14;" edge="1" parent="1" source="2JAsxOmvKEnWSwmgY7Z6-194" target="2JAsxOmvKEnWSwmgY7Z6-219">
          <mxGeometry relative="1" as="geometry">
            <mxPoint x="901" y="1372.0100000000002" as="targetPoint" />
          </mxGeometry>
        </mxCell>
        <mxCell id="2JAsxOmvKEnWSwmgY7Z6-194" value="TS Feature implementation" style="rounded=1;whiteSpace=wrap;html=1;fillColor=#b1ddf0;strokeColor=#10739e;" vertex="1" parent="1">
          <mxGeometry x="713.25" y="1356" width="105.5" height="32" as="geometry" />
        </mxCell>
        <mxCell id="2JAsxOmvKEnWSwmgY7Z6-195" value="Do we have a working config?" style="rhombus;whiteSpace=wrap;html=1;" vertex="1" parent="1">
          <mxGeometry x="502" y="1410" width="210" height="39.5" as="geometry" />
        </mxCell>
        <mxCell id="2JAsxOmvKEnWSwmgY7Z6-196" value="Do we have the env. for testing?" style="rhombus;whiteSpace=wrap;html=1;" vertex="1" parent="1">
          <mxGeometry x="502" y="1525" width="210" height="39.5" as="geometry" />
        </mxCell>
        <mxCell id="2JAsxOmvKEnWSwmgY7Z6-197" style="edgeStyle=orthogonalEdgeStyle;rounded=0;orthogonalLoop=1;jettySize=auto;html=1;exitX=0.5;exitY=0;exitDx=0;exitDy=0;fontSize=14;entryX=0.5;entryY=0;entryDx=0;entryDy=0;" edge="1" parent="1" source="2JAsxOmvKEnWSwmgY7Z6-200" target="2JAsxOmvKEnWSwmgY7Z6-311">
          <mxGeometry relative="1" as="geometry">
            <mxPoint x="555" y="1471" as="targetPoint" />
            <Array as="points">
              <mxPoint x="1283" y="1241" />
              <mxPoint x="335" y="1241" />
            </Array>
          </mxGeometry>
        </mxCell>
        <mxCell id="2JAsxOmvKEnWSwmgY7Z6-198" value="Problem" style="edgeLabel;html=1;align=center;verticalAlign=middle;resizable=0;points=[];fontSize=14;" vertex="1" connectable="0" parent="2JAsxOmvKEnWSwmgY7Z6-197">
          <mxGeometry x="-0.2763" y="2" relative="1" as="geometry">
            <mxPoint x="-293" y="-3" as="offset" />
          </mxGeometry>
        </mxCell>
        <mxCell id="2JAsxOmvKEnWSwmgY7Z6-199" value="Pass" style="edgeStyle=orthogonalEdgeStyle;rounded=0;orthogonalLoop=1;jettySize=auto;html=1;exitX=0.5;exitY=1;exitDx=0;exitDy=0;entryX=0.5;entryY=0;entryDx=0;entryDy=0;fontSize=14;" edge="1" parent="1" source="2JAsxOmvKEnWSwmgY7Z6-200" target="2JAsxOmvKEnWSwmgY7Z6-352">
          <mxGeometry relative="1" as="geometry">
            <mxPoint x="1283" y="1562" as="targetPoint" />
          </mxGeometry>
        </mxCell>
        <mxCell id="2JAsxOmvKEnWSwmgY7Z6-200" value="Feature developer test" style="rhombus;whiteSpace=wrap;html=1;fillColor=#b0e3e6;strokeColor=#0e8088;" vertex="1" parent="1">
          <mxGeometry x="1178" y="1419.5" width="210" height="39.5" as="geometry" />
        </mxCell>
        <mxCell id="2JAsxOmvKEnWSwmgY7Z6-201" style="edgeStyle=orthogonalEdgeStyle;rounded=0;orthogonalLoop=1;jettySize=auto;html=1;entryX=1;entryY=0.5;entryDx=0;entryDy=0;exitX=0;exitY=0.25;exitDx=0;exitDy=0;" edge="1" parent="1" source="2JAsxOmvKEnWSwmgY7Z6-352" target="2JAsxOmvKEnWSwmgY7Z6-313">
          <mxGeometry relative="1" as="geometry">
            <mxPoint x="1220" y="1716" as="sourcePoint" />
            <Array as="points">
              <mxPoint x="1187" y="1575" />
              <mxPoint x="1187" y="1787" />
            </Array>
          </mxGeometry>
        </mxCell>
        <mxCell id="2JAsxOmvKEnWSwmgY7Z6-202" value="No" style="edgeStyle=orthogonalEdgeStyle;rounded=0;orthogonalLoop=1;jettySize=auto;html=1;exitX=1;exitY=0.5;exitDx=0;exitDy=0;fontSize=14;entryX=0.5;entryY=0;entryDx=0;entryDy=0;" edge="1" parent="1" source="2JAsxOmvKEnWSwmgY7Z6-204" target="2JAsxOmvKEnWSwmgY7Z6-235">
          <mxGeometry x="-0.3554" relative="1" as="geometry">
            <mxPoint x="1426" y="1843" as="targetPoint" />
            <mxPoint as="offset" />
          </mxGeometry>
        </mxCell>
        <mxCell id="2JAsxOmvKEnWSwmgY7Z6-203" value="Yes" style="edgeStyle=orthogonalEdgeStyle;rounded=0;orthogonalLoop=1;jettySize=auto;html=1;exitX=0.5;exitY=1;exitDx=0;exitDy=0;entryX=0.489;entryY=0.593;entryDx=0;entryDy=0;fontSize=14;entryPerimeter=0;" edge="1" parent="1" source="2JAsxOmvKEnWSwmgY7Z6-204" target="2JAsxOmvKEnWSwmgY7Z6-347">
          <mxGeometry x="0.4751" relative="1" as="geometry">
            <Array as="points">
              <mxPoint x="337" y="2063" />
            </Array>
            <mxPoint as="offset" />
          </mxGeometry>
        </mxCell>
        <mxCell id="2JAsxOmvKEnWSwmgY7Z6-204" value="Is Adapter code&lt;br&gt;development&amp;nbsp;&amp;nbsp;needed?" style="rhombus;whiteSpace=wrap;html=1;" vertex="1" parent="1">
          <mxGeometry x="259" y="1797" width="156" height="93" as="geometry" />
        </mxCell>
        <mxCell id="2JAsxOmvKEnWSwmgY7Z6-205" style="edgeStyle=orthogonalEdgeStyle;rounded=0;orthogonalLoop=1;jettySize=auto;html=1;exitX=1;exitY=0.5;exitDx=0;exitDy=0;fontSize=14;entryX=0.5;entryY=1;entryDx=0;entryDy=0;" edge="1" parent="1" source="2JAsxOmvKEnWSwmgY7Z6-206" target="2JAsxOmvKEnWSwmgY7Z6-235">
          <mxGeometry relative="1" as="geometry">
            <mxPoint x="1421" y="1919" as="targetPoint" />
          </mxGeometry>
        </mxCell>
        <mxCell id="2JAsxOmvKEnWSwmgY7Z6-206" value="Adapter feature&amp;nbsp; and unit test implementation" style="rounded=1;whiteSpace=wrap;html=1;fillColor=#b1ddf0;strokeColor=#10739e;" vertex="1" parent="1">
          <mxGeometry x="724" y="1874" width="105.5" height="89" as="geometry" />
        </mxCell>
        <mxCell id="2JAsxOmvKEnWSwmgY7Z6-207" style="edgeStyle=orthogonalEdgeStyle;rounded=0;orthogonalLoop=1;jettySize=auto;html=1;exitX=0.5;exitY=0.5;exitDx=0;exitDy=0;exitPerimeter=0;entryX=0;entryY=0.5;entryDx=0;entryDy=0;fontSize=14;" edge="1" parent="1" source="2JAsxOmvKEnWSwmgY7Z6-208" target="2JAsxOmvKEnWSwmgY7Z6-209">
          <mxGeometry relative="1" as="geometry">
            <Array as="points">
              <mxPoint x="1318" y="1849" />
            </Array>
          </mxGeometry>
        </mxCell>
        <mxCell id="2JAsxOmvKEnWSwmgY7Z6-208" value="" style="line;strokeWidth=2;direction=south;html=1;fontSize=14;" vertex="1" parent="1">
          <mxGeometry x="1310" y="1792" width="16" height="116" as="geometry" />
        </mxCell>
        <mxCell id="2JAsxOmvKEnWSwmgY7Z6-209" value="Adapter config&amp;nbsp; and descriptor update&amp;nbsp;" style="rounded=1;whiteSpace=wrap;html=1;fillColor=#b1ddf0;strokeColor=#10739e;" vertex="1" parent="1">
          <mxGeometry x="1413" y="1833" width="116" height="32" as="geometry" />
        </mxCell>
        <mxCell id="2JAsxOmvKEnWSwmgY7Z6-210" style="edgeStyle=orthogonalEdgeStyle;rounded=0;orthogonalLoop=1;jettySize=auto;html=1;entryX=0;entryY=0.5;entryDx=0;entryDy=0;exitX=1;exitY=0.5;exitDx=0;exitDy=0;" edge="1" parent="1" source="2JAsxOmvKEnWSwmgY7Z6-209" target="2JAsxOmvKEnWSwmgY7Z6-215">
          <mxGeometry relative="1" as="geometry">
            <mxPoint x="1618" y="1935.08" as="sourcePoint" />
          </mxGeometry>
        </mxCell>
        <mxCell id="2JAsxOmvKEnWSwmgY7Z6-211" value="Pass" style="edgeStyle=orthogonalEdgeStyle;rounded=0;orthogonalLoop=1;jettySize=auto;html=1;exitX=1;exitY=0.5;exitDx=0;exitDy=0;fontSize=14;entryX=0;entryY=0.5;entryDx=0;entryDy=0;" edge="1" parent="1" source="2JAsxOmvKEnWSwmgY7Z6-215" target="2JAsxOmvKEnWSwmgY7Z6-388">
          <mxGeometry relative="1" as="geometry">
            <mxPoint x="1812" y="1853" as="targetPoint" />
          </mxGeometry>
        </mxCell>
        <mxCell id="2JAsxOmvKEnWSwmgY7Z6-212" value="Problem with Adapter implementation" style="edgeStyle=orthogonalEdgeStyle;rounded=0;orthogonalLoop=1;jettySize=auto;html=1;exitX=0.5;exitY=1;exitDx=0;exitDy=0;fontSize=14;entryX=0.688;entryY=1.009;entryDx=0;entryDy=0;entryPerimeter=0;" edge="1" parent="1" source="2JAsxOmvKEnWSwmgY7Z6-215" target="2JAsxOmvKEnWSwmgY7Z6-206">
          <mxGeometry x="0.3562" relative="1" as="geometry">
            <mxPoint x="1018" y="1935" as="targetPoint" />
            <Array as="points">
              <mxPoint x="1668" y="1868" />
              <mxPoint x="1668" y="2048" />
              <mxPoint x="797" y="2048" />
              <mxPoint x="797" y="1964" />
            </Array>
            <mxPoint as="offset" />
          </mxGeometry>
        </mxCell>
        <mxCell id="2JAsxOmvKEnWSwmgY7Z6-213" value="Problem with TS feature / missing config entry" style="edgeStyle=orthogonalEdgeStyle;rounded=0;orthogonalLoop=1;jettySize=auto;html=1;exitX=0.5;exitY=0;exitDx=0;exitDy=0;fontSize=14;entryX=0.5;entryY=1;entryDx=0;entryDy=0;" edge="1" parent="1" source="2JAsxOmvKEnWSwmgY7Z6-215" target="2JAsxOmvKEnWSwmgY7Z6-194">
          <mxGeometry x="-0.0829" relative="1" as="geometry">
            <mxPoint x="1595" y="1829" as="sourcePoint" />
            <mxPoint x="986" y="1522" as="targetPoint" />
            <Array as="points">
              <mxPoint x="1657" y="1409" />
              <mxPoint x="766" y="1409" />
            </Array>
            <mxPoint x="-1" as="offset" />
          </mxGeometry>
        </mxCell>
        <mxCell id="2JAsxOmvKEnWSwmgY7Z6-214" value="Problem with descriptors" style="edgeStyle=orthogonalEdgeStyle;rounded=0;orthogonalLoop=1;jettySize=auto;html=1;exitX=0.5;exitY=1;exitDx=0;exitDy=0;fontSize=14;entryX=0.5;entryY=1;entryDx=0;entryDy=0;" edge="1" parent="1" source="2JAsxOmvKEnWSwmgY7Z6-215" target="2JAsxOmvKEnWSwmgY7Z6-209">
          <mxGeometry relative="1" as="geometry">
            <mxPoint x="1436" y="1864" as="targetPoint" />
            <Array as="points">
              <mxPoint x="1645" y="1868" />
              <mxPoint x="1645" y="1930" />
              <mxPoint x="1471" y="1930" />
            </Array>
          </mxGeometry>
        </mxCell>
        <mxCell id="2JAsxOmvKEnWSwmgY7Z6-215" value="Feature developer test" style="rhombus;whiteSpace=wrap;html=1;fillColor=#b0e3e6;strokeColor=#0e8088;" vertex="1" parent="1">
          <mxGeometry x="1577" y="1829" width="159" height="39" as="geometry" />
        </mxCell>
        <mxCell id="2JAsxOmvKEnWSwmgY7Z6-216" style="edgeStyle=orthogonalEdgeStyle;rounded=0;orthogonalLoop=1;jettySize=auto;html=1;exitX=1;exitY=0.5;exitDx=0;exitDy=0;entryX=0.354;entryY=0.527;entryDx=0;entryDy=0;entryPerimeter=0;" edge="1" parent="1" source="2JAsxOmvKEnWSwmgY7Z6-217">
          <mxGeometry relative="1" as="geometry">
            <mxPoint x="219.73000000000002" y="1674.06" as="targetPoint" />
            <Array as="points" />
          </mxGeometry>
        </mxCell>
        <mxCell id="2JAsxOmvKEnWSwmgY7Z6-217" value="" style="shape=ellipse;html=1;fillColor=strokeColor;fontSize=18;fontColor=#ffffff;" vertex="1" parent="1">
          <mxGeometry x="170" y="1664.5" width="20" height="19" as="geometry" />
        </mxCell>
        <mxCell id="2JAsxOmvKEnWSwmgY7Z6-218" style="edgeStyle=orthogonalEdgeStyle;rounded=0;orthogonalLoop=1;jettySize=auto;html=1;exitX=1;exitY=0.5;exitDx=0;exitDy=0;fontSize=14;entryX=0.164;entryY=0.594;entryDx=0;entryDy=0;entryPerimeter=0;" edge="1" parent="1" source="2JAsxOmvKEnWSwmgY7Z6-219" target="2JAsxOmvKEnWSwmgY7Z6-192">
          <mxGeometry relative="1" as="geometry">
            <mxPoint x="1115.5" y="1332.8333333333335" as="targetPoint" />
          </mxGeometry>
        </mxCell>
        <mxCell id="2JAsxOmvKEnWSwmgY7Z6-219" value="" style="shape=ellipse;html=1;fillColor=strokeColor;fontSize=18;fontColor=#ffffff;" vertex="1" parent="1">
          <mxGeometry x="853" y="1323.5" width="20" height="19" as="geometry" />
        </mxCell>
        <mxCell id="2JAsxOmvKEnWSwmgY7Z6-220" value="Yes" style="edgeStyle=orthogonalEdgeStyle;rounded=0;orthogonalLoop=1;jettySize=auto;html=1;exitX=1;exitY=0.5;exitDx=0;exitDy=0;entryX=0.5;entryY=0;entryDx=0;entryDy=0;fontSize=14;" edge="1" parent="1" target="2JAsxOmvKEnWSwmgY7Z6-225">
          <mxGeometry relative="1" as="geometry">
            <mxPoint x="713" y="1429.75" as="sourcePoint" />
            <mxPoint x="901" y="1428.98" as="targetPoint" />
          </mxGeometry>
        </mxCell>
        <mxCell id="2JAsxOmvKEnWSwmgY7Z6-221" value="No" style="edgeStyle=orthogonalEdgeStyle;rounded=0;orthogonalLoop=1;jettySize=auto;html=1;exitX=0.5;exitY=1;exitDx=0;exitDy=0;fontSize=14;entryX=0;entryY=0.5;entryDx=0;entryDy=0;" edge="1" parent="1" target="2JAsxOmvKEnWSwmgY7Z6-223">
          <mxGeometry x="0.3333" relative="1" as="geometry">
            <mxPoint x="608" y="1449.5" as="sourcePoint" />
            <mxPoint x="696" y="1477" as="targetPoint" />
            <Array as="points">
              <mxPoint x="608" y="1498" />
            </Array>
            <mxPoint as="offset" />
          </mxGeometry>
        </mxCell>
        <mxCell id="2JAsxOmvKEnWSwmgY7Z6-222" style="edgeStyle=orthogonalEdgeStyle;rounded=0;orthogonalLoop=1;jettySize=auto;html=1;exitX=1;exitY=0.5;exitDx=0;exitDy=0;entryX=0.5;entryY=1;entryDx=0;entryDy=0;fontSize=14;" edge="1" parent="1" source="2JAsxOmvKEnWSwmgY7Z6-223" target="2JAsxOmvKEnWSwmgY7Z6-225">
          <mxGeometry relative="1" as="geometry">
            <mxPoint x="902" y="1498.0100000000002" as="targetPoint" />
          </mxGeometry>
        </mxCell>
        <mxCell id="2JAsxOmvKEnWSwmgY7Z6-223" value="Config Creation" style="rounded=1;whiteSpace=wrap;html=1;fillColor=#b1ddf0;strokeColor=#10739e;" vertex="1" parent="1">
          <mxGeometry x="714.25" y="1482" width="105.5" height="32" as="geometry" />
        </mxCell>
        <mxCell id="2JAsxOmvKEnWSwmgY7Z6-224" style="edgeStyle=orthogonalEdgeStyle;rounded=0;orthogonalLoop=1;jettySize=auto;html=1;exitX=1;exitY=0.5;exitDx=0;exitDy=0;fontSize=14;entryX=0.188;entryY=0.608;entryDx=0;entryDy=0;entryPerimeter=0;" edge="1" parent="1" source="2JAsxOmvKEnWSwmgY7Z6-225">
          <mxGeometry relative="1" as="geometry">
            <mxPoint x="1121.92" y="1458.3199999999997" as="targetPoint" />
          </mxGeometry>
        </mxCell>
        <mxCell id="2JAsxOmvKEnWSwmgY7Z6-225" value="" style="shape=ellipse;html=1;fillColor=strokeColor;fontSize=18;fontColor=#ffffff;" vertex="1" parent="1">
          <mxGeometry x="854" y="1449.5" width="20" height="19" as="geometry" />
        </mxCell>
        <mxCell id="2JAsxOmvKEnWSwmgY7Z6-226" value="Yes" style="edgeStyle=orthogonalEdgeStyle;rounded=0;orthogonalLoop=1;jettySize=auto;html=1;exitX=1;exitY=0.5;exitDx=0;exitDy=0;entryX=0.5;entryY=0;entryDx=0;entryDy=0;fontSize=14;" edge="1" parent="1" target="2JAsxOmvKEnWSwmgY7Z6-231">
          <mxGeometry relative="1" as="geometry">
            <mxPoint x="713" y="1544.75" as="sourcePoint" />
            <mxPoint x="901" y="1543.98" as="targetPoint" />
          </mxGeometry>
        </mxCell>
        <mxCell id="2JAsxOmvKEnWSwmgY7Z6-227" value="No" style="edgeStyle=orthogonalEdgeStyle;rounded=0;orthogonalLoop=1;jettySize=auto;html=1;exitX=0.5;exitY=1;exitDx=0;exitDy=0;fontSize=14;entryX=0;entryY=0.5;entryDx=0;entryDy=0;" edge="1" parent="1" target="2JAsxOmvKEnWSwmgY7Z6-229">
          <mxGeometry x="0.3333" relative="1" as="geometry">
            <mxPoint x="608" y="1564.5" as="sourcePoint" />
            <mxPoint x="696" y="1592" as="targetPoint" />
            <Array as="points">
              <mxPoint x="608" y="1613" />
            </Array>
            <mxPoint as="offset" />
          </mxGeometry>
        </mxCell>
        <mxCell id="2JAsxOmvKEnWSwmgY7Z6-228" style="edgeStyle=orthogonalEdgeStyle;rounded=0;orthogonalLoop=1;jettySize=auto;html=1;exitX=1;exitY=0.5;exitDx=0;exitDy=0;entryX=0.5;entryY=1;entryDx=0;entryDy=0;fontSize=14;" edge="1" parent="1" source="2JAsxOmvKEnWSwmgY7Z6-229" target="2JAsxOmvKEnWSwmgY7Z6-231">
          <mxGeometry relative="1" as="geometry">
            <mxPoint x="902" y="1613.0100000000002" as="targetPoint" />
          </mxGeometry>
        </mxCell>
        <mxCell id="2JAsxOmvKEnWSwmgY7Z6-229" value="Environment creation / fix" style="rounded=1;whiteSpace=wrap;html=1;fillColor=#e51400;fontColor=#ffffff;strokeColor=#000066;strokeWidth=4;" vertex="1" parent="1">
          <mxGeometry x="714.25" y="1597" width="105.5" height="32" as="geometry" />
        </mxCell>
        <mxCell id="2JAsxOmvKEnWSwmgY7Z6-230" style="edgeStyle=orthogonalEdgeStyle;rounded=0;orthogonalLoop=1;jettySize=auto;html=1;exitX=1;exitY=0.5;exitDx=0;exitDy=0;fontSize=14;entryX=0.188;entryY=0.608;entryDx=0;entryDy=0;entryPerimeter=0;" edge="1" parent="1" source="2JAsxOmvKEnWSwmgY7Z6-231">
          <mxGeometry relative="1" as="geometry">
            <mxPoint x="1121.92" y="1573.3199999999997" as="targetPoint" />
          </mxGeometry>
        </mxCell>
        <mxCell id="2JAsxOmvKEnWSwmgY7Z6-231" value="" style="shape=ellipse;html=1;fillColor=strokeColor;fontSize=18;fontColor=#ffffff;" vertex="1" parent="1">
          <mxGeometry x="854" y="1564.5" width="20" height="19" as="geometry" />
        </mxCell>
        <mxCell id="2JAsxOmvKEnWSwmgY7Z6-232" value="" style="endArrow=classic;html=1;rounded=0;fontSize=14;exitX=1;exitY=0.5;exitDx=0;exitDy=0;entryX=0.5;entryY=1;entryDx=0;entryDy=0;" edge="1" parent="1" source="2JAsxOmvKEnWSwmgY7Z6-182" target="2JAsxOmvKEnWSwmgY7Z6-217">
          <mxGeometry width="50" height="50" relative="1" as="geometry">
            <mxPoint x="499" y="1716" as="sourcePoint" />
            <mxPoint x="549" y="1666" as="targetPoint" />
            <Array as="points">
              <mxPoint x="180" y="1777" />
            </Array>
          </mxGeometry>
        </mxCell>
        <mxCell id="2JAsxOmvKEnWSwmgY7Z6-233" value="S" style="endArrow=classic;html=1;rounded=0;fontSize=14;exitX=1;exitY=0.5;exitDx=0;exitDy=0;entryX=0;entryY=0.5;entryDx=0;entryDy=0;" edge="1" parent="1" source="2JAsxOmvKEnWSwmgY7Z6-321" target="2JAsxOmvKEnWSwmgY7Z6-217">
          <mxGeometry width="50" height="50" relative="1" as="geometry">
            <mxPoint x="499" y="1716" as="sourcePoint" />
            <mxPoint x="219" y="1663" as="targetPoint" />
          </mxGeometry>
        </mxCell>
        <mxCell id="2JAsxOmvKEnWSwmgY7Z6-234" style="edgeStyle=orthogonalEdgeStyle;rounded=0;orthogonalLoop=1;jettySize=auto;html=1;exitX=1;exitY=0.5;exitDx=0;exitDy=0;entryX=0.75;entryY=0.5;entryDx=0;entryDy=0;entryPerimeter=0;fontSize=14;" edge="1" parent="1" source="2JAsxOmvKEnWSwmgY7Z6-235" target="2JAsxOmvKEnWSwmgY7Z6-208">
          <mxGeometry relative="1" as="geometry" />
        </mxCell>
        <mxCell id="2JAsxOmvKEnWSwmgY7Z6-235" value="" style="shape=ellipse;html=1;fillColor=strokeColor;fontSize=18;fontColor=#ffffff;" vertex="1" parent="1">
          <mxGeometry x="1112" y="1869.5" width="20" height="19" as="geometry" />
        </mxCell>
        <mxCell id="2JAsxOmvKEnWSwmgY7Z6-236" style="edgeStyle=orthogonalEdgeStyle;rounded=0;orthogonalLoop=1;jettySize=auto;html=1;exitX=1;exitY=0.5;exitDx=0;exitDy=0;entryX=0.5;entryY=0.505;entryDx=0;entryDy=0;entryPerimeter=0;" edge="1" parent="1" source="2JAsxOmvKEnWSwmgY7Z6-237" target="2JAsxOmvKEnWSwmgY7Z6-289">
          <mxGeometry relative="1" as="geometry">
            <Array as="points">
              <mxPoint x="3197" y="1720" />
              <mxPoint x="3333" y="1720" />
            </Array>
          </mxGeometry>
        </mxCell>
        <mxCell id="2JAsxOmvKEnWSwmgY7Z6-237" value="Release package creation" style="rounded=0;html=1;align=left;horizontal=1;verticalAlign=top;whiteSpace=wrap;fontSize=14;" vertex="1" parent="1">
          <mxGeometry x="2429" y="1307" width="770" height="730" as="geometry" />
        </mxCell>
        <mxCell id="2JAsxOmvKEnWSwmgY7Z6-238" value="Jenkins Job" style="rounded=0;html=1;align=left;horizontal=1;verticalAlign=top;whiteSpace=wrap;fontSize=18;" vertex="1" parent="1">
          <mxGeometry x="2509" y="1532" width="244" height="359" as="geometry" />
        </mxCell>
        <mxCell id="2JAsxOmvKEnWSwmgY7Z6-239" value="Release tgz package" style="rounded=1;whiteSpace=wrap;html=1;fillColor=#60a917;fontColor=#ffffff;strokeColor=#2D7600;" vertex="1" parent="1">
          <mxGeometry x="3312" y="1841" width="105.5" height="32" as="geometry" />
        </mxCell>
        <mxCell id="2JAsxOmvKEnWSwmgY7Z6-240" style="edgeStyle=orthogonalEdgeStyle;rounded=0;orthogonalLoop=1;jettySize=auto;html=1;exitX=1;exitY=0.5;exitDx=0;exitDy=0;fontSize=14;entryX=0;entryY=0.5;entryDx=0;entryDy=0;" edge="1" parent="1" source="2JAsxOmvKEnWSwmgY7Z6-241" target="2JAsxOmvKEnWSwmgY7Z6-316">
          <mxGeometry relative="1" as="geometry">
            <mxPoint x="2487.9199999999996" y="1577.8199999999997" as="targetPoint" />
          </mxGeometry>
        </mxCell>
        <mxCell id="2JAsxOmvKEnWSwmgY7Z6-241" value="" style="shape=ellipse;html=1;fillColor=strokeColor;fontSize=18;fontColor=#ffffff;" vertex="1" parent="1">
          <mxGeometry x="2448" y="1394" width="20" height="19" as="geometry" />
        </mxCell>
        <mxCell id="2JAsxOmvKEnWSwmgY7Z6-242" value="Pass" style="edgeStyle=orthogonalEdgeStyle;rounded=0;orthogonalLoop=1;jettySize=auto;html=1;exitX=0.5;exitY=1;exitDx=0;exitDy=0;" edge="1" parent="1" source="2JAsxOmvKEnWSwmgY7Z6-244" target="2JAsxOmvKEnWSwmgY7Z6-247">
          <mxGeometry x="0.3" relative="1" as="geometry">
            <mxPoint as="offset" />
          </mxGeometry>
        </mxCell>
        <mxCell id="2JAsxOmvKEnWSwmgY7Z6-243" value="Fail" style="edgeStyle=orthogonalEdgeStyle;rounded=0;orthogonalLoop=1;jettySize=auto;html=1;exitX=1;exitY=0.5;exitDx=0;exitDy=0;entryX=0.156;entryY=0.076;entryDx=0;entryDy=0;entryPerimeter=0;" edge="1" parent="1" source="2JAsxOmvKEnWSwmgY7Z6-244" target="2JAsxOmvKEnWSwmgY7Z6-300">
          <mxGeometry x="-0.5276" relative="1" as="geometry">
            <Array as="points">
              <mxPoint x="2693" y="1569" />
            </Array>
            <mxPoint as="offset" />
          </mxGeometry>
        </mxCell>
        <mxCell id="2JAsxOmvKEnWSwmgY7Z6-244" value="Hadolint" style="rhombus;whiteSpace=wrap;html=1;fillColor=#b0e3e6;strokeColor=#0e8088;" vertex="1" parent="1">
          <mxGeometry x="2527" y="1558.5" width="166" height="32" as="geometry" />
        </mxCell>
        <mxCell id="2JAsxOmvKEnWSwmgY7Z6-245" value="Pass" style="edgeStyle=orthogonalEdgeStyle;rounded=0;orthogonalLoop=1;jettySize=auto;html=1;exitX=0.5;exitY=1;exitDx=0;exitDy=0;entryX=0.5;entryY=0;entryDx=0;entryDy=0;" edge="1" parent="1" source="2JAsxOmvKEnWSwmgY7Z6-247" target="2JAsxOmvKEnWSwmgY7Z6-250">
          <mxGeometry x="-0.2" relative="1" as="geometry">
            <mxPoint as="offset" />
          </mxGeometry>
        </mxCell>
        <mxCell id="2JAsxOmvKEnWSwmgY7Z6-246" value="Fail" style="edgeStyle=orthogonalEdgeStyle;rounded=0;orthogonalLoop=1;jettySize=auto;html=1;exitX=1;exitY=0.5;exitDx=0;exitDy=0;entryX=0.016;entryY=0.361;entryDx=0;entryDy=0;entryPerimeter=0;" edge="1" parent="1" source="2JAsxOmvKEnWSwmgY7Z6-247" target="2JAsxOmvKEnWSwmgY7Z6-300">
          <mxGeometry x="-0.8162" relative="1" as="geometry">
            <Array as="points">
              <mxPoint x="2732" y="1658" />
              <mxPoint x="2732" y="1576" />
              <mxPoint x="2836" y="1576" />
            </Array>
            <mxPoint as="offset" />
          </mxGeometry>
        </mxCell>
        <mxCell id="2JAsxOmvKEnWSwmgY7Z6-247" value="Traffic tests&lt;br&gt;NWST or Kamailio" style="rhombus;whiteSpace=wrap;html=1;fillColor=#b0e3e6;strokeColor=#0e8088;" vertex="1" parent="1">
          <mxGeometry x="2527" y="1620.5" width="166" height="74.5" as="geometry" />
        </mxCell>
        <mxCell id="2JAsxOmvKEnWSwmgY7Z6-248" value="Pass" style="edgeStyle=orthogonalEdgeStyle;rounded=0;orthogonalLoop=1;jettySize=auto;html=1;exitX=0.5;exitY=1;exitDx=0;exitDy=0;entryX=0.5;entryY=0;entryDx=0;entryDy=0;" edge="1" parent="1" source="2JAsxOmvKEnWSwmgY7Z6-250" target="2JAsxOmvKEnWSwmgY7Z6-257">
          <mxGeometry x="-0.2" relative="1" as="geometry">
            <Array as="points">
              <mxPoint x="2609" y="1757" />
              <mxPoint x="2609" y="1771" />
              <mxPoint x="2610" y="1771" />
            </Array>
            <mxPoint as="offset" />
          </mxGeometry>
        </mxCell>
        <mxCell id="2JAsxOmvKEnWSwmgY7Z6-249" value="Fail" style="edgeStyle=orthogonalEdgeStyle;rounded=0;orthogonalLoop=1;jettySize=auto;html=1;exitX=1;exitY=0.5;exitDx=0;exitDy=0;entryX=0.094;entryY=0.782;entryDx=0;entryDy=0;entryPerimeter=0;" edge="1" parent="1" source="2JAsxOmvKEnWSwmgY7Z6-250" target="2JAsxOmvKEnWSwmgY7Z6-300">
          <mxGeometry x="-0.807" relative="1" as="geometry">
            <mxPoint x="2834" y="1577" as="targetPoint" />
            <Array as="points">
              <mxPoint x="2740" y="1741" />
              <mxPoint x="2740" y="1583" />
            </Array>
            <mxPoint as="offset" />
          </mxGeometry>
        </mxCell>
        <mxCell id="2JAsxOmvKEnWSwmgY7Z6-250" value="Trivy" style="rhombus;whiteSpace=wrap;html=1;fillColor=#b0e3e6;strokeColor=#0e8088;" vertex="1" parent="1">
          <mxGeometry x="2527" y="1725" width="166" height="32" as="geometry" />
        </mxCell>
        <mxCell id="2JAsxOmvKEnWSwmgY7Z6-251" value="Fail" style="edgeStyle=orthogonalEdgeStyle;rounded=0;orthogonalLoop=1;jettySize=auto;html=1;exitX=0.5;exitY=0;exitDx=0;exitDy=0;entryX=0.5;entryY=1;entryDx=0;entryDy=0;" edge="1" parent="1" source="2JAsxOmvKEnWSwmgY7Z6-253" target="2JAsxOmvKEnWSwmgY7Z6-300">
          <mxGeometry relative="1" as="geometry" />
        </mxCell>
        <mxCell id="2JAsxOmvKEnWSwmgY7Z6-252" value="Pass" style="edgeStyle=orthogonalEdgeStyle;rounded=0;orthogonalLoop=1;jettySize=auto;html=1;exitX=1;exitY=0.5;exitDx=0;exitDy=0;entryX=0.116;entryY=0.524;entryDx=0;entryDy=0;entryPerimeter=0;fontSize=12;" edge="1" parent="1" source="2JAsxOmvKEnWSwmgY7Z6-253" target="2JAsxOmvKEnWSwmgY7Z6-336">
          <mxGeometry relative="1" as="geometry" />
        </mxCell>
        <mxCell id="2JAsxOmvKEnWSwmgY7Z6-253" value="JFrog XRay" style="rhombus;whiteSpace=wrap;html=1;fillColor=#b0e3e6;strokeColor=#0e8088;" vertex="1" parent="1">
          <mxGeometry x="2776.5" y="1895.37" width="139" height="47.25" as="geometry" />
        </mxCell>
        <mxCell id="2JAsxOmvKEnWSwmgY7Z6-254" value="Fail" style="edgeStyle=orthogonalEdgeStyle;rounded=0;orthogonalLoop=1;jettySize=auto;html=1;exitX=1;exitY=0.5;exitDx=0;exitDy=0;entryX=0.303;entryY=1.075;entryDx=0;entryDy=0;entryPerimeter=0;" edge="1" parent="1" source="2JAsxOmvKEnWSwmgY7Z6-257" target="2JAsxOmvKEnWSwmgY7Z6-300">
          <mxGeometry x="-0.8326" relative="1" as="geometry">
            <Array as="points">
              <mxPoint x="2746" y="1801" />
              <mxPoint x="2746" y="1588" />
              <mxPoint x="2842" y="1588" />
            </Array>
            <mxPoint as="offset" />
          </mxGeometry>
        </mxCell>
        <mxCell id="2JAsxOmvKEnWSwmgY7Z6-255" value="Pass" style="edgeStyle=orthogonalEdgeStyle;rounded=0;orthogonalLoop=1;jettySize=auto;html=1;exitX=0.5;exitY=1;exitDx=0;exitDy=0;entryX=0.5;entryY=0;entryDx=0;entryDy=0;" edge="1" parent="1" source="2JAsxOmvKEnWSwmgY7Z6-333" target="2JAsxOmvKEnWSwmgY7Z6-298">
          <mxGeometry x="0.5626" relative="1" as="geometry">
            <Array as="points" />
            <mxPoint as="offset" />
          </mxGeometry>
        </mxCell>
        <mxCell id="2JAsxOmvKEnWSwmgY7Z6-256" style="edgeStyle=orthogonalEdgeStyle;rounded=0;orthogonalLoop=1;jettySize=auto;html=1;exitX=0.5;exitY=1;exitDx=0;exitDy=0;entryX=0.5;entryY=0;entryDx=0;entryDy=0;fontSize=18;" edge="1" parent="1" source="2JAsxOmvKEnWSwmgY7Z6-257" target="2JAsxOmvKEnWSwmgY7Z6-333">
          <mxGeometry relative="1" as="geometry" />
        </mxCell>
        <mxCell id="2JAsxOmvKEnWSwmgY7Z6-257" value="NMAP" style="rhombus;whiteSpace=wrap;html=1;fillColor=#b0e3e6;strokeColor=#0e8088;" vertex="1" parent="1">
          <mxGeometry x="2527" y="1785" width="166" height="32" as="geometry" />
        </mxCell>
        <mxCell id="2JAsxOmvKEnWSwmgY7Z6-258" value="OWASP ZAP" style="rounded=0;html=1;align=left;horizontal=1;verticalAlign=top;whiteSpace=wrap;fontSize=18;" vertex="1" parent="1">
          <mxGeometry x="2918" y="1519" width="244" height="317" as="geometry" />
        </mxCell>
        <mxCell id="2JAsxOmvKEnWSwmgY7Z6-259" value="Fail" style="edgeStyle=orthogonalEdgeStyle;rounded=0;orthogonalLoop=1;jettySize=auto;html=1;exitX=0;exitY=0.5;exitDx=0;exitDy=0;entryX=0.825;entryY=0.066;entryDx=0;entryDy=0;fontSize=14;entryPerimeter=0;" edge="1" parent="1" source="2JAsxOmvKEnWSwmgY7Z6-290" target="2JAsxOmvKEnWSwmgY7Z6-300">
          <mxGeometry x="-0.2379" y="-2" relative="1" as="geometry">
            <Array as="points">
              <mxPoint x="2959" y="1605" />
              <mxPoint x="2959" y="1570" />
              <mxPoint x="2856" y="1570" />
            </Array>
            <mxPoint as="offset" />
          </mxGeometry>
        </mxCell>
        <mxCell id="2JAsxOmvKEnWSwmgY7Z6-260" value="Complete" style="edgeStyle=orthogonalEdgeStyle;rounded=0;orthogonalLoop=1;jettySize=auto;html=1;exitX=0.5;exitY=0;exitDx=0;exitDy=0;entryX=0;entryY=0.5;entryDx=0;entryDy=0;fontSize=14;" edge="1" parent="1" source="2JAsxOmvKEnWSwmgY7Z6-290" target="2JAsxOmvKEnWSwmgY7Z6-326">
          <mxGeometry x="-0.1443" relative="1" as="geometry">
            <mxPoint as="offset" />
          </mxGeometry>
        </mxCell>
        <mxCell id="2JAsxOmvKEnWSwmgY7Z6-262" style="edgeStyle=orthogonalEdgeStyle;rounded=0;orthogonalLoop=1;jettySize=auto;html=1;exitX=0.5;exitY=0;exitDx=0;exitDy=0;entryX=1.002;entryY=0.077;entryDx=0;entryDy=0;entryPerimeter=0;fontSize=12;" edge="1" parent="1" source="2JAsxOmvKEnWSwmgY7Z6-264" target="2JAsxOmvKEnWSwmgY7Z6-237">
          <mxGeometry relative="1" as="geometry" />
        </mxCell>
        <mxCell id="2JAsxOmvKEnWSwmgY7Z6-263" value="Problems with Package creation" style="edgeLabel;html=1;align=center;verticalAlign=middle;resizable=0;points=[];fontSize=17;" vertex="1" connectable="0" parent="2JAsxOmvKEnWSwmgY7Z6-262">
          <mxGeometry x="0.337" y="-2" relative="1" as="geometry">
            <mxPoint as="offset" />
          </mxGeometry>
        </mxCell>
        <mxCell id="2JAsxOmvKEnWSwmgY7Z6-264" value="Security report,. 3PP list check&lt;br&gt;by security master / PO" style="rhombus;whiteSpace=wrap;html=1;strokeColor=#000066;strokeWidth=4;" vertex="1" parent="1">
          <mxGeometry x="3512" y="1608" width="210" height="136" as="geometry" />
        </mxCell>
        <mxCell id="2JAsxOmvKEnWSwmgY7Z6-265" value="Problems with Adapter services implementation" style="edgeStyle=orthogonalEdgeStyle;rounded=0;orthogonalLoop=1;jettySize=auto;html=1;fontSize=14;exitX=0.5;exitY=1;exitDx=0;exitDy=0;entryX=0.75;entryY=1;entryDx=0;entryDy=0;" edge="1" parent="1" source="2JAsxOmvKEnWSwmgY7Z6-264" target="2JAsxOmvKEnWSwmgY7Z6-390">
          <mxGeometry x="-0.1135" relative="1" as="geometry">
            <mxPoint x="3231" y="1748" as="sourcePoint" />
            <mxPoint x="1082" y="1935" as="targetPoint" />
            <Array as="points">
              <mxPoint x="3617" y="2092" />
              <mxPoint x="2336" y="2092" />
            </Array>
            <mxPoint as="offset" />
          </mxGeometry>
        </mxCell>
        <mxCell id="2JAsxOmvKEnWSwmgY7Z6-266" value="Reports for Security master / PO" style="rounded=1;whiteSpace=wrap;html=1;fillColor=#60a917;fontColor=#ffffff;strokeColor=#2D7600;" vertex="1" parent="1">
          <mxGeometry x="3309" y="1557" width="105.5" height="51" as="geometry" />
        </mxCell>
        <mxCell id="2JAsxOmvKEnWSwmgY7Z6-268" value="Integration testing&lt;br&gt;(Currently manual, requires deep IMS knowledge)" style="rhombus;whiteSpace=wrap;html=1;fillColor=#b0e3e6;strokeColor=#000066;strokeWidth=4;" vertex="1" parent="1">
          <mxGeometry x="3668" y="1692" width="210" height="141.5" as="geometry" />
        </mxCell>
        <mxCell id="2JAsxOmvKEnWSwmgY7Z6-271" style="edgeStyle=orthogonalEdgeStyle;rounded=0;orthogonalLoop=1;jettySize=auto;html=1;exitX=1;exitY=0.5;exitDx=0;exitDy=0;entryX=0.127;entryY=0.531;entryDx=0;entryDy=0;entryPerimeter=0;fontSize=14;" edge="1" parent="1" source="2JAsxOmvKEnWSwmgY7Z6-264" target="2JAsxOmvKEnWSwmgY7Z6-274">
          <mxGeometry relative="1" as="geometry">
            <mxPoint x="3991" y="1612.4999999999995" as="sourcePoint" />
            <Array as="points">
              <mxPoint x="3845" y="1675" />
              <mxPoint x="3845" y="1677" />
            </Array>
          </mxGeometry>
        </mxCell>
        <mxCell id="2JAsxOmvKEnWSwmgY7Z6-272" value="Security tests passed or waved" style="edgeLabel;html=1;align=center;verticalAlign=middle;resizable=0;points=[];" vertex="1" connectable="0" parent="2JAsxOmvKEnWSwmgY7Z6-271">
          <mxGeometry x="0.5883" relative="1" as="geometry">
            <mxPoint x="-48" y="-1" as="offset" />
          </mxGeometry>
        </mxCell>
        <mxCell id="2JAsxOmvKEnWSwmgY7Z6-273" style="edgeStyle=orthogonalEdgeStyle;rounded=0;orthogonalLoop=1;jettySize=auto;html=1;exitX=0.513;exitY=0.484;exitDx=0;exitDy=0;exitPerimeter=0;entryX=0;entryY=0.485;entryDx=0;entryDy=0;fontSize=14;entryPerimeter=0;" edge="1" parent="1" source="2JAsxOmvKEnWSwmgY7Z6-274" target="2JAsxOmvKEnWSwmgY7Z6-277">
          <mxGeometry relative="1" as="geometry">
            <mxPoint x="4021" y="1730.5000000000005" as="targetPoint" />
            <Array as="points" />
            <mxPoint x="3991.999999999999" y="1720.5" as="sourcePoint" />
          </mxGeometry>
        </mxCell>
        <mxCell id="2JAsxOmvKEnWSwmgY7Z6-274" value="" style="line;strokeWidth=2;direction=south;html=1;fontSize=14;" vertex="1" parent="1">
          <mxGeometry x="3983" y="1649" width="16" height="221" as="geometry" />
        </mxCell>
        <mxCell id="2JAsxOmvKEnWSwmgY7Z6-275" value="Pass" style="edgeStyle=orthogonalEdgeStyle;rounded=0;orthogonalLoop=1;jettySize=auto;html=1;exitX=1;exitY=0.5;exitDx=0;exitDy=0;entryX=0.512;entryY=0.579;entryDx=0;entryDy=0;entryPerimeter=0;fontSize=14;" edge="1" parent="1" source="2JAsxOmvKEnWSwmgY7Z6-268" target="2JAsxOmvKEnWSwmgY7Z6-274">
          <mxGeometry relative="1" as="geometry">
            <mxPoint x="3840" y="1761" as="sourcePoint" />
            <Array as="points" />
          </mxGeometry>
        </mxCell>
        <mxCell id="2JAsxOmvKEnWSwmgY7Z6-276" style="edgeStyle=orthogonalEdgeStyle;rounded=0;orthogonalLoop=1;jettySize=auto;html=1;exitX=0.5;exitY=0;exitDx=0;exitDy=0;entryX=0.5;entryY=1;entryDx=0;entryDy=0;fontSize=14;" edge="1" parent="1" source="2JAsxOmvKEnWSwmgY7Z6-277" target="2JAsxOmvKEnWSwmgY7Z6-327">
          <mxGeometry relative="1" as="geometry" />
        </mxCell>
        <mxCell id="2JAsxOmvKEnWSwmgY7Z6-277" value="Release ready" style="rounded=1;whiteSpace=wrap;html=1;" vertex="1" parent="1">
          <mxGeometry x="4019" y="1746.75" width="105.5" height="32" as="geometry" />
        </mxCell>
        <mxCell id="2JAsxOmvKEnWSwmgY7Z6-278" value="" style="endArrow=open;html=1;rounded=0;align=center;verticalAlign=bottom;dashed=1;endFill=0;labelBackgroundColor=none;fontSize=18;fontColor=none;entryX=1;entryY=0.5;entryDx=0;entryDy=0;exitX=0;exitY=1;exitDx=0;exitDy=0;" edge="1" parent="1" source="2JAsxOmvKEnWSwmgY7Z6-268" target="2JAsxOmvKEnWSwmgY7Z6-239">
          <mxGeometry relative="1" as="geometry">
            <mxPoint x="3555" y="1849.33" as="sourcePoint" />
            <mxPoint x="3715" y="1849.33" as="targetPoint" />
            <Array as="points">
              <mxPoint x="3721" y="1857" />
            </Array>
          </mxGeometry>
        </mxCell>
        <mxCell id="2JAsxOmvKEnWSwmgY7Z6-279" value="Dependency" style="resizable=0;html=1;align=center;verticalAlign=top;labelBackgroundColor=none;rounded=0;fontSize=18;fontColor=none;" connectable="0" vertex="1" parent="2JAsxOmvKEnWSwmgY7Z6-278">
          <mxGeometry relative="1" as="geometry">
            <mxPoint x="-65" y="-31" as="offset" />
          </mxGeometry>
        </mxCell>
        <mxCell id="2JAsxOmvKEnWSwmgY7Z6-280" value="Creates" style="html=1;verticalAlign=bottom;labelBackgroundColor=none;endArrow=open;endFill=0;dashed=1;rounded=0;fontSize=18;fontColor=none;entryX=0;entryY=0.5;entryDx=0;entryDy=0;exitX=1;exitY=0.75;exitDx=0;exitDy=0;" edge="1" parent="1" source="2JAsxOmvKEnWSwmgY7Z6-237" target="2JAsxOmvKEnWSwmgY7Z6-239">
          <mxGeometry x="0.3062" width="160" relative="1" as="geometry">
            <mxPoint x="3197" y="1759" as="sourcePoint" />
            <mxPoint x="3261" y="1759" as="targetPoint" />
            <mxPoint as="offset" />
          </mxGeometry>
        </mxCell>
        <mxCell id="2JAsxOmvKEnWSwmgY7Z6-281" value="Creates" style="html=1;verticalAlign=bottom;labelBackgroundColor=none;endArrow=open;endFill=0;dashed=1;rounded=0;fontSize=18;fontColor=none;entryX=0;entryY=0.5;entryDx=0;entryDy=0;exitX=1;exitY=0.378;exitDx=0;exitDy=0;exitPerimeter=0;" edge="1" parent="1" source="2JAsxOmvKEnWSwmgY7Z6-237">
          <mxGeometry x="0.3036" width="160" relative="1" as="geometry">
            <mxPoint x="3197" y="1581.75" as="sourcePoint" />
            <mxPoint x="3309" y="1583.25" as="targetPoint" />
            <mxPoint as="offset" />
          </mxGeometry>
        </mxCell>
        <mxCell id="2JAsxOmvKEnWSwmgY7Z6-282" value="" style="endArrow=open;html=1;rounded=0;align=center;verticalAlign=bottom;dashed=1;endFill=0;labelBackgroundColor=none;fontSize=18;fontColor=none;entryX=1.001;entryY=0.465;entryDx=0;entryDy=0;entryPerimeter=0;exitX=0;exitY=0;exitDx=0;exitDy=0;" edge="1" parent="1" source="2JAsxOmvKEnWSwmgY7Z6-264" target="2JAsxOmvKEnWSwmgY7Z6-266">
          <mxGeometry relative="1" as="geometry">
            <mxPoint x="3677.75" y="1583.5" as="sourcePoint" />
            <mxPoint x="3415" y="1581" as="targetPoint" />
            <Array as="points">
              <mxPoint x="3566" y="1581" />
            </Array>
          </mxGeometry>
        </mxCell>
        <mxCell id="2JAsxOmvKEnWSwmgY7Z6-283" value="Dependency" style="resizable=0;html=1;align=center;verticalAlign=top;labelBackgroundColor=none;rounded=0;fontSize=18;fontColor=none;" connectable="0" vertex="1" parent="2JAsxOmvKEnWSwmgY7Z6-282">
          <mxGeometry relative="1" as="geometry">
            <mxPoint x="-40" y="-30" as="offset" />
          </mxGeometry>
        </mxCell>
        <mxCell id="2JAsxOmvKEnWSwmgY7Z6-284" value="Creates" style="html=1;verticalAlign=bottom;labelBackgroundColor=none;endArrow=open;endFill=0;dashed=1;rounded=0;fontSize=18;fontColor=none;entryX=0;entryY=0.5;entryDx=0;entryDy=0;exitX=1;exitY=0.5;exitDx=0;exitDy=0;" edge="1" parent="1" source="2JAsxOmvKEnWSwmgY7Z6-350" target="2JAsxOmvKEnWSwmgY7Z6-354">
          <mxGeometry x="0.8059" y="-2" width="160" relative="1" as="geometry">
            <mxPoint x="1335.75" y="1714.5" as="sourcePoint" />
            <mxPoint x="1420" y="1714.5" as="targetPoint" />
            <mxPoint as="offset" />
          </mxGeometry>
        </mxCell>
        <mxCell id="2JAsxOmvKEnWSwmgY7Z6-285" value="" style="endArrow=open;html=1;rounded=0;align=center;verticalAlign=bottom;dashed=1;endFill=0;labelBackgroundColor=none;fontSize=18;fontColor=none;entryX=1;entryY=0.5;entryDx=0;entryDy=0;exitX=0.516;exitY=0.02;exitDx=0;exitDy=0;exitPerimeter=0;" edge="1" parent="1" source="2JAsxOmvKEnWSwmgY7Z6-209" target="2JAsxOmvKEnWSwmgY7Z6-353">
          <mxGeometry relative="1" as="geometry">
            <mxPoint x="1629.25" y="1782.9999999999998" as="sourcePoint" />
            <mxPoint x="1472.7499999999995" y="1730.5" as="targetPoint" />
            <Array as="points">
              <mxPoint x="1473" y="1748" />
            </Array>
          </mxGeometry>
        </mxCell>
        <mxCell id="2JAsxOmvKEnWSwmgY7Z6-286" value="Dependency" style="resizable=0;html=1;align=center;verticalAlign=top;labelBackgroundColor=none;rounded=0;fontSize=18;fontColor=none;" connectable="0" vertex="1" parent="2JAsxOmvKEnWSwmgY7Z6-285">
          <mxGeometry relative="1" as="geometry">
            <mxPoint x="-57" y="-4" as="offset" />
          </mxGeometry>
        </mxCell>
        <mxCell id="2JAsxOmvKEnWSwmgY7Z6-287" style="edgeStyle=orthogonalEdgeStyle;rounded=0;orthogonalLoop=1;jettySize=auto;html=1;exitX=0.25;exitY=0.5;exitDx=0;exitDy=0;exitPerimeter=0;fontSize=18;fontColor=none;entryX=0;entryY=0.5;entryDx=0;entryDy=0;" edge="1" parent="1" source="2JAsxOmvKEnWSwmgY7Z6-289" target="2JAsxOmvKEnWSwmgY7Z6-264">
          <mxGeometry relative="1" as="geometry">
            <mxPoint x="3512" y="1676" as="targetPoint" />
            <Array as="points">
              <mxPoint x="3476" y="1676" />
              <mxPoint x="3504" y="1676" />
            </Array>
          </mxGeometry>
        </mxCell>
        <mxCell id="2JAsxOmvKEnWSwmgY7Z6-288" style="edgeStyle=orthogonalEdgeStyle;rounded=0;orthogonalLoop=1;jettySize=auto;html=1;exitX=0.75;exitY=0.5;exitDx=0;exitDy=0;exitPerimeter=0;entryX=0;entryY=0.5;entryDx=0;entryDy=0;fontSize=18;fontColor=none;" edge="1" parent="1" source="2JAsxOmvKEnWSwmgY7Z6-289" target="2JAsxOmvKEnWSwmgY7Z6-268">
          <mxGeometry relative="1" as="geometry">
            <Array as="points">
              <mxPoint x="3476" y="1763" />
              <mxPoint x="3576" y="1763" />
            </Array>
          </mxGeometry>
        </mxCell>
        <mxCell id="2JAsxOmvKEnWSwmgY7Z6-289" value="" style="line;strokeWidth=2;direction=south;html=1;fontSize=14;" vertex="1" parent="1">
          <mxGeometry x="3386" y="1661.5" width="16" height="116" as="geometry" />
        </mxCell>
        <mxCell id="2JAsxOmvKEnWSwmgY7Z6-290" value="Passive Scan" style="rhombus;whiteSpace=wrap;html=1;fillColor=#b0e3e6;strokeColor=#0e8088;" vertex="1" parent="1">
          <mxGeometry x="2961" y="1584" width="159" height="41" as="geometry" />
        </mxCell>
        <mxCell id="2JAsxOmvKEnWSwmgY7Z6-291" value="Complete" style="edgeStyle=orthogonalEdgeStyle;rounded=0;orthogonalLoop=1;jettySize=auto;html=1;exitX=0.5;exitY=0;exitDx=0;exitDy=0;entryX=0.5;entryY=1;entryDx=0;entryDy=0;fontSize=14;" edge="1" parent="1" source="2JAsxOmvKEnWSwmgY7Z6-293" target="2JAsxOmvKEnWSwmgY7Z6-290">
          <mxGeometry relative="1" as="geometry" />
        </mxCell>
        <mxCell id="2JAsxOmvKEnWSwmgY7Z6-292" value="Fail" style="edgeStyle=orthogonalEdgeStyle;rounded=0;orthogonalLoop=1;jettySize=auto;html=1;exitX=0;exitY=0.5;exitDx=0;exitDy=0;fontSize=14;" edge="1" parent="1" source="2JAsxOmvKEnWSwmgY7Z6-293" target="2JAsxOmvKEnWSwmgY7Z6-300">
          <mxGeometry x="-0.813" y="-2" relative="1" as="geometry">
            <mxPoint x="2854.6363636363635" y="1581.8181818181818" as="targetPoint" />
            <Array as="points">
              <mxPoint x="2927" y="1681" />
              <mxPoint x="2927" y="1579" />
            </Array>
            <mxPoint as="offset" />
          </mxGeometry>
        </mxCell>
        <mxCell id="2JAsxOmvKEnWSwmgY7Z6-293" value="Fuzz Scan" style="rhombus;whiteSpace=wrap;html=1;fillColor=#b0e3e6;strokeColor=#0e8088;" vertex="1" parent="1">
          <mxGeometry x="2962.5" y="1658.5" width="156" height="45" as="geometry" />
        </mxCell>
        <mxCell id="2JAsxOmvKEnWSwmgY7Z6-294" value="Complete" style="edgeStyle=orthogonalEdgeStyle;rounded=0;orthogonalLoop=1;jettySize=auto;html=1;entryX=0.5;entryY=1;entryDx=0;entryDy=0;fontSize=14;" edge="1" parent="1" source="2JAsxOmvKEnWSwmgY7Z6-296" target="2JAsxOmvKEnWSwmgY7Z6-293">
          <mxGeometry x="0.2292" relative="1" as="geometry">
            <mxPoint x="3040.4999999999995" y="1735.5" as="sourcePoint" />
            <mxPoint x="3040.4999999999995" y="1703.5" as="targetPoint" />
            <mxPoint as="offset" />
          </mxGeometry>
        </mxCell>
        <mxCell id="2JAsxOmvKEnWSwmgY7Z6-295" value="Fail" style="edgeStyle=orthogonalEdgeStyle;rounded=0;orthogonalLoop=1;jettySize=auto;html=1;exitX=0;exitY=0.5;exitDx=0;exitDy=0;fontSize=14;entryX=0.772;entryY=0.958;entryDx=0;entryDy=0;entryPerimeter=0;" edge="1" parent="1" source="2JAsxOmvKEnWSwmgY7Z6-296" target="2JAsxOmvKEnWSwmgY7Z6-300">
          <mxGeometry x="-0.8699" y="-1" relative="1" as="geometry">
            <mxPoint x="2851.9090909090905" y="1592.7272727272727" as="targetPoint" />
            <Array as="points">
              <mxPoint x="2923" y="1759" />
              <mxPoint x="2923" y="1587" />
              <mxPoint x="2853" y="1587" />
            </Array>
            <mxPoint as="offset" />
          </mxGeometry>
        </mxCell>
        <mxCell id="2JAsxOmvKEnWSwmgY7Z6-296" value="API Scan" style="rhombus;whiteSpace=wrap;html=1;fillColor=#b0e3e6;strokeColor=#0e8088;" vertex="1" parent="1">
          <mxGeometry x="2962" y="1735.5" width="157" height="47.5" as="geometry" />
        </mxCell>
        <mxCell id="2JAsxOmvKEnWSwmgY7Z6-297" style="edgeStyle=orthogonalEdgeStyle;rounded=0;orthogonalLoop=1;jettySize=auto;html=1;exitX=1;exitY=0.5;exitDx=0;exitDy=0;entryX=0.498;entryY=0.6;entryDx=0;entryDy=0;entryPerimeter=0;" edge="1" parent="1" source="2JAsxOmvKEnWSwmgY7Z6-298" target="2JAsxOmvKEnWSwmgY7Z6-325">
          <mxGeometry relative="1" as="geometry" />
        </mxCell>
        <mxCell id="2JAsxOmvKEnWSwmgY7Z6-298" value="Release tgz created" style="rounded=1;whiteSpace=wrap;html=1;" vertex="1" parent="1">
          <mxGeometry x="2543" y="1947.75" width="134" height="32" as="geometry" />
        </mxCell>
        <mxCell id="2JAsxOmvKEnWSwmgY7Z6-299" style="edgeStyle=orthogonalEdgeStyle;rounded=0;orthogonalLoop=1;jettySize=auto;html=1;exitX=0.5;exitY=0;exitDx=0;exitDy=0;entryX=0.5;entryY=0;entryDx=0;entryDy=0;" edge="1" parent="1" source="2JAsxOmvKEnWSwmgY7Z6-300" target="2JAsxOmvKEnWSwmgY7Z6-316">
          <mxGeometry relative="1" as="geometry">
            <Array as="points">
              <mxPoint x="2846" y="1337" />
              <mxPoint x="2577" y="1337" />
            </Array>
          </mxGeometry>
        </mxCell>
        <mxCell id="2JAsxOmvKEnWSwmgY7Z6-300" value="" style="shape=ellipse;html=1;fillColor=strokeColor;fontSize=18;fontColor=#ffffff;" vertex="1" parent="1">
          <mxGeometry x="2836" y="1568.5" width="20" height="19" as="geometry" />
        </mxCell>
        <mxCell id="2JAsxOmvKEnWSwmgY7Z6-301" value="Nessus" style="rhombus;whiteSpace=wrap;html=1;fillColor=#b0e3e6;strokeColor=#0e8088;" vertex="1" parent="1">
          <mxGeometry x="2776.5" y="1984" width="139" height="46" as="geometry" />
        </mxCell>
        <mxCell id="2JAsxOmvKEnWSwmgY7Z6-302" style="edgeStyle=orthogonalEdgeStyle;rounded=0;orthogonalLoop=1;jettySize=auto;html=1;exitX=0.25;exitY=0.5;exitDx=0;exitDy=0;exitPerimeter=0;entryX=0;entryY=0.5;entryDx=0;entryDy=0;" edge="1" parent="1" source="2JAsxOmvKEnWSwmgY7Z6-304" target="2JAsxOmvKEnWSwmgY7Z6-311">
          <mxGeometry relative="1" as="geometry">
            <Array as="points">
              <mxPoint x="220" y="1515" />
            </Array>
          </mxGeometry>
        </mxCell>
        <mxCell id="2JAsxOmvKEnWSwmgY7Z6-303" style="edgeStyle=orthogonalEdgeStyle;rounded=0;orthogonalLoop=1;jettySize=auto;html=1;exitX=0.932;exitY=0.513;exitDx=0;exitDy=0;exitPerimeter=0;" edge="1" parent="1" source="2JAsxOmvKEnWSwmgY7Z6-304" target="2JAsxOmvKEnWSwmgY7Z6-204">
          <mxGeometry relative="1" as="geometry">
            <Array as="points">
              <mxPoint x="220" y="1843" />
            </Array>
          </mxGeometry>
        </mxCell>
        <mxCell id="2JAsxOmvKEnWSwmgY7Z6-304" value="" style="line;strokeWidth=2;direction=south;html=1;fontSize=14;" vertex="1" parent="1">
          <mxGeometry x="215" y="1485" width="10" height="390" as="geometry" />
        </mxCell>
        <mxCell id="2JAsxOmvKEnWSwmgY7Z6-305" style="edgeStyle=orthogonalEdgeStyle;rounded=0;orthogonalLoop=1;jettySize=auto;html=1;exitX=0.115;exitY=0.495;exitDx=0;exitDy=0;exitPerimeter=0;entryX=0;entryY=0.5;entryDx=0;entryDy=0;" edge="1" parent="1" source="2JAsxOmvKEnWSwmgY7Z6-308" target="2JAsxOmvKEnWSwmgY7Z6-190">
          <mxGeometry relative="1" as="geometry">
            <Array as="points">
              <mxPoint x="450" y="1304" />
            </Array>
          </mxGeometry>
        </mxCell>
        <mxCell id="2JAsxOmvKEnWSwmgY7Z6-306" style="edgeStyle=orthogonalEdgeStyle;rounded=0;orthogonalLoop=1;jettySize=auto;html=1;exitX=0.438;exitY=0.541;exitDx=0;exitDy=0;exitPerimeter=0;entryX=-0.007;entryY=0.5;entryDx=0;entryDy=0;entryPerimeter=0;" edge="1" parent="1" source="2JAsxOmvKEnWSwmgY7Z6-308" target="2JAsxOmvKEnWSwmgY7Z6-195">
          <mxGeometry relative="1" as="geometry">
            <Array as="points">
              <mxPoint x="450" y="1430" />
            </Array>
          </mxGeometry>
        </mxCell>
        <mxCell id="2JAsxOmvKEnWSwmgY7Z6-307" style="edgeStyle=orthogonalEdgeStyle;rounded=0;orthogonalLoop=1;jettySize=auto;html=1;exitX=0.75;exitY=0.5;exitDx=0;exitDy=0;exitPerimeter=0;" edge="1" parent="1" source="2JAsxOmvKEnWSwmgY7Z6-308">
          <mxGeometry relative="1" as="geometry">
            <mxPoint x="501" y="1545" as="targetPoint" />
            <Array as="points">
              <mxPoint x="450" y="1545" />
            </Array>
          </mxGeometry>
        </mxCell>
        <mxCell id="2JAsxOmvKEnWSwmgY7Z6-308" value="" style="line;strokeWidth=2;direction=south;html=1;fontSize=14;" vertex="1" parent="1">
          <mxGeometry x="445" y="1259" width="10" height="450" as="geometry" />
        </mxCell>
        <mxCell id="2JAsxOmvKEnWSwmgY7Z6-309" value="Yes" style="edgeStyle=orthogonalEdgeStyle;rounded=0;orthogonalLoop=1;jettySize=auto;html=1;exitX=1;exitY=0.5;exitDx=0;exitDy=0;entryX=0.437;entryY=0.65;entryDx=0;entryDy=0;entryPerimeter=0;" edge="1" parent="1">
          <mxGeometry x="-0.2545" y="2" relative="1" as="geometry">
            <mxPoint x="414" y="1514.75" as="sourcePoint" />
            <mxPoint x="448.5" y="1514.4300000000003" as="targetPoint" />
            <mxPoint as="offset" />
          </mxGeometry>
        </mxCell>
        <mxCell id="2JAsxOmvKEnWSwmgY7Z6-310" value="No" style="edgeStyle=orthogonalEdgeStyle;rounded=0;orthogonalLoop=1;jettySize=auto;html=1;exitX=0.5;exitY=1;exitDx=0;exitDy=0;entryX=0;entryY=0.5;entryDx=0;entryDy=0;" edge="1" parent="1" source="2JAsxOmvKEnWSwmgY7Z6-311" target="2JAsxOmvKEnWSwmgY7Z6-313">
          <mxGeometry x="-0.1949" relative="1" as="geometry">
            <mxPoint as="offset" />
          </mxGeometry>
        </mxCell>
        <mxCell id="2JAsxOmvKEnWSwmgY7Z6-311" value="Is TitanSim&lt;br&gt;development needed?" style="rhombus;whiteSpace=wrap;html=1;" vertex="1" parent="1">
          <mxGeometry x="256" y="1472" width="158" height="85.5" as="geometry" />
        </mxCell>
        <mxCell id="2JAsxOmvKEnWSwmgY7Z6-312" style="edgeStyle=orthogonalEdgeStyle;rounded=0;orthogonalLoop=1;jettySize=auto;html=1;exitX=0.5;exitY=1;exitDx=0;exitDy=0;entryX=0.25;entryY=0.5;entryDx=0;entryDy=0;entryPerimeter=0;" edge="1" parent="1" source="2JAsxOmvKEnWSwmgY7Z6-313" target="2JAsxOmvKEnWSwmgY7Z6-208">
          <mxGeometry relative="1" as="geometry" />
        </mxCell>
        <mxCell id="2JAsxOmvKEnWSwmgY7Z6-313" value="" style="shape=ellipse;html=1;fillColor=strokeColor;fontSize=18;fontColor=#ffffff;" vertex="1" parent="1">
          <mxGeometry x="1112" y="1777" width="20" height="19" as="geometry" />
        </mxCell>
        <mxCell id="2JAsxOmvKEnWSwmgY7Z6-314" value="No" style="edgeStyle=orthogonalEdgeStyle;rounded=0;orthogonalLoop=1;jettySize=auto;html=1;exitX=0.5;exitY=1;exitDx=0;exitDy=0;fontSize=14;entryX=0;entryY=0.5;entryDx=0;entryDy=0;" edge="1" parent="1" source="2JAsxOmvKEnWSwmgY7Z6-316" target="2JAsxOmvKEnWSwmgY7Z6-320">
          <mxGeometry x="-0.3554" relative="1" as="geometry">
            <mxPoint x="3447" y="1403" as="targetPoint" />
            <mxPoint as="offset" />
            <Array as="points">
              <mxPoint x="2577" y="1450" />
              <mxPoint x="2577" y="1483" />
            </Array>
          </mxGeometry>
        </mxCell>
        <mxCell id="2JAsxOmvKEnWSwmgY7Z6-315" value="Yes" style="edgeStyle=orthogonalEdgeStyle;rounded=0;orthogonalLoop=1;jettySize=auto;html=1;exitX=1;exitY=0.5;exitDx=0;exitDy=0;entryX=0;entryY=0.5;entryDx=0;entryDy=0;fontSize=14;" edge="1" parent="1" source="2JAsxOmvKEnWSwmgY7Z6-316" target="2JAsxOmvKEnWSwmgY7Z6-318">
          <mxGeometry x="-0.2558" y="3" relative="1" as="geometry">
            <Array as="points">
              <mxPoint x="2698" y="1404" />
              <mxPoint x="2700" y="1404" />
            </Array>
            <mxPoint y="1" as="offset" />
          </mxGeometry>
        </mxCell>
        <mxCell id="2JAsxOmvKEnWSwmgY7Z6-316" value="Is release code&lt;br&gt;development needed?" style="rhombus;whiteSpace=wrap;html=1;" vertex="1" parent="1">
          <mxGeometry x="2499" y="1357" width="156" height="93" as="geometry" />
        </mxCell>
        <mxCell id="2JAsxOmvKEnWSwmgY7Z6-317" style="edgeStyle=orthogonalEdgeStyle;rounded=0;orthogonalLoop=1;jettySize=auto;html=1;exitX=0.5;exitY=1;exitDx=0;exitDy=0;fontSize=14;entryX=1;entryY=0.5;entryDx=0;entryDy=0;" edge="1" parent="1" source="2JAsxOmvKEnWSwmgY7Z6-318" target="2JAsxOmvKEnWSwmgY7Z6-320">
          <mxGeometry relative="1" as="geometry">
            <mxPoint x="3442" y="1479" as="targetPoint" />
            <Array as="points">
              <mxPoint x="2766" y="1483" />
            </Array>
          </mxGeometry>
        </mxCell>
        <mxCell id="2JAsxOmvKEnWSwmgY7Z6-318" value="Release script feature implementation" style="rounded=1;whiteSpace=wrap;html=1;fillColor=#b1ddf0;strokeColor=#10739e;" vertex="1" parent="1">
          <mxGeometry x="2700" y="1387.5" width="132" height="32" as="geometry" />
        </mxCell>
        <mxCell id="2JAsxOmvKEnWSwmgY7Z6-319" style="edgeStyle=orthogonalEdgeStyle;rounded=0;orthogonalLoop=1;jettySize=auto;html=1;exitX=0.5;exitY=1;exitDx=0;exitDy=0;entryX=0.5;entryY=0;entryDx=0;entryDy=0;" edge="1" parent="1" source="2JAsxOmvKEnWSwmgY7Z6-320" target="2JAsxOmvKEnWSwmgY7Z6-244">
          <mxGeometry relative="1" as="geometry">
            <mxPoint x="2674.764" y="1530.098" as="targetPoint" />
          </mxGeometry>
        </mxCell>
        <mxCell id="2JAsxOmvKEnWSwmgY7Z6-320" value="" style="shape=ellipse;html=1;fillColor=strokeColor;fontSize=18;fontColor=#ffffff;" vertex="1" parent="1">
          <mxGeometry x="2600" y="1473" width="20" height="19" as="geometry" />
        </mxCell>
        <mxCell id="2JAsxOmvKEnWSwmgY7Z6-321" value="" style="rhombus;whiteSpace=wrap;html=1;" vertex="1" parent="1">
          <mxGeometry x="88" y="1662" width="25" height="24" as="geometry" />
        </mxCell>
        <mxCell id="2JAsxOmvKEnWSwmgY7Z6-322" value="" style="edgeStyle=orthogonalEdgeStyle;rounded=0;orthogonalLoop=1;jettySize=auto;html=1;exitX=0.5;exitY=1;exitDx=0;exitDy=0;entryX=0.5;entryY=0;entryDx=0;entryDy=0;endArrow=none;" edge="1" parent="1" source="2JAsxOmvKEnWSwmgY7Z6-181" target="2JAsxOmvKEnWSwmgY7Z6-321">
          <mxGeometry relative="1" as="geometry">
            <mxPoint x="100.5" y="1594.5" as="sourcePoint" />
            <mxPoint x="100.5" y="1764" as="targetPoint" />
          </mxGeometry>
        </mxCell>
        <mxCell id="2JAsxOmvKEnWSwmgY7Z6-323" style="edgeStyle=orthogonalEdgeStyle;rounded=0;orthogonalLoop=1;jettySize=auto;html=1;exitX=0.25;exitY=0.5;exitDx=0;exitDy=0;exitPerimeter=0;entryX=0;entryY=0.5;entryDx=0;entryDy=0;fontSize=14;" edge="1" parent="1" source="2JAsxOmvKEnWSwmgY7Z6-325" target="2JAsxOmvKEnWSwmgY7Z6-253">
          <mxGeometry relative="1" as="geometry">
            <Array as="points">
              <mxPoint x="2727" y="1919" />
            </Array>
          </mxGeometry>
        </mxCell>
        <mxCell id="2JAsxOmvKEnWSwmgY7Z6-324" style="edgeStyle=orthogonalEdgeStyle;rounded=0;orthogonalLoop=1;jettySize=auto;html=1;exitX=0.75;exitY=0.5;exitDx=0;exitDy=0;exitPerimeter=0;entryX=0;entryY=0.5;entryDx=0;entryDy=0;fontSize=14;" edge="1" parent="1" source="2JAsxOmvKEnWSwmgY7Z6-325" target="2JAsxOmvKEnWSwmgY7Z6-301">
          <mxGeometry relative="1" as="geometry">
            <Array as="points">
              <mxPoint x="2727" y="2007" />
            </Array>
          </mxGeometry>
        </mxCell>
        <mxCell id="2JAsxOmvKEnWSwmgY7Z6-325" value="" style="line;strokeWidth=2;direction=south;html=1;fontSize=14;" vertex="1" parent="1">
          <mxGeometry x="2719" y="1906" width="16" height="116" as="geometry" />
        </mxCell>
        <mxCell id="2JAsxOmvKEnWSwmgY7Z6-326" value="" style="ellipse;html=1;shape=endState;fillColor=#000000;strokeColor=#ff0000;fontSize=14;" vertex="1" parent="1">
          <mxGeometry x="3132" y="1394" width="30" height="30" as="geometry" />
        </mxCell>
        <mxCell id="2JAsxOmvKEnWSwmgY7Z6-327" value="" style="ellipse;html=1;shape=endState;fillColor=#000000;strokeColor=#ff0000;fontSize=14;" vertex="1" parent="1">
          <mxGeometry x="4056.75" y="1601" width="30" height="30" as="geometry" />
        </mxCell>
        <mxCell id="2JAsxOmvKEnWSwmgY7Z6-328" value="Legend (in addition to UML2 state chart objects)" style="rounded=0;html=1;align=left;horizontal=1;verticalAlign=top;whiteSpace=wrap;fontSize=18;" vertex="1" parent="1">
          <mxGeometry x="3869" y="1182" width="235" height="334" as="geometry" />
        </mxCell>
        <mxCell id="2JAsxOmvKEnWSwmgY7Z6-329" value="Development activity" style="rounded=1;whiteSpace=wrap;html=1;fillColor=#b1ddf0;strokeColor=#10739e;" vertex="1" parent="1">
          <mxGeometry x="3921" y="1247" width="132" height="32" as="geometry" />
        </mxCell>
        <mxCell id="2JAsxOmvKEnWSwmgY7Z6-330" value="Testing activity" style="rhombus;whiteSpace=wrap;html=1;fillColor=#b0e3e6;strokeColor=#0e8088;" vertex="1" parent="1">
          <mxGeometry x="3909" y="1343.5" width="156" height="45" as="geometry" />
        </mxCell>
        <mxCell id="2JAsxOmvKEnWSwmgY7Z6-331" value="Product resource" style="rounded=1;whiteSpace=wrap;html=1;fillColor=#60a917;fontColor=#ffffff;strokeColor=#2D7600;" vertex="1" parent="1">
          <mxGeometry x="3934.25" y="1408.5" width="105.5" height="32" as="geometry" />
        </mxCell>
        <mxCell id="2JAsxOmvKEnWSwmgY7Z6-332" value="Problematic development activity / dependency" style="rounded=1;whiteSpace=wrap;html=1;fillColor=#e51400;fontColor=#ffffff;strokeColor=#B20000;" vertex="1" parent="1">
          <mxGeometry x="3913" y="1297" width="147" height="32" as="geometry" />
        </mxCell>
        <mxCell id="2JAsxOmvKEnWSwmgY7Z6-333" value="Modifications of the image (deletions, uninstalls, settings)" style="rounded=1;whiteSpace=wrap;html=1;" vertex="1" parent="1">
          <mxGeometry x="2544" y="1833" width="132" height="46" as="geometry" />
        </mxCell>
        <mxCell id="2JAsxOmvKEnWSwmgY7Z6-334" value="" style="endArrow=none;dashed=1;html=1;dashPattern=1 3;strokeWidth=2;rounded=0;fontSize=14;exitX=1;exitY=0.5;exitDx=0;exitDy=0;" edge="1" parent="1">
          <mxGeometry width="50" height="50" relative="1" as="geometry">
            <mxPoint x="2915.5" y="2007" as="sourcePoint" />
            <mxPoint x="2942" y="2007" as="targetPoint" />
          </mxGeometry>
        </mxCell>
        <mxCell id="2JAsxOmvKEnWSwmgY7Z6-335" style="edgeStyle=orthogonalEdgeStyle;rounded=0;orthogonalLoop=1;jettySize=auto;html=1;exitX=0.25;exitY=0.5;exitDx=0;exitDy=0;exitPerimeter=0;entryX=0.5;entryY=1;entryDx=0;entryDy=0;fontSize=14;" edge="1" parent="1" source="2JAsxOmvKEnWSwmgY7Z6-336" target="2JAsxOmvKEnWSwmgY7Z6-296">
          <mxGeometry relative="1" as="geometry">
            <Array as="points">
              <mxPoint x="2991" y="1964" />
              <mxPoint x="3040" y="1964" />
              <mxPoint x="3040" y="1845" />
              <mxPoint x="3041" y="1845" />
            </Array>
          </mxGeometry>
        </mxCell>
        <mxCell id="2JAsxOmvKEnWSwmgY7Z6-336" value="" style="line;strokeWidth=2;direction=south;html=1;fontSize=14;" vertex="1" parent="1">
          <mxGeometry x="2983" y="1906" width="16" height="116" as="geometry" />
        </mxCell>
        <mxCell id="2JAsxOmvKEnWSwmgY7Z6-337" value="Could be detailed" style="rhombus;whiteSpace=wrap;html=1;strokeColor=#000066;strokeWidth=4;" vertex="1" parent="1">
          <mxGeometry x="3920" y="1457" width="133" height="38" as="geometry" />
        </mxCell>
        <mxCell id="2JAsxOmvKEnWSwmgY7Z6-338" value="&lt;font style=&quot;&quot;&gt;&lt;font style=&quot;font-size: 22px;&quot;&gt;Note: UML2 state chart mostly (Choices are used as states, possibly having multiple inputs + synchronization objects are handled specially)&lt;/font&gt;&lt;/font&gt;" style="rounded=0;html=1;align=left;horizontal=1;verticalAlign=top;whiteSpace=wrap;fontSize=18;strokeColor=none;" vertex="1" parent="1">
          <mxGeometry x="27" y="2190" width="562" height="88" as="geometry" />
        </mxCell>
        <mxCell id="2JAsxOmvKEnWSwmgY7Z6-339" value="Environment, deep &lt;br&gt;IMS knowledge" style="rounded=1;whiteSpace=wrap;html=1;fillColor=#b1ddf0;strokeColor=#10739e;" vertex="1" parent="1">
          <mxGeometry x="3799" y="1904.24" width="136" height="38.38" as="geometry" />
        </mxCell>
        <mxCell id="2JAsxOmvKEnWSwmgY7Z6-340" value="" style="endArrow=open;html=1;rounded=0;align=center;verticalAlign=bottom;dashed=1;endFill=0;labelBackgroundColor=none;fontSize=18;fontColor=none;entryX=0.5;entryY=0;entryDx=0;entryDy=0;exitX=1;exitY=1;exitDx=0;exitDy=0;" edge="1" parent="1" source="2JAsxOmvKEnWSwmgY7Z6-268" target="2JAsxOmvKEnWSwmgY7Z6-339">
          <mxGeometry relative="1" as="geometry">
            <mxPoint x="3730.5" y="1808.1249999999998" as="sourcePoint" />
            <mxPoint x="3427.5" y="1867" as="targetPoint" />
            <Array as="points">
              <mxPoint x="3868" y="1798" />
            </Array>
          </mxGeometry>
        </mxCell>
        <mxCell id="2JAsxOmvKEnWSwmgY7Z6-341" value="Dependency" style="resizable=0;html=1;align=center;verticalAlign=top;labelBackgroundColor=none;rounded=0;fontSize=18;fontColor=none;" connectable="0" vertex="1" parent="2JAsxOmvKEnWSwmgY7Z6-340">
          <mxGeometry relative="1" as="geometry">
            <mxPoint x="2" y="32" as="offset" />
          </mxGeometry>
        </mxCell>
        <mxCell id="2JAsxOmvKEnWSwmgY7Z6-342" value="Creates" style="html=1;verticalAlign=bottom;labelBackgroundColor=none;endArrow=open;endFill=0;dashed=1;rounded=0;fontSize=18;fontColor=none;exitX=0.5;exitY=1;exitDx=0;exitDy=0;entryX=0.5;entryY=0;entryDx=0;entryDy=0;" edge="1" parent="1" source="2JAsxOmvKEnWSwmgY7Z6-352" target="2JAsxOmvKEnWSwmgY7Z6-353">
          <mxGeometry x="1" y="-36" width="160" relative="1" as="geometry">
            <mxPoint x="1340" y="1584.58" as="sourcePoint" />
            <mxPoint x="1418" y="1585" as="targetPoint" />
            <mxPoint as="offset" />
          </mxGeometry>
        </mxCell>
        <mxCell id="2JAsxOmvKEnWSwmgY7Z6-345" style="edgeStyle=orthogonalEdgeStyle;rounded=0;orthogonalLoop=1;jettySize=auto;html=1;exitX=0.25;exitY=0.5;exitDx=0;exitDy=0;exitPerimeter=0;entryX=0;entryY=0.75;entryDx=0;entryDy=0;fontSize=17;" edge="1" parent="1" source="2JAsxOmvKEnWSwmgY7Z6-347" target="2JAsxOmvKEnWSwmgY7Z6-206">
          <mxGeometry relative="1" as="geometry" />
        </mxCell>
        <mxCell id="2JAsxOmvKEnWSwmgY7Z6-346" style="edgeStyle=orthogonalEdgeStyle;rounded=0;orthogonalLoop=1;jettySize=auto;html=1;exitX=0.75;exitY=0.5;exitDx=0;exitDy=0;exitPerimeter=0;entryX=0;entryY=0.5;entryDx=0;entryDy=0;fontSize=17;" edge="1" parent="1" source="2JAsxOmvKEnWSwmgY7Z6-347" target="2JAsxOmvKEnWSwmgY7Z6-349">
          <mxGeometry relative="1" as="geometry" />
        </mxCell>
        <mxCell id="2JAsxOmvKEnWSwmgY7Z6-347" value="" style="line;strokeWidth=2;direction=south;html=1;fontSize=14;" vertex="1" parent="1">
          <mxGeometry x="502" y="2006" width="16" height="116" as="geometry" />
        </mxCell>
        <mxCell id="2JAsxOmvKEnWSwmgY7Z6-349" value="CPI update" style="rounded=1;whiteSpace=wrap;html=1;fillColor=#b1ddf0;strokeColor=#000066;strokeWidth=4;" vertex="1" parent="1">
          <mxGeometry x="722" y="2178" width="105.5" height="34" as="geometry" />
        </mxCell>
        <mxCell id="2JAsxOmvKEnWSwmgY7Z6-350" value="Delivery creation process, doc update" style="rounded=0;html=1;align=center;horizontal=1;verticalAlign=top;whiteSpace=wrap;fontSize=14;strokeColor=#000066;strokeWidth=4;" vertex="1" parent="1">
          <mxGeometry x="1417.75" y="1552.75" width="117" height="61.5" as="geometry" />
        </mxCell>
        <mxCell id="2JAsxOmvKEnWSwmgY7Z6-351" style="edgeStyle=orthogonalEdgeStyle;rounded=0;orthogonalLoop=1;jettySize=auto;html=1;exitX=1;exitY=0.5;exitDx=0;exitDy=0;entryX=0;entryY=0.5;entryDx=0;entryDy=0;fontSize=17;" edge="1" parent="1" source="2JAsxOmvKEnWSwmgY7Z6-352" target="2JAsxOmvKEnWSwmgY7Z6-350">
          <mxGeometry relative="1" as="geometry" />
        </mxCell>
        <mxCell id="2JAsxOmvKEnWSwmgY7Z6-352" value="Adapter config&amp;nbsp; template creation" style="rounded=1;whiteSpace=wrap;html=1;fillColor=#b1ddf0;strokeColor=#10739e;" vertex="1" parent="1">
          <mxGeometry x="1230.25" y="1567.5" width="105.5" height="32" as="geometry" />
        </mxCell>
        <mxCell id="2JAsxOmvKEnWSwmgY7Z6-353" value="Config templates" style="rounded=1;whiteSpace=wrap;html=1;fillColor=#60a917;fontColor=#ffffff;strokeColor=#2D7600;" vertex="1" parent="1">
          <mxGeometry x="1230.25" y="1732" width="105.5" height="32" as="geometry" />
        </mxCell>
        <mxCell id="2JAsxOmvKEnWSwmgY7Z6-402" style="edgeStyle=orthogonalEdgeStyle;rounded=0;orthogonalLoop=1;jettySize=auto;html=1;exitX=1;exitY=0.25;exitDx=0;exitDy=0;entryX=0.889;entryY=0.425;entryDx=0;entryDy=0;entryPerimeter=0;fontSize=17;" edge="1" parent="1" source="2JAsxOmvKEnWSwmgY7Z6-350" target="2JAsxOmvKEnWSwmgY7Z6-401">
          <mxGeometry relative="1" as="geometry">
            <Array as="points">
              <mxPoint x="1535" y="1558" />
              <mxPoint x="1995" y="1558" />
            </Array>
          </mxGeometry>
        </mxCell>
        <mxCell id="2JAsxOmvKEnWSwmgY7Z6-354" value="TS delivery" style="rounded=1;whiteSpace=wrap;html=1;fillColor=#60a917;fontColor=#ffffff;strokeColor=#2D7600;" vertex="1" parent="1">
          <mxGeometry x="1969" y="1567.5" width="105.5" height="32" as="geometry" />
        </mxCell>
        <mxCell id="2JAsxOmvKEnWSwmgY7Z6-355" value="Do we have CI test &lt;br&gt;for the feature?" style="rhombus;whiteSpace=wrap;html=1;" vertex="1" parent="1">
          <mxGeometry x="502" y="1635" width="210" height="39.5" as="geometry" />
        </mxCell>
        <mxCell id="2JAsxOmvKEnWSwmgY7Z6-356" value="Yes" style="edgeStyle=orthogonalEdgeStyle;rounded=0;orthogonalLoop=1;jettySize=auto;html=1;exitX=1;exitY=0.5;exitDx=0;exitDy=0;entryX=0.5;entryY=0;entryDx=0;entryDy=0;fontSize=14;" edge="1" parent="1" target="2JAsxOmvKEnWSwmgY7Z6-361">
          <mxGeometry relative="1" as="geometry">
            <mxPoint x="713" y="1654.75" as="sourcePoint" />
            <mxPoint x="901" y="1653.98" as="targetPoint" />
          </mxGeometry>
        </mxCell>
        <mxCell id="2JAsxOmvKEnWSwmgY7Z6-357" value="No" style="edgeStyle=orthogonalEdgeStyle;rounded=0;orthogonalLoop=1;jettySize=auto;html=1;exitX=0.5;exitY=1;exitDx=0;exitDy=0;fontSize=14;entryX=0;entryY=0.5;entryDx=0;entryDy=0;" edge="1" parent="1" target="2JAsxOmvKEnWSwmgY7Z6-359">
          <mxGeometry x="0.3333" relative="1" as="geometry">
            <mxPoint x="608" y="1674.5" as="sourcePoint" />
            <mxPoint x="696" y="1702" as="targetPoint" />
            <Array as="points">
              <mxPoint x="608" y="1723" />
            </Array>
            <mxPoint as="offset" />
          </mxGeometry>
        </mxCell>
        <mxCell id="2JAsxOmvKEnWSwmgY7Z6-358" style="edgeStyle=orthogonalEdgeStyle;rounded=0;orthogonalLoop=1;jettySize=auto;html=1;exitX=1;exitY=0.5;exitDx=0;exitDy=0;entryX=0.5;entryY=1;entryDx=0;entryDy=0;fontSize=14;" edge="1" parent="1" source="2JAsxOmvKEnWSwmgY7Z6-359" target="2JAsxOmvKEnWSwmgY7Z6-361">
          <mxGeometry relative="1" as="geometry">
            <mxPoint x="902" y="1723.0100000000002" as="targetPoint" />
            <Array as="points">
              <mxPoint x="820" y="1715" />
              <mxPoint x="864" y="1715" />
            </Array>
          </mxGeometry>
        </mxCell>
        <mxCell id="2JAsxOmvKEnWSwmgY7Z6-359" value="CI test creation" style="rounded=1;whiteSpace=wrap;html=1;fillColor=#b1ddf0;strokeColor=#10739e;strokeWidth=1;" vertex="1" parent="1">
          <mxGeometry x="714.25" y="1707" width="105.5" height="32" as="geometry" />
        </mxCell>
        <mxCell id="2JAsxOmvKEnWSwmgY7Z6-360" style="edgeStyle=orthogonalEdgeStyle;rounded=0;orthogonalLoop=1;jettySize=auto;html=1;exitX=1;exitY=0.5;exitDx=0;exitDy=0;fontSize=14;entryX=0.188;entryY=0.608;entryDx=0;entryDy=0;entryPerimeter=0;" edge="1" parent="1" source="2JAsxOmvKEnWSwmgY7Z6-361">
          <mxGeometry relative="1" as="geometry">
            <mxPoint x="1121.92" y="1683.3199999999997" as="targetPoint" />
          </mxGeometry>
        </mxCell>
        <mxCell id="2JAsxOmvKEnWSwmgY7Z6-361" value="" style="shape=ellipse;html=1;fillColor=strokeColor;fontSize=18;fontColor=#ffffff;" vertex="1" parent="1">
          <mxGeometry x="854" y="1674.5" width="20" height="19" as="geometry" />
        </mxCell>
        <mxCell id="2JAsxOmvKEnWSwmgY7Z6-362" style="edgeStyle=orthogonalEdgeStyle;rounded=0;orthogonalLoop=1;jettySize=auto;html=1;exitX=0.75;exitY=0.5;exitDx=0;exitDy=0;exitPerimeter=0;" edge="1" parent="1">
          <mxGeometry relative="1" as="geometry">
            <mxPoint x="450" y="1661.5" as="sourcePoint" />
            <mxPoint x="501" y="1655" as="targetPoint" />
            <Array as="points">
              <mxPoint x="450" y="1655" />
            </Array>
          </mxGeometry>
        </mxCell>
        <mxCell id="2JAsxOmvKEnWSwmgY7Z6-363" value="Environment for testing the feature" style="rounded=1;whiteSpace=wrap;html=1;fillColor=#60a917;fontColor=#ffffff;strokeColor=#FF0000;fillStyle=auto;strokeWidth=2;" vertex="1" parent="1">
          <mxGeometry x="970" y="1605" width="105.5" height="32" as="geometry" />
        </mxCell>
        <mxCell id="2JAsxOmvKEnWSwmgY7Z6-364" value="Feature CI test" style="rounded=1;whiteSpace=wrap;html=1;fillColor=#60a917;fontColor=#ffffff;strokeColor=#2D7600;" vertex="1" parent="1">
          <mxGeometry x="972" y="1735.5" width="105.5" height="32" as="geometry" />
        </mxCell>
        <mxCell id="2JAsxOmvKEnWSwmgY7Z6-365" value="" style="endArrow=open;html=1;rounded=0;align=center;verticalAlign=bottom;dashed=1;endFill=0;labelBackgroundColor=none;fontSize=18;fontColor=none;exitX=1;exitY=0.75;exitDx=0;exitDy=0;" edge="1" parent="1" source="2JAsxOmvKEnWSwmgY7Z6-229">
          <mxGeometry relative="1" as="geometry">
            <mxPoint x="1827" y="1708" as="sourcePoint" />
            <mxPoint x="969" y="1621" as="targetPoint" />
            <Array as="points" />
          </mxGeometry>
        </mxCell>
        <mxCell id="2JAsxOmvKEnWSwmgY7Z6-366" value="Creates" style="resizable=0;html=1;align=center;verticalAlign=top;labelBackgroundColor=none;rounded=0;fontSize=18;fontColor=none;" connectable="0" vertex="1" parent="2JAsxOmvKEnWSwmgY7Z6-365">
          <mxGeometry relative="1" as="geometry">
            <mxPoint x="41" y="-30" as="offset" />
          </mxGeometry>
        </mxCell>
        <mxCell id="2JAsxOmvKEnWSwmgY7Z6-367" value="" style="endArrow=open;html=1;rounded=0;align=center;verticalAlign=bottom;dashed=1;endFill=0;labelBackgroundColor=none;fontSize=18;fontColor=none;exitX=0.5;exitY=1;exitDx=0;exitDy=0;entryX=0;entryY=0.5;entryDx=0;entryDy=0;" edge="1" parent="1" source="2JAsxOmvKEnWSwmgY7Z6-359" target="2JAsxOmvKEnWSwmgY7Z6-364">
          <mxGeometry relative="1" as="geometry">
            <mxPoint x="820.7500000000005" y="1732" as="sourcePoint" />
            <mxPoint x="970" y="1732" as="targetPoint" />
            <Array as="points">
              <mxPoint x="767" y="1752" />
            </Array>
          </mxGeometry>
        </mxCell>
        <mxCell id="2JAsxOmvKEnWSwmgY7Z6-368" value="Creates" style="resizable=0;html=1;align=center;verticalAlign=top;labelBackgroundColor=none;rounded=0;fontSize=18;fontColor=none;" connectable="0" vertex="1" parent="2JAsxOmvKEnWSwmgY7Z6-367">
          <mxGeometry relative="1" as="geometry">
            <mxPoint x="72" y="-29" as="offset" />
          </mxGeometry>
        </mxCell>
        <mxCell id="2JAsxOmvKEnWSwmgY7Z6-369" value="" style="endArrow=open;html=1;rounded=0;align=center;verticalAlign=bottom;dashed=1;endFill=0;labelBackgroundColor=none;fontSize=18;fontColor=none;exitX=1;exitY=0.5;exitDx=0;exitDy=0;entryX=0.5;entryY=1;entryDx=0;entryDy=0;strokeColor=#FF0000;" edge="1" parent="1" source="2JAsxOmvKEnWSwmgY7Z6-359" target="2JAsxOmvKEnWSwmgY7Z6-363">
          <mxGeometry relative="1" as="geometry">
            <mxPoint x="830.7500000000009" y="1741.9999999999998" as="sourcePoint" />
            <mxPoint x="980" y="1741.9999999999998" as="targetPoint" />
            <Array as="points">
              <mxPoint x="1023" y="1723" />
            </Array>
          </mxGeometry>
        </mxCell>
        <mxCell id="2JAsxOmvKEnWSwmgY7Z6-370" value="&lt;font color=&quot;#ff0000&quot;&gt;Depends&lt;/font&gt;" style="resizable=0;html=1;align=center;verticalAlign=top;labelBackgroundColor=none;rounded=0;fontSize=18;fontColor=none;" connectable="0" vertex="1" parent="2JAsxOmvKEnWSwmgY7Z6-369">
          <mxGeometry relative="1" as="geometry">
            <mxPoint x="17" y="-88" as="offset" />
          </mxGeometry>
        </mxCell>
        <mxCell id="2JAsxOmvKEnWSwmgY7Z6-371" value="" style="endArrow=open;html=1;rounded=0;align=center;verticalAlign=bottom;dashed=1;endFill=0;labelBackgroundColor=none;fontSize=18;fontColor=none;exitX=0.5;exitY=0;exitDx=0;exitDy=0;entryX=1;entryY=0.5;entryDx=0;entryDy=0;strokeColor=#FF0000;" edge="1" parent="1" source="2JAsxOmvKEnWSwmgY7Z6-350" target="2JAsxOmvKEnWSwmgY7Z6-364">
          <mxGeometry relative="1" as="geometry">
            <mxPoint x="829.7500000000005" y="1732.9999999999998" as="sourcePoint" />
            <mxPoint x="1032.75" y="1647.0000000000002" as="targetPoint" />
            <Array as="points">
              <mxPoint x="1476" y="1534" />
              <mxPoint x="1164" y="1536" />
              <mxPoint x="1165" y="1752" />
            </Array>
          </mxGeometry>
        </mxCell>
        <mxCell id="2JAsxOmvKEnWSwmgY7Z6-372" value="&lt;font color=&quot;#ff0000&quot;&gt;Depends&lt;/font&gt;" style="resizable=0;html=1;align=center;verticalAlign=top;labelBackgroundColor=none;rounded=0;fontSize=18;fontColor=none;" connectable="0" vertex="1" parent="1">
          <mxGeometry x="1122" y="1723" as="geometry" />
        </mxCell>
        <mxCell id="2JAsxOmvKEnWSwmgY7Z6-373" value="" style="endArrow=classic;startArrow=classic;html=1;rounded=0;strokeColor=#000000;fontSize=18;exitX=0;exitY=0.5;exitDx=0;exitDy=0;dashed=1;" edge="1" parent="1" source="2JAsxOmvKEnWSwmgY7Z6-206">
          <mxGeometry width="50" height="50" relative="1" as="geometry">
            <mxPoint x="455" y="1875" as="sourcePoint" />
            <mxPoint x="712" y="1378" as="targetPoint" />
            <Array as="points">
              <mxPoint x="472" y="1917" />
              <mxPoint x="471" y="1381" />
            </Array>
          </mxGeometry>
        </mxCell>
        <mxCell id="2JAsxOmvKEnWSwmgY7Z6-374" value="Possible Inter dependency" style="resizable=0;html=1;align=center;verticalAlign=top;labelBackgroundColor=none;rounded=0;fontSize=18;fontColor=none;" connectable="0" vertex="1" parent="1">
          <mxGeometry x="654" y="1883" as="geometry">
            <mxPoint x="-42" y="1" as="offset" />
          </mxGeometry>
        </mxCell>
        <mxCell id="2JAsxOmvKEnWSwmgY7Z6-375" value="" style="endArrow=open;html=1;rounded=0;align=center;verticalAlign=bottom;dashed=1;endFill=0;labelBackgroundColor=none;fontSize=18;fontColor=none;exitX=0.263;exitY=0.76;exitDx=0;exitDy=0;entryX=0.25;entryY=0;entryDx=0;entryDy=0;strokeColor=#FF0000;exitPerimeter=0;" edge="1" parent="1" source="2JAsxOmvKEnWSwmgY7Z6-200" target="2JAsxOmvKEnWSwmgY7Z6-363">
          <mxGeometry relative="1" as="geometry">
            <mxPoint x="1236.75" y="1489.75" as="sourcePoint" />
            <mxPoint x="838" y="1688.5" as="targetPoint" />
            <Array as="points">
              <mxPoint x="1233" y="1474" />
              <mxPoint x="996" y="1475" />
            </Array>
          </mxGeometry>
        </mxCell>
        <mxCell id="2JAsxOmvKEnWSwmgY7Z6-376" value="&lt;font color=&quot;#ff0000&quot;&gt;Depends&lt;/font&gt;" style="resizable=0;html=1;align=center;verticalAlign=top;labelBackgroundColor=none;rounded=0;fontSize=18;fontColor=none;" connectable="0" vertex="1" parent="1">
          <mxGeometry x="984" y="1570.5" as="geometry" />
        </mxCell>
        <mxCell id="2JAsxOmvKEnWSwmgY7Z6-377" value="" style="endArrow=open;html=1;rounded=0;align=center;verticalAlign=bottom;dashed=1;endFill=0;labelBackgroundColor=none;fontSize=18;fontColor=none;exitX=0;exitY=0;exitDx=0;exitDy=0;entryX=0.75;entryY=0;entryDx=0;entryDy=0;strokeColor=#FF0000;" edge="1" parent="1" target="2JAsxOmvKEnWSwmgY7Z6-363" source="2JAsxOmvKEnWSwmgY7Z6-388">
          <mxGeometry relative="1" as="geometry">
            <mxPoint x="1927.75" y="1532.75" as="sourcePoint" />
            <mxPoint x="1528.9999999999995" y="1731.5000000000002" as="targetPoint" />
            <Array as="points">
              <mxPoint x="1841" y="1492" />
              <mxPoint x="1050" y="1492" />
            </Array>
          </mxGeometry>
        </mxCell>
        <mxCell id="2JAsxOmvKEnWSwmgY7Z6-378" value="&lt;font color=&quot;#ff0000&quot;&gt;Depends&lt;/font&gt;" style="resizable=0;html=1;align=center;verticalAlign=top;labelBackgroundColor=none;rounded=0;fontSize=18;fontColor=none;" connectable="0" vertex="1" parent="1">
          <mxGeometry x="1060" y="1570.5" as="geometry" />
        </mxCell>
        <mxCell id="2JAsxOmvKEnWSwmgY7Z6-379" value="" style="endArrow=classic;startArrow=classic;html=1;rounded=0;strokeColor=#000000;fontSize=18;exitX=1;exitY=0.75;exitDx=0;exitDy=0;dashed=1;entryX=0;entryY=0.75;entryDx=0;entryDy=0;" edge="1" parent="1" source="2JAsxOmvKEnWSwmgY7Z6-206" target="2JAsxOmvKEnWSwmgY7Z6-352">
          <mxGeometry width="50" height="50" relative="1" as="geometry">
            <mxPoint x="1465" y="2150.726" as="sourcePoint" />
            <mxPoint x="1453" y="1625" as="targetPoint" />
            <Array as="points">
              <mxPoint x="1209" y="1941" />
              <mxPoint x="1209" y="1592" />
            </Array>
          </mxGeometry>
        </mxCell>
        <mxCell id="2JAsxOmvKEnWSwmgY7Z6-380" value="Reference configs" style="rounded=1;whiteSpace=wrap;html=1;fillColor=#60a917;fontColor=#ffffff;strokeColor=#2D7600;" vertex="1" parent="1">
          <mxGeometry x="906" y="1482" width="68" height="32" as="geometry" />
        </mxCell>
        <mxCell id="2JAsxOmvKEnWSwmgY7Z6-381" value="" style="endArrow=open;html=1;rounded=0;align=center;verticalAlign=bottom;dashed=1;endFill=0;labelBackgroundColor=none;fontSize=18;fontColor=none;exitX=1;exitY=0.75;exitDx=0;exitDy=0;entryX=0;entryY=0.75;entryDx=0;entryDy=0;" edge="1" parent="1" source="2JAsxOmvKEnWSwmgY7Z6-223" target="2JAsxOmvKEnWSwmgY7Z6-380">
          <mxGeometry relative="1" as="geometry">
            <mxPoint x="767" y="1514" as="sourcePoint" />
            <mxPoint x="972" y="1526.5" as="targetPoint" />
            <Array as="points" />
          </mxGeometry>
        </mxCell>
        <mxCell id="2JAsxOmvKEnWSwmgY7Z6-382" value="Creates" style="resizable=0;html=1;align=center;verticalAlign=top;labelBackgroundColor=none;rounded=0;fontSize=18;fontColor=none;" connectable="0" vertex="1" parent="2JAsxOmvKEnWSwmgY7Z6-381">
          <mxGeometry relative="1" as="geometry">
            <mxPoint x="9" y="-8" as="offset" />
          </mxGeometry>
        </mxCell>
        <mxCell id="2JAsxOmvKEnWSwmgY7Z6-383" value="" style="endArrow=open;html=1;rounded=0;align=center;verticalAlign=bottom;dashed=1;endFill=0;labelBackgroundColor=none;fontSize=18;fontColor=none;exitX=0.262;exitY=0.242;exitDx=0;exitDy=0;entryX=0.5;entryY=0;entryDx=0;entryDy=0;strokeColor=#000000;exitPerimeter=0;" edge="1" parent="1" source="2JAsxOmvKEnWSwmgY7Z6-200" target="2JAsxOmvKEnWSwmgY7Z6-380">
          <mxGeometry relative="1" as="geometry">
            <mxPoint x="1243.23" y="1459.52" as="sourcePoint" />
            <mxPoint x="1006.3749999999998" y="1615" as="targetPoint" />
            <Array as="points">
              <mxPoint x="1233" y="1421" />
              <mxPoint x="940" y="1422" />
            </Array>
          </mxGeometry>
        </mxCell>
        <mxCell id="2JAsxOmvKEnWSwmgY7Z6-384" value="Depends" style="resizable=0;html=1;align=center;verticalAlign=top;labelBackgroundColor=none;rounded=0;fontSize=18;fontColor=none;" connectable="0" vertex="1" parent="1">
          <mxGeometry x="943" y="1452" as="geometry" />
        </mxCell>
        <mxCell id="2JAsxOmvKEnWSwmgY7Z6-385" value="Possible Inter dependency" style="resizable=0;html=1;align=center;verticalAlign=top;labelBackgroundColor=none;rounded=0;fontSize=18;fontColor=none;" connectable="0" vertex="1" parent="1">
          <mxGeometry x="983" y="1934" as="geometry">
            <mxPoint x="-42" y="1" as="offset" />
          </mxGeometry>
        </mxCell>
        <mxCell id="2JAsxOmvKEnWSwmgY7Z6-386" value="&lt;font style=&quot;font-size: 22px;&quot;&gt;AAT IMS_LT feature development workflow&lt;/font&gt;&lt;br&gt;" style="rounded=0;html=1;align=left;horizontal=1;verticalAlign=top;whiteSpace=wrap;fontSize=18;strokeColor=none;" vertex="1" parent="1">
          <mxGeometry x="32.5" y="1182" width="475.5" height="35" as="geometry" />
        </mxCell>
        <mxCell id="2JAsxOmvKEnWSwmgY7Z6-387" value="Pass" style="edgeStyle=orthogonalEdgeStyle;rounded=0;orthogonalLoop=1;jettySize=auto;html=1;exitX=1;exitY=0.5;exitDx=0;exitDy=0;entryX=0.5;entryY=1;entryDx=0;entryDy=0;fontSize=17;" edge="1" parent="1" source="2JAsxOmvKEnWSwmgY7Z6-388" target="2JAsxOmvKEnWSwmgY7Z6-398">
          <mxGeometry x="0.1058" relative="1" as="geometry">
            <mxPoint as="offset" />
          </mxGeometry>
        </mxCell>
        <mxCell id="2JAsxOmvKEnWSwmgY7Z6-388" value="integration testing:&lt;br&gt;- automated for the existing features&lt;br&gt;- manual for new ones" style="rhombus;whiteSpace=wrap;html=1;fillColor=#b0e3e6;strokeColor=#000066;strokeWidth=4;" vertex="1" parent="1">
          <mxGeometry x="1785" y="1777" width="210" height="141.5" as="geometry" />
        </mxCell>
        <mxCell id="2JAsxOmvKEnWSwmgY7Z6-389" style="edgeStyle=orthogonalEdgeStyle;rounded=0;orthogonalLoop=1;jettySize=auto;html=1;exitX=1;exitY=0.5;exitDx=0;exitDy=0;fontSize=17;" edge="1" parent="1" source="2JAsxOmvKEnWSwmgY7Z6-390">
          <mxGeometry relative="1" as="geometry">
            <mxPoint x="2429" y="1964" as="targetPoint" />
            <Array as="points">
              <mxPoint x="2429" y="1964" />
            </Array>
          </mxGeometry>
        </mxCell>
        <mxCell id="2JAsxOmvKEnWSwmgY7Z6-390" value="Product Integration development:&lt;br&gt;&lt;div style=&quot;text-align: left;&quot;&gt;&lt;span style=&quot;background-color: initial;&quot;&gt;&amp;nbsp;- Wrapper service implementations&lt;/span&gt;&lt;br&gt;&lt;/div&gt;&lt;div style=&quot;text-align: left;&quot;&gt;&lt;span style=&quot;background-color: initial;&quot;&gt;&amp;nbsp;- Development of deployment scripts&lt;/span&gt;&lt;/div&gt;&lt;div style=&quot;text-align: left;&quot;&gt;&lt;span style=&quot;background-color: initial;&quot;&gt;&amp;nbsp;- Registration related script development&lt;/span&gt;&lt;/div&gt;&lt;div style=&quot;text-align: left;&quot;&gt;&lt;span style=&quot;background-color: initial;&quot;&gt;&amp;nbsp;- Frontend development of the runtime UI&lt;/span&gt;&lt;/div&gt;" style="rounded=1;whiteSpace=wrap;html=1;fillColor=#b1ddf0;strokeColor=#10739e;" vertex="1" parent="1">
          <mxGeometry x="2163" y="1915" width="231" height="98" as="geometry" />
        </mxCell>
        <mxCell id="2JAsxOmvKEnWSwmgY7Z6-391" value="Problems with Adapter descriptors" style="edgeStyle=orthogonalEdgeStyle;rounded=0;orthogonalLoop=1;jettySize=auto;html=1;fontSize=14;exitX=0.5;exitY=1;exitDx=0;exitDy=0;" edge="1" parent="1">
          <mxGeometry x="0.07" relative="1" as="geometry">
            <mxPoint x="1886.690000000001" y="1915.95" as="sourcePoint" />
            <mxPoint x="1443" y="1864" as="targetPoint" />
            <Array as="points">
              <mxPoint x="1867.69" y="1915.7" />
              <mxPoint x="1867.69" y="2095.7" />
              <mxPoint x="1442.69" y="2095.7" />
            </Array>
            <mxPoint as="offset" />
          </mxGeometry>
        </mxCell>
        <mxCell id="2JAsxOmvKEnWSwmgY7Z6-392" value="Problems with Adapter implementation" style="edgeStyle=orthogonalEdgeStyle;rounded=0;orthogonalLoop=1;jettySize=auto;html=1;fontSize=14;entryX=0.25;entryY=1;entryDx=0;entryDy=0;exitX=0.5;exitY=1;exitDx=0;exitDy=0;" edge="1" parent="1" target="2JAsxOmvKEnWSwmgY7Z6-206">
          <mxGeometry x="-0.0706" relative="1" as="geometry">
            <mxPoint x="1886.690000000001" y="1915.95" as="sourcePoint" />
            <mxPoint x="1009.6899999999991" y="1939.7" as="targetPoint" />
            <Array as="points">
              <mxPoint x="1906" y="1916" />
              <mxPoint x="1906" y="2153" />
              <mxPoint x="750" y="2153" />
              <mxPoint x="750" y="1963" />
            </Array>
            <mxPoint as="offset" />
          </mxGeometry>
        </mxCell>
        <mxCell id="2JAsxOmvKEnWSwmgY7Z6-394" value="&lt;font style=&quot;font-size: 14px;&quot;&gt;Problems with controlling implementation&lt;/font&gt;" style="edgeStyle=orthogonalEdgeStyle;rounded=0;orthogonalLoop=1;jettySize=auto;html=1;exitX=0.5;exitY=1;exitDx=0;exitDy=0;entryX=0.25;entryY=1;entryDx=0;entryDy=0;" edge="1" parent="1" target="2JAsxOmvKEnWSwmgY7Z6-390">
          <mxGeometry relative="1" as="geometry">
            <mxPoint x="3772.25" y="1834.4999999999995" as="sourcePoint" />
            <mxPoint x="2301.999999999999" y="1897.0000000000005" as="targetPoint" />
            <Array as="points">
              <mxPoint x="3772" y="2155" />
              <mxPoint x="2221" y="2155" />
            </Array>
          </mxGeometry>
        </mxCell>
        <mxCell id="2JAsxOmvKEnWSwmgY7Z6-403" style="edgeStyle=orthogonalEdgeStyle;rounded=0;orthogonalLoop=1;jettySize=auto;html=1;exitX=1;exitY=0.5;exitDx=0;exitDy=0;entryX=0.112;entryY=0.502;entryDx=0;entryDy=0;entryPerimeter=0;fontSize=17;" edge="1" parent="1" source="2JAsxOmvKEnWSwmgY7Z6-398" target="2JAsxOmvKEnWSwmgY7Z6-401">
          <mxGeometry relative="1" as="geometry">
            <Array as="points">
              <mxPoint x="2092" y="1734" />
            </Array>
          </mxGeometry>
        </mxCell>
        <mxCell id="2JAsxOmvKEnWSwmgY7Z6-395" value="TSS delivery" style="rounded=1;whiteSpace=wrap;html=1;fillColor=#60a917;fontColor=#ffffff;strokeColor=#2D7600;" vertex="1" parent="1">
          <mxGeometry x="1969" y="1632.5" width="105.5" height="32" as="geometry" />
        </mxCell>
        <mxCell id="2JAsxOmvKEnWSwmgY7Z6-398" value="Delivery creation process, doc update" style="rounded=0;html=1;align=center;horizontal=1;verticalAlign=top;whiteSpace=wrap;fontSize=14;strokeColor=#000066;strokeWidth=4;" vertex="1" parent="1">
          <mxGeometry x="1963.25" y="1703.5" width="117" height="61.5" as="geometry" />
        </mxCell>
        <mxCell id="2JAsxOmvKEnWSwmgY7Z6-399" value="Creates" style="html=1;verticalAlign=bottom;labelBackgroundColor=none;endArrow=open;endFill=0;dashed=1;rounded=0;fontSize=18;fontColor=none;exitX=0.5;exitY=0;exitDx=0;exitDy=0;entryX=0.5;entryY=1;entryDx=0;entryDy=0;" edge="1" parent="1" source="2JAsxOmvKEnWSwmgY7Z6-398" target="2JAsxOmvKEnWSwmgY7Z6-395">
          <mxGeometry x="-0.359" width="160" relative="1" as="geometry">
            <mxPoint x="1293" y="1609.5" as="sourcePoint" />
            <mxPoint x="1293" y="1742" as="targetPoint" />
            <mxPoint as="offset" />
          </mxGeometry>
        </mxCell>
        <mxCell id="2JAsxOmvKEnWSwmgY7Z6-400" value="Problems with TS feature" style="edgeStyle=orthogonalEdgeStyle;rounded=0;orthogonalLoop=1;jettySize=auto;html=1;exitX=0.5;exitY=0;exitDx=0;exitDy=0;fontSize=18;fontColor=none;entryX=0.64;entryY=-0.012;entryDx=0;entryDy=0;entryPerimeter=0;" edge="1" parent="1" target="2JAsxOmvKEnWSwmgY7Z6-194">
          <mxGeometry x="0.076" relative="1" as="geometry">
            <mxPoint x="999" y="1440.62" as="targetPoint" />
            <Array as="points">
              <mxPoint x="1889" y="1210" />
              <mxPoint x="781" y="1210" />
            </Array>
            <mxPoint x="1889.000000000001" y="1776.37" as="sourcePoint" />
            <mxPoint as="offset" />
          </mxGeometry>
        </mxCell>
        <mxCell id="2JAsxOmvKEnWSwmgY7Z6-401" value="" style="line;strokeWidth=2;direction=west;html=1;fontSize=14;" vertex="1" parent="1">
          <mxGeometry x="1981" y="1503" width="124.75" height="16" as="geometry" />
        </mxCell>
        <mxCell id="2JAsxOmvKEnWSwmgY7Z6-404" style="edgeStyle=orthogonalEdgeStyle;rounded=0;orthogonalLoop=1;jettySize=auto;html=1;exitX=0.506;exitY=0.455;exitDx=0;exitDy=0;entryX=0.5;entryY=1;entryDx=0;entryDy=0;fontSize=14;exitPerimeter=0;" edge="1" parent="1" target="2JAsxOmvKEnWSwmgY7Z6-405" source="2JAsxOmvKEnWSwmgY7Z6-401">
          <mxGeometry relative="1" as="geometry">
            <mxPoint x="2043.37" y="1512.12" as="sourcePoint" />
          </mxGeometry>
        </mxCell>
        <mxCell id="2JAsxOmvKEnWSwmgY7Z6-405" value="" style="ellipse;html=1;shape=endState;fillColor=#000000;strokeColor=#ff0000;fontSize=14;" vertex="1" parent="1">
          <mxGeometry x="2028.37" y="1366.37" width="30" height="30" as="geometry" />
        </mxCell>
        <mxCell id="2JAsxOmvKEnWSwmgY7Z6-424" value="" style="ellipse;html=1;shape=startState;fillColor=#000000;strokeColor=#ff0000;" vertex="1" parent="1">
          <mxGeometry x="2245.63" y="1361.75" width="30" height="30" as="geometry" />
        </mxCell>
        <mxCell id="2JAsxOmvKEnWSwmgY7Z6-425" value="" style="edgeStyle=orthogonalEdgeStyle;html=1;verticalAlign=bottom;endArrow=open;endSize=8;strokeColor=#ff0000;rounded=0;entryX=0.5;entryY=0;entryDx=0;entryDy=0;" edge="1" parent="1" source="2JAsxOmvKEnWSwmgY7Z6-424" target="2JAsxOmvKEnWSwmgY7Z6-427">
          <mxGeometry relative="1" as="geometry">
            <mxPoint x="2103.63" y="1727.25" as="targetPoint" />
          </mxGeometry>
        </mxCell>
        <mxCell id="2JAsxOmvKEnWSwmgY7Z6-426" style="edgeStyle=orthogonalEdgeStyle;rounded=0;orthogonalLoop=1;jettySize=auto;html=1;exitX=0.5;exitY=1;exitDx=0;exitDy=0;" edge="1" parent="1" source="2JAsxOmvKEnWSwmgY7Z6-427" target="2JAsxOmvKEnWSwmgY7Z6-435">
          <mxGeometry relative="1" as="geometry" />
        </mxCell>
        <mxCell id="2JAsxOmvKEnWSwmgY7Z6-427" value="New feature request" style="rounded=1;whiteSpace=wrap;html=1;" vertex="1" parent="1">
          <mxGeometry x="2201.63" y="1454.25" width="118" height="25" as="geometry" />
        </mxCell>
        <mxCell id="2JAsxOmvKEnWSwmgY7Z6-428" value="M / L" style="edgeStyle=orthogonalEdgeStyle;rounded=0;orthogonalLoop=1;jettySize=auto;html=1;exitX=0.5;exitY=1;exitDx=0;exitDy=0;entryX=0.5;entryY=0;entryDx=0;entryDy=0;startArrow=none;" edge="1" parent="1" source="2JAsxOmvKEnWSwmgY7Z6-440" target="2JAsxOmvKEnWSwmgY7Z6-430">
          <mxGeometry relative="1" as="geometry" />
        </mxCell>
        <mxCell id="2JAsxOmvKEnWSwmgY7Z6-429" value="Analysis" style="rounded=1;whiteSpace=wrap;html=1;fillColor=#b1ddf0;strokeColor=#10739e;" vertex="1" parent="1">
          <mxGeometry x="2226.63" y="1617.75" width="69" height="25" as="geometry" />
        </mxCell>
        <mxCell id="2JAsxOmvKEnWSwmgY7Z6-430" value="Study" style="rounded=1;whiteSpace=wrap;html=1;fillColor=#b1ddf0;strokeColor=#000066;strokeWidth=4;" vertex="1" parent="1">
          <mxGeometry x="2226.63" y="1812.25" width="69" height="25" as="geometry" />
        </mxCell>
        <mxCell id="2JAsxOmvKEnWSwmgY7Z6-431" style="edgeStyle=orthogonalEdgeStyle;rounded=0;orthogonalLoop=1;jettySize=auto;html=1;exitX=1;exitY=0.5;exitDx=0;exitDy=0;entryX=0.5;entryY=0;entryDx=0;entryDy=0;" edge="1" parent="1" source="2JAsxOmvKEnWSwmgY7Z6-435" target="2JAsxOmvKEnWSwmgY7Z6-429">
          <mxGeometry relative="1" as="geometry" />
        </mxCell>
        <mxCell id="2JAsxOmvKEnWSwmgY7Z6-432" value="S / Unknown" style="edgeLabel;html=1;align=center;verticalAlign=middle;resizable=0;points=[];fontSize=14;" vertex="1" connectable="0" parent="2JAsxOmvKEnWSwmgY7Z6-431">
          <mxGeometry x="0.1089" y="1" relative="1" as="geometry">
            <mxPoint x="3" y="-6" as="offset" />
          </mxGeometry>
        </mxCell>
        <mxCell id="2JAsxOmvKEnWSwmgY7Z6-433" style="edgeStyle=orthogonalEdgeStyle;rounded=0;orthogonalLoop=1;jettySize=auto;html=1;exitX=0.5;exitY=1;exitDx=0;exitDy=0;entryX=0;entryY=0.5;entryDx=0;entryDy=0;" edge="1" parent="1" source="2JAsxOmvKEnWSwmgY7Z6-435" target="2JAsxOmvKEnWSwmgY7Z6-430">
          <mxGeometry relative="1" as="geometry">
            <Array as="points">
              <mxPoint x="2194.63" y="1553.25" />
              <mxPoint x="2194.63" y="1825.25" />
            </Array>
          </mxGeometry>
        </mxCell>
        <mxCell id="2JAsxOmvKEnWSwmgY7Z6-434" value="M/L" style="edgeLabel;html=1;align=center;verticalAlign=middle;resizable=0;points=[];fontSize=14;" vertex="1" connectable="0" parent="2JAsxOmvKEnWSwmgY7Z6-433">
          <mxGeometry x="-0.02" y="3" relative="1" as="geometry">
            <mxPoint x="-3" y="-25" as="offset" />
          </mxGeometry>
        </mxCell>
        <mxCell id="2JAsxOmvKEnWSwmgY7Z6-435" value="" style="rhombus;whiteSpace=wrap;html=1;direction=south;" vertex="1" parent="1">
          <mxGeometry x="2248.63" y="1540.25" width="24" height="25" as="geometry" />
        </mxCell>
        <mxCell id="2JAsxOmvKEnWSwmgY7Z6-436" style="edgeStyle=orthogonalEdgeStyle;rounded=0;orthogonalLoop=1;jettySize=auto;html=1;exitX=1;exitY=0.5;exitDx=0;exitDy=0;entryX=0.901;entryY=0.014;entryDx=0;entryDy=0;entryPerimeter=0;" edge="1" parent="1" source="2JAsxOmvKEnWSwmgY7Z6-437" target="2JAsxOmvKEnWSwmgY7Z6-390">
          <mxGeometry relative="1" as="geometry">
            <mxPoint x="2380.36" y="1722.31" as="targetPoint" />
            <Array as="points" />
          </mxGeometry>
        </mxCell>
        <mxCell id="2JAsxOmvKEnWSwmgY7Z6-437" value="" style="shape=ellipse;html=1;fillColor=strokeColor;fontSize=18;fontColor=#ffffff;" vertex="1" parent="1">
          <mxGeometry x="2330.63" y="1712.75" width="20" height="19" as="geometry" />
        </mxCell>
        <mxCell id="2JAsxOmvKEnWSwmgY7Z6-438" value="" style="endArrow=classic;html=1;rounded=0;fontSize=14;exitX=1;exitY=0.5;exitDx=0;exitDy=0;entryX=0.5;entryY=1;entryDx=0;entryDy=0;" edge="1" parent="1" source="2JAsxOmvKEnWSwmgY7Z6-430" target="2JAsxOmvKEnWSwmgY7Z6-437">
          <mxGeometry width="50" height="50" relative="1" as="geometry">
            <mxPoint x="2659.63" y="1764.25" as="sourcePoint" />
            <mxPoint x="2709.63" y="1714.25" as="targetPoint" />
            <Array as="points">
              <mxPoint x="2340.63" y="1825.25" />
            </Array>
          </mxGeometry>
        </mxCell>
        <mxCell id="2JAsxOmvKEnWSwmgY7Z6-439" value="S" style="endArrow=classic;html=1;rounded=0;fontSize=14;exitX=1;exitY=0.5;exitDx=0;exitDy=0;entryX=0;entryY=0.5;entryDx=0;entryDy=0;" edge="1" parent="1" source="2JAsxOmvKEnWSwmgY7Z6-440" target="2JAsxOmvKEnWSwmgY7Z6-437">
          <mxGeometry width="50" height="50" relative="1" as="geometry">
            <mxPoint x="2659.63" y="1764.25" as="sourcePoint" />
            <mxPoint x="2379.63" y="1711.25" as="targetPoint" />
          </mxGeometry>
        </mxCell>
        <mxCell id="2JAsxOmvKEnWSwmgY7Z6-440" value="" style="rhombus;whiteSpace=wrap;html=1;" vertex="1" parent="1">
          <mxGeometry x="2248.63" y="1710.25" width="25" height="24" as="geometry" />
        </mxCell>
        <mxCell id="2JAsxOmvKEnWSwmgY7Z6-441" value="" style="edgeStyle=orthogonalEdgeStyle;rounded=0;orthogonalLoop=1;jettySize=auto;html=1;exitX=0.5;exitY=1;exitDx=0;exitDy=0;entryX=0.5;entryY=0;entryDx=0;entryDy=0;endArrow=none;" edge="1" parent="1" source="2JAsxOmvKEnWSwmgY7Z6-429" target="2JAsxOmvKEnWSwmgY7Z6-440">
          <mxGeometry relative="1" as="geometry">
            <mxPoint x="2261.13" y="1642.75" as="sourcePoint" />
            <mxPoint x="2261.13" y="1812.25" as="targetPoint" />
          </mxGeometry>
        </mxCell>
      </root>
    </mxGraphModel>
  </diagram>
</mxfile>
